<?xml version="1.0"?>
<svg xmlns="http://www.w3.org/2000/svg" xmlns:xlink="http://www.w3.org/1999/xlink" version="1.1" id="Capa_1" x="0px" y="0px" viewBox="0 0 512 512" style="enable-background:new 0 0 512 512;" xml:space="preserve" width="512px" height="512px"><g><g>
	<g>
		<g>
			<path d="M400,231.056l-32.672,16.288l-16.112-28.16L368,210.832V63.056l-112-56l-112,56v147.776l16.784,8.4l-16.112,28.112     L112,231.056l-112,56v147.776l112,56l112-56v-41.888h64v41.888l112,56l112-56V287.056L400,231.056z M306.624,205.744L272,223.056     v-92.224l64-32v92.224l-0.704,0.352l-17.408-30.4l-27.776,15.904L306.624,205.744z M256,42.832l60.224,30.112L256,103.056     l-60.224-30.112L256,42.832z M176,98.832l64,32v92.224l-34.624-17.312l16.512-28.8l-27.776-16l-17.408,30.4L176,191.056V98.832z      M96,447.056l-64-32v-92.224l64,32V447.056z M51.776,296.944L112,266.832l60.224,30.112L112,327.056L51.776,296.944z      M192,360.944h-32v32h32v22.112l-64,32v-92.224l64-32V360.944z M288,360.944h-64v-73.888l-50.656-25.312l16.112-28.16     L256,266.832l66.544-33.264l16.112,28.16L288,287.056V360.944z M384,447.056l-64-32v-22.112h32v-32h-32v-38.112l64,32V447.056z      M339.776,296.944L400,266.832l60.224,30.112L400,327.056L339.776,296.944z M480,415.056l-64,32v-92.224l64-32V415.056z" data-original="#000000" class="active-path" data-old_color="#1bb978" fill="#1bb978"/>
			<rect x="64" y="168.944" width="32" height="32" data-original="#000000" class="active-path" data-old_color="#1bb978" fill="#1bb978"/>
			<rect x="240" y="472.944" width="32" height="32" data-original="#000000" class="active-path" data-old_color="#1bb978" fill="#1bb978"/>
			<rect x="400" y="168.944" width="32" height="32" data-original="#000000" class="active-path" data-old_color="#1bb978" fill="#1bb978"/>
		</g>
	</g>
</g></g> </svg>
