<?xml version="1.0"?>
<svg xmlns="http://www.w3.org/2000/svg" id="Layer_1" data-name="Layer 1" viewBox="0 0 128 128" width="512" height="512"><title>COIN</title><circle cx="64" cy="75.76" r="21.882" style="fill:#01ecf1"/><circle cx="64" cy="75.76" r="15.354" style="fill:#fff"/><path d="M83.614,29.313a5.117,5.117,0,0,0-1.2,10.092V44H75.047a1.25,1.25,0,0,0-1.25,1.25v5.375a1.25,1.25,0,1,0,2.5,0V46.5h7.364a1.25,1.25,0,0,0,1.25-1.25V39.376a5.114,5.114,0,0,0-1.3-10.063Zm0,7.75a2.625,2.625,0,1,1,2.625-2.625A2.628,2.628,0,0,1,83.614,37.063Z" style="fill:#1c0087"/><path d="M65.25,52.662V39.39a5.125,5.125,0,1,0-2.5,0V52.662a22.958,22.958,0,0,0-8.5,2.127V45.25A1.25,1.25,0,0,0,53,44H45.636V39.39a5.125,5.125,0,1,0-2.5,0v5.86a1.25,1.25,0,0,0,1.25,1.25H51.75v9.65A23.12,23.12,0,0,0,45.7,89.912a1.25,1.25,0,1,0,1.976-1.531A20.431,20.431,0,0,1,43.368,75.76,20.629,20.629,0,1,1,51.58,92.236a1.25,1.25,0,1,0-1.507,1.994A22.924,22.924,0,0,0,64,98.892a23.132,23.132,0,0,0,1.25-46.23ZM41.761,34.438a2.625,2.625,0,1,1,2.625,2.625A2.628,2.628,0,0,1,41.761,34.438Zm19.614,0A2.625,2.625,0,1,1,64,37.063,2.628,2.628,0,0,1,61.375,34.438Z" style="fill:#1c0087"/><path d="M64,92.363a16.6,16.6,0,1,0-16.6-16.6A16.622,16.622,0,0,0,64,92.363Zm0-30.707a14.1,14.1,0,1,1-14.1,14.1A14.12,14.12,0,0,1,64,61.656Z" style="fill:#1c0087"/><path d="M58.921,81.076a1.25,1.25,0,0,0,0,2.5h.553v.879a1.25,1.25,0,1,0,2.5,0v-.879h.57v.879a1.25,1.25,0,1,0,2.5,0v-.879h.761a4.528,4.528,0,0,0,4.523-4.523v-.294A4.5,4.5,0,0,0,68.683,75.3a4.509,4.509,0,0,0-3.289-7.609h-.35v-.626a1.25,1.25,0,1,0-2.5,0v.626h-.57v-.626a1.25,1.25,0,1,0-2.5,0v.626h-.553a1.25,1.25,0,0,0,0,2.5h.553V81.076ZM65.394,70.19a2.023,2.023,0,1,1,0,4.046h-3.42V70.19Zm-3.42,6.546h3.832a2.025,2.025,0,0,1,2.023,2.023v.294a2.025,2.025,0,0,1-2.023,2.023H61.974Z" style="fill:#1c0087"/></svg>
