<svg height="496pt" viewBox="0 0 496 496" width="496pt" xmlns="http://www.w3.org/2000/svg" xmlns:xlink="http://www.w3.org/1999/xlink"><linearGradient id="a" gradientUnits="userSpaceOnUse" x1="248" x2="248" y1="496" y2="0"><stop offset="0" stop-color="#9f2fff"/><stop offset="1" stop-color="#0bb1d3"/></linearGradient><path d="m256 192h-8v-16h-16v16h-24v112h24v16h16v-16h8c17.648438 0 32-14.351562 32-32 0-9.542969-4.199219-18.136719-10.855469-24 6.65625-5.863281 10.855469-14.457031 10.855469-24 0-17.648438-14.351562-32-32-32zm0 96h-32v-32h32c8.824219 0 16 7.175781 16 16s-7.175781 16-16 16zm0-48h-32v-32h32c8.824219 0 16 7.175781 16 16s-7.175781 16-16 16zm-104 8c0 22.832031 8.214844 45 23.152344 62.40625l-12.152344 10.417969c-17.40625-20.304688-27-46.167969-27-72.824219 0-41.601562 22.855469-79.542969 59.648438-99.03125l8.441406-4.015625c39.039062-16.527344 84.917968-9.226563 116.734375 18.054687l-10.417969 12.152344c-17.40625-14.945312-39.574219-23.160156-62.40625-23.160156-12.96875 0-25.535156 2.535156-37.359375 7.535156l-7.816406 3.722656c-31.230469 16.558594-50.824219 49.085938-50.824219 84.742188zm181-72.824219c17.40625 20.304688 27 46.167969 27 72.824219 0 61.761719-50.238281 112-112 112-26.65625 0-52.519531-9.59375-72.824219-27l10.417969-12.152344c17.40625 14.9375 39.574219 23.152344 62.40625 23.152344 52.9375 0 96-43.0625 96-96 0-22.832031-8.214844-45-23.152344-62.40625zm84.464844-61.128906-12.542969 9.929687c19.453125 24.582032 32.78125 53.472657 39 84.023438h-27.921875v32h-24.40625c-4.042969-73.007812-62.585938-131.550781-135.59375-135.59375v-24.40625h32v-27.910156c30.609375 6.230468 59.550781 19.597656 84.167969 39.109375l9.9375-12.535157c-27.433594-21.761718-59.859375-36.417968-94.105469-42.847656v-35.816406h-80v35.816406c-34.289062 6.441406-66.742188 21.128906-94.199219 42.925782l9.941407 12.53125c24.632812-19.5625 53.609374-32.953126 84.257812-39.183594v27.910156h32v24.40625c-73.007812 4.042969-131.550781 62.585938-135.59375 135.59375h-24.40625v-32h-27.921875c6.234375-30.617188 19.601563-59.550781 39.113281-84.160156l-12.535156-9.945313c-21.753906 27.433594-36.410156 59.847657-42.839844 94.105469h-35.816406v80h35.816406c6.429688 34.246094 21.09375 66.671875 42.847656 94.105469l12.535157-9.9375c-19.519531-24.617188-32.878907-53.550781-39.109375-84.167969h27.910156v-32h24.40625c4.042969 73.007812 62.585938 131.550781 135.59375 135.59375v24.40625h-32v27.921875c-30.609375-6.234375-59.542969-19.59375-84.167969-39.113281l-9.9375 12.535156c27.441407 21.753906 59.859375 36.417969 94.105469 42.847656v35.808594h80v-35.816406c34.246094-6.429688 66.671875-21.09375 94.105469-42.847656l-9.9375-12.535157c-24.609375 19.519531-53.550781 32.878907-84.167969 39.109375v-27.910156h-32v-24.40625c73.007812-4.042969 131.550781-62.585938 135.59375-135.59375h24.40625v32h27.921875c-6.136719 30.152344-19.21875 58.710938-38.265625 83.078125l12.601562 9.851563c21.246094-27.167969 35.589844-59.1875 41.925782-92.929688h35.816406v-80h-35.816406c-6.414063-34.183594-21.03125-66.542969-42.71875-93.953125zm-193.464844-98.046875h48v48h-48zm-160 256h-48v-48h48zm208 208h-48v-48h48zm-24-104c-70.574219 0-128-57.425781-128-128s57.425781-128 128-128 128 57.425781 128 128-57.425781 128-128 128zm232-104h-48v-48h48zm-392 120h16v16h-16zm48-16h-16v-16h16zm-80 48h16v16h-16zm352-16h-16v-16h16zm-48-32v-16h16v16zm80 64h-16v-16h16zm-32-336h-16v-16h16zm-48 16h16v16h-16zm80-48h-16v-16h16zm-336 32h-16v-16h16zm32 16v16h-16v-16zm-64-48h-16v-16h16zm0 0" fill="url(#a)"/></svg>