<?xml version="1.0"?>
<svg xmlns="http://www.w3.org/2000/svg" height="512px" viewBox="-172 -21 682 682.66669" width="512px"><g><path d="m327.75 0h-37.5c0 143.207031-62.011719 218.15625-131.25 292.546875-13.042969-14.011719-25.820312-28.046875-37.984375-42.546875h26.167969c11.1875-12.363281 21.917968-24.746094 31.96875-37.5h-87.027344c-10.90625-15.660156-20.886719-32.171875-29.558594-50h150.46875c6.664063-11.867188 12.664063-24.296875 17.855469-37.5h-183.792969c-5.339844-15.585938-9.707031-32.183594-12.941406-50h211.46875c2.417969-11.859375 4.265625-24.328125 5.46875-37.5h-221.824219c-.992187-11.972656-1.519531-24.449219-1.519531-37.5h-37.5c0 158.636719 70.785156 242.457031 143.070312 320-72.285156 77.542969-143.070312 161.363281-143.070312 320h37.5c0-143.207031 62.011719-218.15625 131.25-292.546875 13.042969 14.011719 25.820312 28.046875 37.984375 42.546875h-26.167969c-11.1875 12.363281-21.917968 24.746094-31.96875 37.5h87.027344c10.910156 15.660156 20.890625 32.171875 29.5625 50h-150.46875c-6.667969 11.867188-12.667969 24.296875-17.859375 37.5h183.800781c5.335938 15.585938 9.707032 32.183594 12.933594 50h-211.464844c-2.421875 11.859375-4.265625 24.328125-5.46875 37.5h221.820313c.992187 11.972656 1.519531 24.449219 1.519531 37.5h37.5c0-158.636719-70.785156-242.457031-143.070312-320 72.285156-77.542969 143.070312-161.363281 143.070312-320zm0 0" data-original="#000000" class="active-path" data-old_color="#1bb978" fill="#1bb978"/></g> </svg>
