<svg xmlns="http://www.w3.org/2000/svg" xmlns:xlink="http://www.w3.org/1999/xlink" viewBox="0 0 1086.19 807.03"><defs><style>.cls-1,.cls-10,.cls-100,.cls-11,.cls-12,.cls-13,.cls-14,.cls-15,.cls-16,.cls-17,.cls-18,.cls-19,.cls-20,.cls-21,.cls-22,.cls-23,.cls-24,.cls-25,.cls-26,.cls-27,.cls-28,.cls-29,.cls-30,.cls-31,.cls-32,.cls-33,.cls-34,.cls-35,.cls-36,.cls-37,.cls-38,.cls-39,.cls-40,.cls-41,.cls-42,.cls-43,.cls-44,.cls-45,.cls-46,.cls-47,.cls-48,.cls-49,.cls-50,.cls-51,.cls-52,.cls-53,.cls-54,.cls-55,.cls-56,.cls-57,.cls-58,.cls-59,.cls-6,.cls-60,.cls-61,.cls-62,.cls-63,.cls-64,.cls-65,.cls-66,.cls-67,.cls-68,.cls-69,.cls-7,.cls-70,.cls-71,.cls-72,.cls-73,.cls-74,.cls-75,.cls-76,.cls-77,.cls-78,.cls-79,.cls-8,.cls-80,.cls-81,.cls-82,.cls-83,.cls-84,.cls-85,.cls-86,.cls-87,.cls-88,.cls-89,.cls-9,.cls-90,.cls-91,.cls-92,.cls-93,.cls-94,.cls-95,.cls-96,.cls-97,.cls-98,.cls-99{fill:none;}.cls-2{isolation:isolate;}.cls-3{fill:url(#linear-gradient);}.cls-4{clip-path:url(#clip-path);}.cls-102,.cls-103,.cls-104,.cls-105,.cls-106,.cls-107,.cls-108,.cls-109,.cls-110,.cls-111,.cls-112,.cls-113,.cls-114,.cls-115,.cls-116,.cls-117,.cls-118,.cls-119,.cls-120,.cls-121,.cls-122,.cls-123,.cls-124,.cls-125,.cls-126,.cls-127,.cls-128,.cls-129,.cls-130,.cls-131,.cls-132,.cls-133,.cls-134,.cls-135,.cls-136,.cls-137,.cls-138,.cls-139,.cls-140,.cls-141,.cls-142,.cls-143,.cls-144,.cls-145,.cls-146,.cls-147,.cls-148,.cls-149,.cls-150,.cls-151,.cls-152,.cls-153,.cls-154,.cls-155,.cls-156,.cls-157,.cls-158,.cls-159,.cls-160,.cls-161,.cls-162,.cls-163,.cls-164,.cls-165,.cls-166,.cls-167,.cls-168,.cls-169,.cls-170,.cls-171,.cls-172,.cls-173,.cls-174,.cls-175,.cls-176,.cls-177,.cls-178,.cls-179,.cls-180,.cls-181,.cls-182,.cls-183,.cls-184,.cls-185,.cls-186,.cls-187,.cls-188,.cls-189,.cls-190,.cls-191,.cls-192,.cls-193,.cls-194,.cls-195,.cls-196,.cls-197,.cls-198,.cls-199,.cls-200,.cls-201,.cls-202,.cls-203,.cls-204,.cls-205,.cls-206,.cls-207,.cls-208,.cls-209,.cls-210,.cls-211,.cls-212,.cls-213,.cls-214,.cls-215,.cls-216,.cls-217,.cls-218,.cls-219,.cls-5{mix-blend-mode:overlay;}.cls-6{stroke:#0c033e;}.cls-10,.cls-100,.cls-11,.cls-12,.cls-13,.cls-14,.cls-15,.cls-16,.cls-17,.cls-18,.cls-19,.cls-20,.cls-21,.cls-22,.cls-23,.cls-24,.cls-25,.cls-26,.cls-27,.cls-28,.cls-29,.cls-30,.cls-31,.cls-32,.cls-33,.cls-34,.cls-35,.cls-36,.cls-37,.cls-38,.cls-39,.cls-40,.cls-41,.cls-42,.cls-43,.cls-44,.cls-45,.cls-46,.cls-47,.cls-48,.cls-49,.cls-50,.cls-51,.cls-52,.cls-53,.cls-54,.cls-55,.cls-56,.cls-57,.cls-58,.cls-59,.cls-6,.cls-60,.cls-61,.cls-62,.cls-63,.cls-64,.cls-65,.cls-66,.cls-67,.cls-68,.cls-69,.cls-7,.cls-70,.cls-71,.cls-72,.cls-73,.cls-74,.cls-75,.cls-76,.cls-77,.cls-78,.cls-79,.cls-8,.cls-80,.cls-81,.cls-82,.cls-83,.cls-84,.cls-85,.cls-86,.cls-87,.cls-88,.cls-89,.cls-9,.cls-90,.cls-91,.cls-92,.cls-93,.cls-94,.cls-95,.cls-96,.cls-97,.cls-98,.cls-99{stroke-linecap:round;stroke-linejoin:round;}.cls-10,.cls-100,.cls-11,.cls-12,.cls-13,.cls-14,.cls-15,.cls-16,.cls-17,.cls-18,.cls-19,.cls-20,.cls-21,.cls-22,.cls-23,.cls-24,.cls-25,.cls-26,.cls-27,.cls-28,.cls-29,.cls-30,.cls-31,.cls-32,.cls-33,.cls-34,.cls-35,.cls-36,.cls-37,.cls-6,.cls-7,.cls-70,.cls-71,.cls-72,.cls-73,.cls-74,.cls-75,.cls-76,.cls-77,.cls-78,.cls-79,.cls-8,.cls-80,.cls-81,.cls-82,.cls-83,.cls-84,.cls-85,.cls-86,.cls-87,.cls-88,.cls-89,.cls-9,.cls-90,.cls-91,.cls-92,.cls-93,.cls-94,.cls-95,.cls-96,.cls-97,.cls-98,.cls-99{stroke-dasharray:1 11;}.cls-7{stroke:#140b44;stroke-width:1.06px;}.cls-8{stroke:#1c134a;stroke-width:1.13px;}.cls-9{stroke:#241b51;stroke-width:1.19px;}.cls-10{stroke:#2b2457;stroke-width:1.26px;}.cls-11{stroke:#332c5d;stroke-width:1.32px;}.cls-12{stroke:#3b3463;stroke-width:1.39px;}.cls-13{stroke:#433c6a;stroke-width:1.45px;}.cls-14{stroke:#4b4470;stroke-width:1.52px;}.cls-15{stroke:#534c76;stroke-width:1.58px;}.cls-16{stroke:#5a547c;stroke-width:1.65px;}.cls-17{stroke:#625c82;}.cls-17,.cls-89{stroke-width:1.71px;}.cls-18{stroke:#6a6589;}.cls-18,.cls-88{stroke-width:1.77px;}.cls-19{stroke:#726d8f;stroke-width:1.84px;}.cls-20{stroke:#7a7595;stroke-width:1.9px;}.cls-21{stroke:#827d9b;}.cls-21,.cls-85{stroke-width:1.97px;}.cls-22{stroke:#8985a2;}.cls-22,.cls-84{stroke-width:2.03px;}.cls-23{stroke:#918da8;stroke-width:2.1px;}.cls-24{stroke:#9995ae;stroke-width:2.16px;}.cls-25{stroke:#a19db4;}.cls-25,.cls-81{stroke-width:2.23px;}.cls-26{stroke:#a9a6bb;}.cls-26,.cls-80{stroke-width:2.29px;}.cls-27{stroke:#b1aec1;stroke-width:2.35px;}.cls-28{stroke:#b8b6c7;stroke-width:2.42px;}.cls-29{stroke:#c0becd;stroke-width:2.48px;}.cls-30{stroke:#c8c6d3;stroke-width:2.55px;}.cls-31{stroke:#d0ceda;stroke-width:2.61px;}.cls-32{stroke:#d8d6e0;stroke-width:2.68px;}.cls-33{stroke:#e0dee6;stroke-width:2.74px;}.cls-34{stroke:#e7e7ec;stroke-width:2.81px;}.cls-35{stroke:#efeff3;stroke-width:2.87px;}.cls-36{stroke:#f7f7f9;stroke-width:2.94px;}.cls-37,.cls-38{stroke:#fff;}.cls-37{stroke-width:3px;}.cls-39{stroke:#fefeff;stroke-width:0.98px;}.cls-40{stroke:#fdfdfe;stroke-width:0.95px;}.cls-41{stroke:#fcfdfe;stroke-width:0.93px;}.cls-42{stroke:#fbfcfe;stroke-width:0.9px;}.cls-43{stroke:#fafbfd;stroke-width:0.88px;}.cls-44{stroke:#f9fafd;stroke-width:0.85px;}.cls-45{stroke:#f8f9fd;stroke-width:0.83px;}.cls-46{stroke:#f6f9fc;stroke-width:0.81px;}.cls-47{stroke:#f5f8fc;stroke-width:0.78px;}.cls-48{stroke:#f4f7fc;stroke-width:0.76px;}.cls-49{stroke:#f3f6fb;stroke-width:0.73px;}.cls-50,.cls-71{stroke:#f2f5fb;}.cls-50{stroke-width:0.71px;}.cls-51{stroke:#f1f5fb;stroke-width:0.69px;}.cls-52{stroke:#f0f4fa;stroke-width:0.66px;}.cls-53{stroke:#eff3fa;stroke-width:0.64px;}.cls-54{stroke:#eef2fa;stroke-width:0.61px;}.cls-55{stroke:#edf1fa;stroke-width:0.59px;}.cls-56{stroke:#ecf0f9;stroke-width:0.56px;}.cls-57,.cls-72{stroke:#ebf0f9;}.cls-57{stroke-width:0.54px;}.cls-58{stroke:#eaeff9;stroke-width:0.52px;}.cls-59{stroke:#e9eef8;stroke-width:0.49px;}.cls-60{stroke:#e8edf8;stroke-width:0.47px;}.cls-61{stroke:#e7ecf8;stroke-width:0.44px;}.cls-62{stroke:#e5ecf7;stroke-width:0.42px;}.cls-63{stroke:#e4ebf7;stroke-width:0.4px;}.cls-64{stroke:#e3eaf7;stroke-width:0.37px;}.cls-65{stroke:#e2e9f6;stroke-width:0.35px;}.cls-66{stroke:#e1e8f6;stroke-width:0.32px;}.cls-67{stroke:#e0e8f6;stroke-width:0.3px;}.cls-68{stroke:#dfe7f5;stroke-width:0.27px;}.cls-69,.cls-74{stroke:#dee6f5;}.cls-69{stroke-width:0.25px;}.cls-70{stroke:#f8fafd;stroke-width:2.94px;}.cls-71{stroke-width:2.87px;}.cls-72{stroke-width:2.81px;}.cls-73{stroke:#e5ebf7;stroke-width:2.74px;}.cls-74{stroke-width:2.68px;}.cls-75{stroke:#d8e1f3;stroke-width:2.61px;}.cls-76{stroke:#d1dcf1;stroke-width:2.55px;}.cls-77{stroke:#cbd6ef;stroke-width:2.48px;}.cls-78{stroke:#c4d1ed;stroke-width:2.42px;}.cls-79{stroke:#becceb;stroke-width:2.35px;}.cls-80{stroke:#b7c7e9;}.cls-81{stroke:#b0c2e7;}.cls-82{stroke:#aabde5;stroke-width:2.16px;}.cls-83{stroke:#a3b8e3;stroke-width:2.1px;}.cls-84{stroke:#9db3e1;}.cls-85{stroke:#96aede;}.cls-86{stroke:#90a9dc;stroke-width:1.9px;}.cls-87{stroke:#89a4da;stroke-width:1.84px;}.cls-88{stroke:#839fd8;}.cls-89{stroke:#7c9ad6;}.cls-90{stroke:#7595d4;stroke-width:1.65px;}.cls-91{stroke:#6f90d2;stroke-width:1.58px;}.cls-92{stroke:#688bd0;stroke-width:1.52px;}.cls-93{stroke:#6285ce;stroke-width:1.45px;}.cls-94{stroke:#5b80cc;stroke-width:1.39px;}.cls-95{stroke:#557bca;stroke-width:1.32px;}.cls-96{stroke:#4e76c8;stroke-width:1.26px;}.cls-97{stroke:#4871c6;stroke-width:1.19px;}.cls-98{stroke:#416cc4;stroke-width:1.13px;}.cls-99{stroke:#3b67c2;stroke-width:1.06px;}.cls-100{stroke:#3462c0;}.cls-101{opacity:0.69;mix-blend-mode:screen;}.cls-102{fill:url(#radial-gradient);}.cls-103{fill:url(#radial-gradient-2);}.cls-104{fill:url(#radial-gradient-3);}.cls-105{fill:url(#radial-gradient-4);}.cls-106{fill:url(#radial-gradient-5);}.cls-107{fill:url(#radial-gradient-6);}.cls-108{fill:url(#radial-gradient-7);}.cls-109{fill:url(#radial-gradient-8);}.cls-110{fill:url(#radial-gradient-9);}.cls-111{fill:url(#radial-gradient-10);}.cls-112{fill:url(#radial-gradient-11);}.cls-113{fill:url(#radial-gradient-12);}.cls-114{fill:url(#radial-gradient-13);}.cls-115{fill:url(#radial-gradient-14);}.cls-116{fill:url(#radial-gradient-15);}.cls-117{fill:url(#radial-gradient-16);}.cls-118{fill:url(#radial-gradient-17);}.cls-119{fill:url(#radial-gradient-18);}.cls-120{fill:url(#radial-gradient-19);}.cls-121{fill:url(#radial-gradient-20);}.cls-122{fill:url(#radial-gradient-21);}.cls-123{fill:url(#radial-gradient-22);}.cls-124{fill:url(#radial-gradient-23);}.cls-125{fill:url(#radial-gradient-24);}.cls-126{fill:url(#radial-gradient-25);}.cls-127{fill:url(#radial-gradient-26);}.cls-128{fill:url(#radial-gradient-27);}.cls-129{fill:url(#radial-gradient-28);}.cls-130{fill:url(#radial-gradient-29);}.cls-131{fill:url(#radial-gradient-30);}.cls-132{fill:url(#radial-gradient-31);}.cls-133{fill:url(#radial-gradient-32);}.cls-134{fill:url(#radial-gradient-33);}.cls-135{fill:url(#radial-gradient-34);}.cls-136{fill:url(#radial-gradient-35);}.cls-137{fill:url(#radial-gradient-36);}.cls-138{fill:url(#radial-gradient-37);}.cls-139{fill:url(#radial-gradient-38);}.cls-140{fill:url(#radial-gradient-39);}.cls-141{fill:url(#radial-gradient-40);}.cls-142{fill:url(#radial-gradient-41);}.cls-143{fill:url(#radial-gradient-42);}.cls-144{fill:url(#radial-gradient-43);}.cls-145{fill:url(#radial-gradient-44);}.cls-146{fill:url(#radial-gradient-45);}.cls-147{fill:url(#radial-gradient-46);}.cls-148{fill:url(#radial-gradient-47);}.cls-149{fill:url(#radial-gradient-48);}.cls-150{fill:url(#radial-gradient-49);}.cls-151{fill:url(#radial-gradient-50);}.cls-152{fill:url(#radial-gradient-51);}.cls-153{fill:url(#radial-gradient-52);}.cls-154{fill:url(#radial-gradient-53);}.cls-155{fill:url(#radial-gradient-54);}.cls-156{fill:url(#radial-gradient-55);}.cls-157{fill:url(#radial-gradient-56);}.cls-158{fill:url(#radial-gradient-57);}.cls-159{fill:url(#radial-gradient-58);}.cls-160{fill:url(#radial-gradient-59);}.cls-161{fill:url(#radial-gradient-60);}.cls-162{fill:url(#radial-gradient-61);}.cls-163{fill:url(#radial-gradient-62);}.cls-164{fill:url(#radial-gradient-63);}.cls-165{fill:url(#radial-gradient-64);}.cls-166{fill:url(#radial-gradient-65);}.cls-167{fill:url(#radial-gradient-66);}.cls-168{fill:url(#radial-gradient-67);}.cls-169{fill:url(#radial-gradient-68);}.cls-170{fill:url(#radial-gradient-69);}.cls-171{fill:url(#radial-gradient-70);}.cls-172{fill:url(#radial-gradient-71);}.cls-173{fill:url(#radial-gradient-72);}.cls-174{fill:url(#radial-gradient-73);}.cls-175{fill:url(#radial-gradient-74);}.cls-176{fill:url(#radial-gradient-75);}.cls-177{fill:url(#radial-gradient-76);}.cls-178{fill:url(#radial-gradient-77);}.cls-179{fill:url(#radial-gradient-78);}.cls-180{fill:url(#radial-gradient-79);}.cls-181{fill:url(#radial-gradient-80);}.cls-182{fill:url(#radial-gradient-81);}.cls-183{fill:url(#radial-gradient-82);}.cls-184{fill:url(#radial-gradient-83);}.cls-185{fill:url(#radial-gradient-84);}.cls-186{fill:url(#radial-gradient-85);}.cls-187{fill:url(#radial-gradient-86);}.cls-188{fill:url(#radial-gradient-87);}.cls-189{fill:url(#radial-gradient-88);}.cls-190{fill:url(#radial-gradient-89);}.cls-191{fill:url(#radial-gradient-90);}.cls-192{fill:url(#radial-gradient-91);}.cls-193{fill:url(#radial-gradient-92);}.cls-194{fill:url(#radial-gradient-93);}.cls-195{fill:url(#radial-gradient-94);}.cls-196{fill:url(#radial-gradient-95);}.cls-197{fill:url(#radial-gradient-96);}.cls-198{fill:url(#radial-gradient-97);}.cls-199{fill:url(#radial-gradient-98);}.cls-200{fill:url(#radial-gradient-99);}.cls-201{fill:url(#radial-gradient-100);}.cls-202{fill:url(#radial-gradient-101);}.cls-203{fill:url(#radial-gradient-102);}.cls-204{fill:url(#radial-gradient-103);}.cls-205{fill:url(#radial-gradient-104);}.cls-206{fill:url(#radial-gradient-105);}.cls-207{fill:url(#radial-gradient-106);}.cls-208{fill:url(#radial-gradient-107);}.cls-209{fill:url(#radial-gradient-108);}.cls-210{fill:url(#radial-gradient-109);}.cls-211{fill:url(#radial-gradient-110);}.cls-212{fill:url(#radial-gradient-111);}.cls-213{fill:url(#radial-gradient-112);}.cls-214{fill:url(#radial-gradient-113);}.cls-215{fill:url(#radial-gradient-114);}.cls-216{fill:url(#radial-gradient-115);}.cls-217{fill:url(#radial-gradient-116);}.cls-218{fill:url(#radial-gradient-117);}.cls-219{fill:url(#radial-gradient-118);}</style><linearGradient id="linear-gradient" x1="546.09" y1="707.68" x2="540.09" y2="182.7" gradientUnits="userSpaceOnUse"><stop offset="0" stop-color="#4791ff"/><stop offset="0.1" stop-color="#3d78dd"/><stop offset="0.26" stop-color="#2e54ac"/><stop offset="0.42" stop-color="#213683"/><stop offset="0.58" stop-color="#181e63"/><stop offset="0.73" stop-color="#110e4c"/><stop offset="0.87" stop-color="#0c033f"/><stop offset="1" stop-color="#0b003a"/></linearGradient><clipPath id="clip-path"><rect class="cls-1" x="168.28" y="212.46" width="750" height="500"/></clipPath><radialGradient id="radial-gradient" cx="634.51" cy="514.29" r="7.11" gradientUnits="userSpaceOnUse"><stop offset="0" stop-color="#fff"/><stop offset="0.08" stop-color="#fbfbfb"/><stop offset="0.16" stop-color="#f0f0f0"/><stop offset="0.24" stop-color="#dcdcdc"/><stop offset="0.32" stop-color="#c1c1c1"/><stop offset="0.39" stop-color="#9e9e9e"/><stop offset="0.47" stop-color="#737373"/><stop offset="0.55" stop-color="#404040"/><stop offset="0.62" stop-color="#070707"/><stop offset="0.63"/></radialGradient><radialGradient id="radial-gradient-2" cx="822.86" cy="532.66" r="7.11" xlink:href="#radial-gradient"/><radialGradient id="radial-gradient-3" cx="596.26" cy="361.1" r="5.72" xlink:href="#radial-gradient"/><radialGradient id="radial-gradient-4" cx="750.14" cy="474.54" r="14.21" gradientTransform="translate(1098.39 -341.93) rotate(80.78)" xlink:href="#radial-gradient"/><radialGradient id="radial-gradient-5" cx="767.21" cy="521.4" r="2.86" xlink:href="#radial-gradient"/><radialGradient id="radial-gradient-6" cx="860.98" cy="445.08" r="2.86" xlink:href="#radial-gradient"/><radialGradient id="radial-gradient-7" cx="718.86" cy="544.01" r="2.86" xlink:href="#radial-gradient"/><radialGradient id="radial-gradient-8" cx="524.32" cy="484.11" r="2.86" xlink:href="#radial-gradient"/><radialGradient id="radial-gradient-9" cx="764.35" cy="422.28" r="2.86" xlink:href="#radial-gradient"/><radialGradient id="radial-gradient-10" cx="590.85" cy="484.11" r="2.86" xlink:href="#radial-gradient"/><radialGradient id="radial-gradient-11" cx="832.83" cy="481.25" r="2.86" xlink:href="#radial-gradient"/><radialGradient id="radial-gradient-12" cx="888.39" cy="573" r="2.86" xlink:href="#radial-gradient"/><radialGradient id="radial-gradient-13" cx="901.03" cy="504.32" r="2.86" xlink:href="#radial-gradient"/><radialGradient id="radial-gradient-14" cx="267.54" cy="442.22" r="2.86" xlink:href="#radial-gradient"/><radialGradient id="radial-gradient-15" cx="489.16" cy="331.84" r="2.86" xlink:href="#radial-gradient"/><radialGradient id="radial-gradient-16" cx="284.46" cy="388.97" r="2.86" xlink:href="#radial-gradient"/><radialGradient id="radial-gradient-17" cx="375.18" cy="355.38" r="2.86" xlink:href="#radial-gradient"/><radialGradient id="radial-gradient-18" cx="409.33" cy="386.11" r="2.86" xlink:href="#radial-gradient"/><radialGradient id="radial-gradient-19" cx="348.27" cy="434.73" r="2.86" xlink:href="#radial-gradient"/><radialGradient id="radial-gradient-20" cx="277.37" cy="511.98" r="2.86" xlink:href="#radial-gradient"/><radialGradient id="radial-gradient-21" cx="294.3" cy="458.74" r="2.86" xlink:href="#radial-gradient"/><radialGradient id="radial-gradient-22" cx="385.02" cy="425.14" r="2.86" xlink:href="#radial-gradient"/><radialGradient id="radial-gradient-23" cx="419.16" cy="455.87" r="2.86" xlink:href="#radial-gradient"/><radialGradient id="radial-gradient-24" cx="358.1" cy="504.5" r="2.86" xlink:href="#radial-gradient"/><radialGradient id="radial-gradient-25" cx="338.43" cy="447.94" r="2.86" xlink:href="#radial-gradient"/><radialGradient id="radial-gradient-26" cx="355.36" cy="394.69" r="2.86" xlink:href="#radial-gradient"/><radialGradient id="radial-gradient-27" cx="446.08" cy="361.1" r="2.86" xlink:href="#radial-gradient"/><radialGradient id="radial-gradient-28" cx="480.23" cy="391.83" r="2.86" xlink:href="#radial-gradient"/><radialGradient id="radial-gradient-29" cx="419.16" cy="440.45" r="2.86" xlink:href="#radial-gradient"/><radialGradient id="radial-gradient-30" cx="230.04" cy="435.25" r="2.86" xlink:href="#radial-gradient"/><radialGradient id="radial-gradient-31" cx="246.96" cy="382" r="2.86" xlink:href="#radial-gradient"/><radialGradient id="radial-gradient-32" cx="337.68" cy="348.41" r="2.86" xlink:href="#radial-gradient"/><radialGradient id="radial-gradient-33" cx="371.83" cy="379.14" r="2.86" xlink:href="#radial-gradient"/><radialGradient id="radial-gradient-34" cx="310.77" cy="427.76" r="2.86" xlink:href="#radial-gradient"/><radialGradient id="radial-gradient-35" cx="541.69" cy="462.84" r="2.86" xlink:href="#radial-gradient"/><radialGradient id="radial-gradient-36" cx="558.62" cy="409.59" r="2.86" xlink:href="#radial-gradient"/><radialGradient id="radial-gradient-37" cx="649.34" cy="376" r="2.86" xlink:href="#radial-gradient"/><radialGradient id="radial-gradient-38" cx="683.48" cy="406.73" r="2.86" xlink:href="#radial-gradient"/><radialGradient id="radial-gradient-39" cx="622.42" cy="455.35" r="2.86" xlink:href="#radial-gradient"/><radialGradient id="radial-gradient-40" cx="591.48" cy="547.74" r="2.86" xlink:href="#radial-gradient"/><radialGradient id="radial-gradient-41" cx="608.41" cy="494.5" r="2.86" xlink:href="#radial-gradient"/><radialGradient id="radial-gradient-42" cx="699.13" cy="460.9" r="2.86" xlink:href="#radial-gradient"/><radialGradient id="radial-gradient-43" cx="733.27" cy="491.63" r="2.86" xlink:href="#radial-gradient"/><radialGradient id="radial-gradient-44" cx="672.21" cy="540.26" r="2.86" xlink:href="#radial-gradient"/><radialGradient id="radial-gradient-45" cx="690.6" cy="485.64" r="2.86" xlink:href="#radial-gradient"/><radialGradient id="radial-gradient-46" cx="707.52" cy="432.39" r="2.86" xlink:href="#radial-gradient"/><radialGradient id="radial-gradient-47" cx="798.24" cy="398.8" r="2.86" xlink:href="#radial-gradient"/><radialGradient id="radial-gradient-48" cx="832.39" cy="429.53" r="2.86" xlink:href="#radial-gradient"/><radialGradient id="radial-gradient-49" cx="771.32" cy="478.15" r="2.86" xlink:href="#radial-gradient"/><radialGradient id="radial-gradient-50" cx="700.43" cy="567.68" r="2.86" xlink:href="#radial-gradient"/><radialGradient id="radial-gradient-51" cx="717.35" cy="514.43" r="2.86" xlink:href="#radial-gradient"/><radialGradient id="radial-gradient-52" cx="808.07" cy="480.84" r="2.86" xlink:href="#radial-gradient"/><radialGradient id="radial-gradient-53" cx="842.22" cy="511.57" r="2.86" xlink:href="#radial-gradient"/><radialGradient id="radial-gradient-54" cx="781.16" cy="560.19" r="2.86" xlink:href="#radial-gradient"/><radialGradient id="radial-gradient-55" cx="439.64" cy="544.88" r="2.86" xlink:href="#radial-gradient"/><radialGradient id="radial-gradient-56" cx="456.57" cy="491.63" r="2.86" xlink:href="#radial-gradient"/><radialGradient id="radial-gradient-57" cx="547.29" cy="458.04" r="2.86" xlink:href="#radial-gradient"/><radialGradient id="radial-gradient-58" cx="581.43" cy="488.77" r="2.86" xlink:href="#radial-gradient"/><radialGradient id="radial-gradient-59" cx="520.37" cy="537.4" r="2.86" xlink:href="#radial-gradient"/><radialGradient id="radial-gradient-60" cx="591.48" cy="425.42" r="2.86" xlink:href="#radial-gradient"/><radialGradient id="radial-gradient-61" cx="608.41" cy="372.17" r="2.86" xlink:href="#radial-gradient"/><radialGradient id="radial-gradient-62" cx="699.13" cy="338.58" r="2.86" xlink:href="#radial-gradient"/><radialGradient id="radial-gradient-63" cx="733.27" cy="369.31" r="2.86" xlink:href="#radial-gradient"/><radialGradient id="radial-gradient-64" cx="672.21" cy="417.93" r="2.86" xlink:href="#radial-gradient"/><radialGradient id="radial-gradient-65" cx="448.87" cy="370.6" r="3.11" xlink:href="#radial-gradient"/><radialGradient id="radial-gradient-66" cx="540.14" cy="403.82" r="1.55" xlink:href="#radial-gradient"/><radialGradient id="radial-gradient-67" cx="477.69" cy="378.69" r="1.55" xlink:href="#radial-gradient"/><radialGradient id="radial-gradient-68" cx="496.23" cy="395.38" r="1.55" xlink:href="#radial-gradient"/><radialGradient id="radial-gradient-69" cx="509.28" cy="409.31" r="1.55" xlink:href="#radial-gradient"/><radialGradient id="radial-gradient-70" cx="446.27" cy="405.53" r="1.55" xlink:href="#radial-gradient"/><radialGradient id="radial-gradient-71" cx="455.46" cy="376.61" r="1.55" xlink:href="#radial-gradient"/><radialGradient id="radial-gradient-72" cx="504.72" cy="358.37" r="1.55" xlink:href="#radial-gradient"/><radialGradient id="radial-gradient-73" cx="523.26" cy="375.06" r="1.55" xlink:href="#radial-gradient"/><radialGradient id="radial-gradient-74" cx="490.11" cy="401.46" r="1.55" xlink:href="#radial-gradient"/><radialGradient id="radial-gradient-75" cx="392.44" cy="337.44" r="3.11" xlink:href="#radial-gradient"/><radialGradient id="radial-gradient-76" cx="483.72" cy="370.66" r="1.55" xlink:href="#radial-gradient"/><radialGradient id="radial-gradient-77" cx="421.26" cy="345.53" r="1.55" xlink:href="#radial-gradient"/><radialGradient id="radial-gradient-78" cx="439.8" cy="362.21" r="1.55" xlink:href="#radial-gradient"/><radialGradient id="radial-gradient-79" cx="452.86" cy="376.15" r="1.55" xlink:href="#radial-gradient"/><radialGradient id="radial-gradient-80" cx="389.85" cy="372.36" r="1.55" xlink:href="#radial-gradient"/><radialGradient id="radial-gradient-81" cx="399.04" cy="343.45" r="1.55" xlink:href="#radial-gradient"/><radialGradient id="radial-gradient-82" cx="448.3" cy="325.21" r="1.55" xlink:href="#radial-gradient"/><radialGradient id="radial-gradient-83" cx="466.84" cy="341.89" r="1.55" xlink:href="#radial-gradient"/><radialGradient id="radial-gradient-84" cx="433.68" cy="368.3" r="1.55" xlink:href="#radial-gradient"/><radialGradient id="radial-gradient-85" cx="240.13" cy="409.04" r="3.11" xlink:href="#radial-gradient"/><radialGradient id="radial-gradient-86" cx="331.4" cy="442.26" r="1.55" xlink:href="#radial-gradient"/><radialGradient id="radial-gradient-87" cx="268.94" cy="417.13" r="1.55" xlink:href="#radial-gradient"/><radialGradient id="radial-gradient-88" cx="287.49" cy="433.82" r="1.55" xlink:href="#radial-gradient"/><radialGradient id="radial-gradient-89" cx="300.54" cy="447.75" r="1.55" xlink:href="#radial-gradient"/><radialGradient id="radial-gradient-90" cx="237.53" cy="443.97" r="1.55" xlink:href="#radial-gradient"/><radialGradient id="radial-gradient-91" cx="246.72" cy="415.05" r="1.55" xlink:href="#radial-gradient"/><radialGradient id="radial-gradient-92" cx="295.98" cy="396.81" r="1.55" xlink:href="#radial-gradient"/><radialGradient id="radial-gradient-93" cx="314.52" cy="413.5" r="1.55" xlink:href="#radial-gradient"/><radialGradient id="radial-gradient-94" cx="281.36" cy="439.9" r="1.55" xlink:href="#radial-gradient"/><radialGradient id="radial-gradient-95" cx="356.41" cy="541.03" r="3.11" xlink:href="#radial-gradient"/><radialGradient id="radial-gradient-96" cx="447.68" cy="574.25" r="1.55" xlink:href="#radial-gradient"/><radialGradient id="radial-gradient-97" cx="385.23" cy="549.12" r="1.55" xlink:href="#radial-gradient"/><radialGradient id="radial-gradient-98" cx="403.77" cy="565.8" r="1.55" xlink:href="#radial-gradient"/><radialGradient id="radial-gradient-99" cx="416.82" cy="579.74" r="1.55" xlink:href="#radial-gradient"/><radialGradient id="radial-gradient-100" cx="353.81" cy="575.95" r="1.55" xlink:href="#radial-gradient"/><radialGradient id="radial-gradient-101" cx="363" cy="547.04" r="1.55" xlink:href="#radial-gradient"/><radialGradient id="radial-gradient-102" cx="412.26" cy="528.8" r="1.55" xlink:href="#radial-gradient"/><radialGradient id="radial-gradient-103" cx="430.8" cy="545.49" r="1.55" xlink:href="#radial-gradient"/><radialGradient id="radial-gradient-104" cx="397.65" cy="571.89" r="1.55" xlink:href="#radial-gradient"/><radialGradient id="radial-gradient-105" cx="524.52" cy="561.01" r="3.11" xlink:href="#radial-gradient"/><radialGradient id="radial-gradient-106" cx="615.79" cy="594.23" r="1.55" xlink:href="#radial-gradient"/><radialGradient id="radial-gradient-107" cx="553.34" cy="569.1" r="1.55" xlink:href="#radial-gradient"/><radialGradient id="radial-gradient-108" cx="571.88" cy="585.79" r="1.55" xlink:href="#radial-gradient"/><radialGradient id="radial-gradient-109" cx="584.93" cy="599.72" r="1.55" xlink:href="#radial-gradient"/><radialGradient id="radial-gradient-110" cx="521.92" cy="595.93" r="1.55" xlink:href="#radial-gradient"/><radialGradient id="radial-gradient-111" cx="531.11" cy="567.02" r="1.55" xlink:href="#radial-gradient"/><radialGradient id="radial-gradient-112" cx="580.37" cy="548.78" r="1.55" xlink:href="#radial-gradient"/><radialGradient id="radial-gradient-113" cx="598.92" cy="565.47" r="1.55" xlink:href="#radial-gradient"/><radialGradient id="radial-gradient-114" cx="565.76" cy="591.87" r="1.55" xlink:href="#radial-gradient"/><radialGradient id="radial-gradient-115" cx="185.54" cy="386.11" r="2.86" xlink:href="#radial-gradient"/><radialGradient id="radial-gradient-116" cx="403.61" cy="460.33" r="2.86" xlink:href="#radial-gradient"/><radialGradient id="radial-gradient-117" cx="444.39" cy="434.73" r="2.86" xlink:href="#radial-gradient"/><radialGradient id="radial-gradient-118" cx="284.46" cy="514.29" r="2.86" xlink:href="#radial-gradient"/></defs><title>Asset 1</title><g class="cls-2"><g id="Layer_2" data-name="Layer 2"><g id="BACKGROUND_2" data-name="BACKGROUND 2"><rect class="cls-3" x="168.28" y="212.46" width="750" height="500"/><g class="cls-4"><g class="cls-5"><path class="cls-6" d="M88.29,264.17C392.84,66.52,528.58,572.4,929.54.5"/><path class="cls-7" d="M90.16,272.61c315.1-209,450.7,297.45,843.32-257.24"/><path class="cls-8" d="M92,281.06C417.69,60.72,553.14,567.72,937.41,30.24"/><path class="cls-9" d="M93.91,289.5C430.11,57.82,565.42,565.38,941.35,45.11"/><path class="cls-10" d="M95.78,298c346.75-243,481.92,265.1,849.5-238"/><path class="cls-11" d="M97.66,306.39C455,52,590,560.71,949.21,74.86"/><path class="cls-12" d="M99.53,314.84C467.38,49.12,602.25,558.37,953.15,89.73"/><path class="cls-13" d="M101.4,323.28C479.8,46.22,614.53,556,957.08,104.6"/><path class="cls-14" d="M103.27,331.73c389-288.42,523.54,222,857.75-212.26"/><path class="cls-15" d="M105.15,340.17C504.65,40.41,639.09,551.35,965,134.34"/><path class="cls-16" d="M107,348.62C517.07,37.51,651.37,549,968.89,149.22"/><path class="cls-17" d="M108.89,357.06c420.6-322.45,554.76,189.61,863.93-193"/><path class="cls-18" d="M110.77,365.51C541.92,31.71,675.93,544.33,976.76,179"/><path class="cls-19" d="M112.64,374C554.34,28.81,688.2,542,980.69,193.83"/><path class="cls-20" d="M114.51,382.4c452.25-356.49,586,157.26,870.11-173.7"/><path class="cls-21" d="M116.39,390.84C579.19,23,712.76,537.32,988.56,223.57"/><path class="cls-22" d="M118.26,399.29C591.61,20.11,725,535,992.49,238.45"/><path class="cls-23" d="M120.13,407.73C604,17.21,737.32,532.64,996.43,253.32"/><path class="cls-24" d="M122,416.18c494.44-401.87,627.59,114.12,878.35-148"/><path class="cls-25" d="M123.88,424.62c505-413.21,638,103.34,880.42-141.56"/><path class="cls-26" d="M125.75,433.07C641.3,8.51,774.16,525.62,1008.23,297.93"/><path class="cls-27" d="M127.63,441.51c526.09-435.9,658.8,81.77,884.53-128.71"/><path class="cls-28" d="M129.5,450c536.65-447.25,669.21,71,886.6-122.28"/><path class="cls-29" d="M131.37,458.4C678.57-.19,811,518.6,1020,342.55"/><path class="cls-30" d="M133.24,466.85C691-3.09,823.27,516.27,1024,357.42"/><path class="cls-31" d="M135.12,475.29C703.42-6,835.55,513.93,1027.9,372.29"/><path class="cls-32" d="M137,483.74c578.85-492.63,710.84,27.85,894.85-96.58"/><path class="cls-33" d="M138.86,492.18c589.4-504,721.25,17.07,896.91-90.15"/><path class="cls-34" d="M140.74,500.63c599.94-515.32,731.65,6.28,899-83.72"/><path class="cls-35" d="M142.61,509.07c610.5-526.66,742.05-4.5,901-77.29"/><path class="cls-36" d="M144.48,517.52c621.05-538,752.46-15.29,903.09-70.87"/><path class="cls-37" d="M146.36,526C778-23.4,909.22,499.89,1051.51,461.52"/><path class="cls-38" d="M.5,321.56c303.77-153,336,723,1005-40.5"/><path class="cls-39" d="M1.27,333.89c313.64-177.23,353.85,702.35,1006.78-36.82"/><path class="cls-40" d="M2,346.22C325.54,144.75,373.75,1028,1010.65,313.08"/><path class="cls-41" d="M2.8,358.55c333.38-225.71,389.59,661.12,1010.45-29.46"/><path class="cls-42" d="M3.57,370.87C346.81,120.93,411,1011.39,1015.85,345.1"/><path class="cls-43" d="M4.33,383.2C357.45,109,429.66,1003.1,1018.45,361.11"/><path class="cls-44" d="M5.1,395.53c363-298.41,443.19,599.29,1016-18.41"/><path class="cls-45" d="M5.86,407.86C378.72,85.21,466.93,986.53,1023.65,393.13"/><path class="cls-46" d="M6.63,420.19C389.35,73.3,485.56,978.25,1026.25,409.14"/><path class="cls-47" d="M7.4,432.52C400,61.39,504.19,970,1028.85,425.15"/><path class="cls-48" d="M8.16,444.85c402.46-395.37,514.67,516.83,1023.29-3.7"/><path class="cls-49" d="M8.93,457.17c412.33-419.59,532.53,496.22,1025.13,0"/><path class="cls-50" d="M9.7,469.5c422.19-443.83,550.4,475.61,1027,3.67"/><path class="cls-51" d="M10.46,481.83c432.07-468.07,568.27,455,1028.8,7.35"/><path class="cls-52" d="M11.23,494.16c441.93-492.31,586.14,434.38,1030.63,11"/><path class="cls-53" d="M12,506.49C463.8-10.06,616,920.25,1044.46,521.2"/><path class="cls-54" d="M12.76,518.82C474.43-22,634.64,912,1047.06,537.21"/><path class="cls-55" d="M13.53,531.15c471.54-565,639.74,372.53,1036.13,22.07"/><path class="cls-56" d="M14.29,543.47c481.41-589.25,657.62,351.93,1038,25.76"/><path class="cls-57" d="M15.06,555.8c491.28-613.49,675.48,331.31,1039.8,29.44"/><path class="cls-58" d="M15.83,568.13C517-69.6,709.18,878.83,1057.46,601.25"/><path class="cls-59" d="M16.59,580.46c511-662,711.22,290.08,1043.47,36.8"/><path class="cls-60" d="M17.36,592.79c520.89-686.21,729.08,269.47,1045.3,40.48"/><path class="cls-61" d="M18.13,605.12c530.75-710.44,747,248.85,1047.13,44.15"/><path class="cls-62" d="M18.89,617.45c540.63-734.68,764.82,228.24,1049,47.83"/><path class="cls-63" d="M19.66,629.77c550.49-758.91,782.69,207.64,1050.8,51.52"/><path class="cls-64" d="M20.42,642.1C580.79-141,821,829.12,1073.06,697.3"/><path class="cls-65" d="M21.19,654.43C591.42-153,839.62,820.84,1075.66,713.31"/><path class="cls-66" d="M22,666.76c580.1-831.63,836.29,145.79,1056.3,62.56"/><path class="cls-67" d="M22.72,679.09c590-855.86,854.17,125.18,1058.14,66.24"/><path class="cls-68" d="M23.49,691.42c599.84-880.1,872,104.56,1060,69.92"/><path class="cls-69" d="M24.26,703.75c609.7-904.34,889.9,84,1061.81,73.6"/><path class="cls-37" d="M977.59,740.33c-329.17,119.49-350.1-156.28-851.51,65.2"/><path class="cls-70" d="M978.76,731.21C639.62,860.68,614.9,574.43,125.13,788.77"/><path class="cls-71" d="M979.92,722.09C630.81,861.55,602.31,564.8,124.18,772"/><path class="cls-72" d="M981.08,713C622,862.42,589.72,555.17,123.23,755.24"/><path class="cls-73" d="M982.25,703.84c-369,159.44-405.12-158.29-860,34.64"/><path class="cls-74" d="M983.41,694.72c-379,169.43-418.87-158.8-862.07,27"/><path class="cls-75" d="M984.57,685.59C595.59,865,552,526.29,120.39,705"/><path class="cls-76" d="M985.73,676.47C586.79,865.88,539.35,516.67,119.44,688.2"/><path class="cls-77" d="M986.9,667.35C578,866.75,526.76,507,118.49,671.44"/><path class="cls-78" d="M988.06,658.22c-418.88,209.39-473.89-160.81-870.52-3.55"/><path class="cls-79" d="M989.22,649.1C560.38,868.48,501.58,487.79,116.6,637.91"/><path class="cls-80" d="M990.39,640C551.57,869.35,489,478.16,115.65,621.15"/><path class="cls-81" d="M991.55,630.86C542.77,870.21,476.4,468.53,114.7,604.39"/><path class="cls-82" d="M992.71,621.73c-458.75,249.35-528.9-162.82-879-34.1"/><path class="cls-83" d="M993.87,612.61C525.16,872,451.22,449.28,112.8,570.87"/><path class="cls-84" d="M995,603.49C516.35,872.81,438.63,439.65,111.85,554.11"/><path class="cls-85" d="M996.2,594.36C507.55,873.68,426,430,110.9,537.34"/><path class="cls-86" d="M997.36,585.24C498.74,874.54,413.44,420.4,110,520.58"/><path class="cls-87" d="M998.53,576.12C489.94,875.41,400.85,410.77,109,503.82"/><path class="cls-88" d="M999.69,567C481.14,876.28,388.26,401.15,108.06,487.06"/><path class="cls-89" d="M1000.85,557.87C472.33,877.14,375.67,391.52,107.11,470.3"/><path class="cls-90" d="M1002,548.75C463.53,878,363.08,381.89,106.16,453.54"/><path class="cls-91" d="M1003.18,539.63c-548.46,339.25-652.69-167.36-898-102.86"/><path class="cls-92" d="M1004.34,530.5C445.92,879.74,337.9,362.64,104.27,420"/><path class="cls-93" d="M1005.5,521.38C437.11,880.61,325.3,353,103.32,403.25"/><path class="cls-94" d="M1006.67,512.26c-578.36,369.21-694-168.87-904.3-125.77"/><path class="cls-95" d="M1007.83,503.13C419.5,882.34,300.12,333.76,101.42,369.73"/><path class="cls-96" d="M1009,494C410.7,883.21,287.53,324.14,100.47,353"/><path class="cls-97" d="M1010.15,484.89C401.89,884.07,274.94,314.51,99.52,336.21"/><path class="cls-98" d="M1011.32,475.77c-618.23,409.17-749-170.89-912.74-156.33"/><path class="cls-99" d="M1012.48,466.64c-628.19,419.17-762.72-171.38-914.85-164"/><path class="cls-100" d="M1013.64,457.52c-638.16,429.15-776.47-171.89-917-171.6"/></g><g class="cls-101"><path class="cls-102" d="M641.61,514.29a7.11,7.11,0,1,1-7.1-7.1A7.1,7.1,0,0,1,641.61,514.29Z"/><path class="cls-103" d="M830,532.66a7.11,7.11,0,1,1-7.11-7.11A7.1,7.1,0,0,1,830,532.66Z"/><path class="cls-104" d="M602,361.1a5.73,5.73,0,1,1-5.73-5.72A5.73,5.73,0,0,1,602,361.1Z"/><circle class="cls-105" cx="750.14" cy="474.54" r="14.21" transform="translate(161.57 1138.98) rotate(-80.78)"/><path class="cls-106" d="M770.08,521.4a2.87,2.87,0,1,1-2.87-2.86A2.86,2.86,0,0,1,770.08,521.4Z"/><path class="cls-107" d="M863.84,445.08a2.86,2.86,0,1,1-2.86-2.86A2.86,2.86,0,0,1,863.84,445.08Z"/><path class="cls-108" d="M721.72,544a2.86,2.86,0,1,1-2.86-2.86A2.86,2.86,0,0,1,721.72,544Z"/><path class="cls-109" d="M527.18,484.11a2.86,2.86,0,1,1-2.86-2.86A2.86,2.86,0,0,1,527.18,484.11Z"/><path class="cls-110" d="M767.21,422.28a2.86,2.86,0,1,1-2.86-2.86A2.86,2.86,0,0,1,767.21,422.28Z"/><path class="cls-111" d="M593.71,484.11a2.86,2.86,0,1,1-2.86-2.86A2.86,2.86,0,0,1,593.71,484.11Z"/><path class="cls-112" d="M835.69,481.25a2.86,2.86,0,1,1-2.86-2.86A2.86,2.86,0,0,1,835.69,481.25Z"/><path class="cls-113" d="M891.25,573a2.87,2.87,0,1,1-2.86-2.86A2.86,2.86,0,0,1,891.25,573Z"/><path class="cls-114" d="M903.89,504.32a2.86,2.86,0,1,1-2.86-2.86A2.87,2.87,0,0,1,903.89,504.32Z"/><path class="cls-115" d="M270.4,442.22a2.86,2.86,0,1,1-2.86-2.86A2.86,2.86,0,0,1,270.4,442.22Z"/><path class="cls-116" d="M492,331.84a2.86,2.86,0,1,1-2.86-2.86A2.86,2.86,0,0,1,492,331.84Z"/><path class="cls-117" d="M287.33,389a2.87,2.87,0,1,1-2.87-2.86A2.87,2.87,0,0,1,287.33,389Z"/><path class="cls-118" d="M378,355.38a2.86,2.86,0,1,1-2.86-2.87A2.86,2.86,0,0,1,378,355.38Z"/><path class="cls-119" d="M412.19,386.11a2.86,2.86,0,1,1-2.86-2.87A2.86,2.86,0,0,1,412.19,386.11Z"/><path class="cls-120" d="M349.35,432.08a2.86,2.86,0,1,1-3.73,1.56A2.86,2.86,0,0,1,349.35,432.08Z"/><path class="cls-121" d="M280.23,512a2.86,2.86,0,1,1-2.86-2.86A2.87,2.87,0,0,1,280.23,512Z"/><path class="cls-122" d="M297.16,458.74a2.87,2.87,0,1,1-2.86-2.87A2.86,2.86,0,0,1,297.16,458.74Z"/><path class="cls-123" d="M387.88,425.14a2.87,2.87,0,1,1-2.86-2.86A2.86,2.86,0,0,1,387.88,425.14Z"/><path class="cls-124" d="M422,455.87a2.86,2.86,0,1,1-2.86-2.86A2.87,2.87,0,0,1,422,455.87Z"/><path class="cls-125" d="M359.19,501.85a2.86,2.86,0,1,1-3.74,1.56A2.85,2.85,0,0,1,359.19,501.85Z"/><path class="cls-126" d="M341.3,447.94a2.87,2.87,0,1,1-2.87-2.86A2.86,2.86,0,0,1,341.3,447.94Z"/><path class="cls-127" d="M358.22,394.69a2.86,2.86,0,1,1-2.86-2.86A2.86,2.86,0,0,1,358.22,394.69Z"/><path class="cls-128" d="M448.94,361.1a2.86,2.86,0,1,1-2.86-2.86A2.86,2.86,0,0,1,448.94,361.1Z"/><path class="cls-129" d="M483.09,391.83a2.87,2.87,0,1,1-2.86-2.86A2.86,2.86,0,0,1,483.09,391.83Z"/><path class="cls-130" d="M420.25,437.8a2.87,2.87,0,1,1-3.73,1.56A2.87,2.87,0,0,1,420.25,437.8Z"/><path class="cls-131" d="M232.9,435.25a2.86,2.86,0,1,1-2.86-2.86A2.86,2.86,0,0,1,232.9,435.25Z"/><path class="cls-132" d="M249.82,382a2.86,2.86,0,1,1-2.86-2.86A2.86,2.86,0,0,1,249.82,382Z"/><path class="cls-133" d="M340.54,348.41a2.86,2.86,0,1,1-2.86-2.86A2.86,2.86,0,0,1,340.54,348.41Z"/><path class="cls-134" d="M374.69,379.14a2.86,2.86,0,1,1-2.86-2.86A2.86,2.86,0,0,1,374.69,379.14Z"/><path class="cls-135" d="M311.85,425.11a2.86,2.86,0,1,1-3.73,1.56A2.87,2.87,0,0,1,311.85,425.11Z"/><path class="cls-136" d="M544.55,462.84a2.86,2.86,0,1,1-2.86-2.86A2.86,2.86,0,0,1,544.55,462.84Z"/><path class="cls-137" d="M561.48,409.59a2.86,2.86,0,1,1-2.86-2.86A2.86,2.86,0,0,1,561.48,409.59Z"/><path class="cls-138" d="M652.2,376a2.86,2.86,0,1,1-2.86-2.86A2.86,2.86,0,0,1,652.2,376Z"/><path class="cls-139" d="M686.34,406.73a2.86,2.86,0,1,1-2.86-2.86A2.86,2.86,0,0,1,686.34,406.73Z"/><path class="cls-140" d="M623.51,452.71a2.86,2.86,0,1,1-3.74,1.55A2.86,2.86,0,0,1,623.51,452.71Z"/><path class="cls-141" d="M594.34,547.74a2.86,2.86,0,1,1-2.86-2.86A2.87,2.87,0,0,1,594.34,547.74Z"/><path class="cls-142" d="M611.27,494.5a2.86,2.86,0,1,1-2.86-2.87A2.86,2.86,0,0,1,611.27,494.5Z"/><path class="cls-143" d="M702,460.9a2.86,2.86,0,1,1-2.86-2.86A2.86,2.86,0,0,1,702,460.9Z"/><path class="cls-144" d="M736.13,491.63a2.86,2.86,0,1,1-2.86-2.86A2.87,2.87,0,0,1,736.13,491.63Z"/><path class="cls-145" d="M673.3,537.61a2.86,2.86,0,1,1-3.74,1.56A2.86,2.86,0,0,1,673.3,537.61Z"/><path class="cls-146" d="M693.46,485.64a2.86,2.86,0,1,1-2.86-2.86A2.86,2.86,0,0,1,693.46,485.64Z"/><path class="cls-147" d="M710.38,432.39a2.86,2.86,0,1,1-2.86-2.86A2.86,2.86,0,0,1,710.38,432.39Z"/><path class="cls-148" d="M801.1,398.8a2.86,2.86,0,1,1-2.86-2.87A2.86,2.86,0,0,1,801.1,398.8Z"/><path class="cls-149" d="M835.25,429.53a2.86,2.86,0,1,1-2.86-2.86A2.86,2.86,0,0,1,835.25,429.53Z"/><path class="cls-150" d="M772.41,475.5a2.86,2.86,0,1,1-3.73,1.56A2.87,2.87,0,0,1,772.41,475.5Z"/><path class="cls-151" d="M703.29,567.68a2.86,2.86,0,1,1-2.86-2.86A2.86,2.86,0,0,1,703.29,567.68Z"/><path class="cls-152" d="M720.21,514.43a2.86,2.86,0,1,1-2.86-2.86A2.86,2.86,0,0,1,720.21,514.43Z"/><path class="cls-153" d="M810.93,480.84a2.86,2.86,0,1,1-2.86-2.86A2.86,2.86,0,0,1,810.93,480.84Z"/><path class="cls-154" d="M845.08,511.57a2.86,2.86,0,1,1-2.86-2.86A2.86,2.86,0,0,1,845.08,511.57Z"/><path class="cls-155" d="M782.24,557.54a2.86,2.86,0,1,1-3.73,1.56A2.87,2.87,0,0,1,782.24,557.54Z"/><path class="cls-156" d="M442.5,544.88a2.86,2.86,0,1,1-2.86-2.86A2.86,2.86,0,0,1,442.5,544.88Z"/><path class="cls-157" d="M459.43,491.63a2.86,2.86,0,1,1-2.86-2.86A2.87,2.87,0,0,1,459.43,491.63Z"/><path class="cls-158" d="M550.15,458a2.86,2.86,0,1,1-2.86-2.86A2.86,2.86,0,0,1,550.15,458Z"/><path class="cls-159" d="M584.29,488.77a2.86,2.86,0,1,1-2.86-2.86A2.86,2.86,0,0,1,584.29,488.77Z"/><path class="cls-160" d="M521.46,534.75a2.86,2.86,0,1,1-3.74,1.56A2.86,2.86,0,0,1,521.46,534.75Z"/><path class="cls-161" d="M594.34,425.42a2.86,2.86,0,1,1-2.86-2.86A2.86,2.86,0,0,1,594.34,425.42Z"/><path class="cls-162" d="M611.27,372.17a2.86,2.86,0,1,1-2.86-2.86A2.86,2.86,0,0,1,611.27,372.17Z"/><path class="cls-163" d="M702,338.58a2.86,2.86,0,1,1-2.86-2.86A2.86,2.86,0,0,1,702,338.58Z"/><circle class="cls-164" cx="733.27" cy="369.31" r="2.86"/><path class="cls-165" d="M673.3,415.29a2.86,2.86,0,1,1-3.74,1.55A2.86,2.86,0,0,1,673.3,415.29Z"/><path class="cls-166" d="M452,370.6a3.11,3.11,0,1,1-3.1-3.11A3.11,3.11,0,0,1,452,370.6Z"/><path class="cls-167" d="M541.69,403.82a1.55,1.55,0,1,1-1.55-1.55A1.55,1.55,0,0,1,541.69,403.82Z"/><path class="cls-168" d="M479.24,378.69a1.56,1.56,0,1,1-1.55-1.55A1.55,1.55,0,0,1,479.24,378.69Z"/><path class="cls-169" d="M497.78,395.38a1.56,1.56,0,1,1-1.55-1.56A1.55,1.55,0,0,1,497.78,395.38Z"/><path class="cls-170" d="M510.83,409.31a1.55,1.55,0,1,1-1.55-1.55A1.54,1.54,0,0,1,510.83,409.31Z"/><path class="cls-171" d="M447.82,405.53a1.55,1.55,0,1,1-1.55-1.56A1.55,1.55,0,0,1,447.82,405.53Z"/><path class="cls-172" d="M457,376.61a1.55,1.55,0,1,1-1.55-1.55A1.55,1.55,0,0,1,457,376.61Z"/><path class="cls-173" d="M506.27,358.37a1.55,1.55,0,1,1-1.55-1.55A1.54,1.54,0,0,1,506.27,358.37Z"/><path class="cls-174" d="M524.82,375.06a1.56,1.56,0,1,1-1.56-1.56A1.55,1.55,0,0,1,524.82,375.06Z"/><path class="cls-175" d="M490.7,400a1.56,1.56,0,1,1-2,.85A1.56,1.56,0,0,1,490.7,400Z"/><path class="cls-176" d="M395.55,337.44a3.11,3.11,0,1,1-3.11-3.11A3.1,3.1,0,0,1,395.55,337.44Z"/><path class="cls-177" d="M485.27,370.66a1.56,1.56,0,1,1-1.55-1.55A1.55,1.55,0,0,1,485.27,370.66Z"/><path class="cls-178" d="M422.82,345.53a1.56,1.56,0,1,1-1.56-1.56A1.55,1.55,0,0,1,422.82,345.53Z"/><path class="cls-179" d="M441.36,362.21a1.56,1.56,0,1,1-1.56-1.55A1.56,1.56,0,0,1,441.36,362.21Z"/><path class="cls-180" d="M454.41,376.15a1.56,1.56,0,1,1-1.55-1.56A1.56,1.56,0,0,1,454.41,376.15Z"/><circle class="cls-181" cx="389.85" cy="372.36" r="1.55"/><path class="cls-182" d="M400.59,343.45a1.56,1.56,0,0,1-3.11,0,1.56,1.56,0,1,1,3.11,0Z"/><circle class="cls-183" cx="448.3" cy="325.21" r="1.55"/><path class="cls-184" d="M468.39,341.89a1.55,1.55,0,1,1-1.55-1.55A1.55,1.55,0,0,1,468.39,341.89Z"/><path class="cls-185" d="M434.27,366.86a1.55,1.55,0,1,1-2,.85A1.55,1.55,0,0,1,434.27,366.86Z"/><path class="cls-186" d="M243.23,409a3.11,3.11,0,1,1-3.1-3.11A3.1,3.1,0,0,1,243.23,409Z"/><path class="cls-187" d="M333,442.26a1.55,1.55,0,1,1-1.55-1.55A1.55,1.55,0,0,1,333,442.26Z"/><path class="cls-188" d="M270.5,417.13a1.56,1.56,0,1,1-1.56-1.55A1.56,1.56,0,0,1,270.5,417.13Z"/><path class="cls-189" d="M289,433.82a1.56,1.56,0,1,1-1.55-1.55A1.55,1.55,0,0,1,289,433.82Z"/><path class="cls-190" d="M302.09,447.75a1.55,1.55,0,1,1-1.55-1.55A1.54,1.54,0,0,1,302.09,447.75Z"/><path class="cls-191" d="M239.08,444a1.55,1.55,0,1,1-1.55-1.56A1.54,1.54,0,0,1,239.08,444Z"/><path class="cls-192" d="M248.27,415.05a1.55,1.55,0,1,1-1.55-1.55A1.55,1.55,0,0,1,248.27,415.05Z"/><circle class="cls-193" cx="295.98" cy="396.81" r="1.55"/><path class="cls-194" d="M316.08,413.5a1.56,1.56,0,1,1-1.56-1.55A1.55,1.55,0,0,1,316.08,413.5Z"/><path class="cls-195" d="M282,438.46a1.56,1.56,0,1,1-2,.85A1.56,1.56,0,0,1,282,438.46Z"/><path class="cls-196" d="M359.51,541a3.11,3.11,0,1,1-3.1-3.11A3.1,3.1,0,0,1,359.51,541Z"/><path class="cls-197" d="M449.23,574.25a1.55,1.55,0,1,1-1.55-1.55A1.54,1.54,0,0,1,449.23,574.25Z"/><path class="cls-198" d="M386.78,549.12a1.56,1.56,0,1,1-1.55-1.56A1.55,1.55,0,0,1,386.78,549.12Z"/><path class="cls-199" d="M405.32,565.8a1.56,1.56,0,1,1-1.55-1.55A1.55,1.55,0,0,1,405.32,565.8Z"/><path class="cls-200" d="M418.37,579.74a1.55,1.55,0,1,1-1.55-1.56A1.55,1.55,0,0,1,418.37,579.74Z"/><circle class="cls-201" cx="353.81" cy="575.95" r="1.55"/><path class="cls-202" d="M364.56,547a1.56,1.56,0,1,1-1.56-1.55A1.55,1.55,0,0,1,364.56,547Z"/><path class="cls-203" d="M413.82,528.8a1.56,1.56,0,1,1-1.56-1.56A1.55,1.55,0,0,1,413.82,528.8Z"/><path class="cls-204" d="M432.36,545.49a1.56,1.56,0,1,1-1.56-1.56A1.56,1.56,0,0,1,432.36,545.49Z"/><path class="cls-205" d="M398.24,570.45a1.55,1.55,0,1,1-2,.85A1.55,1.55,0,0,1,398.24,570.45Z"/><path class="cls-206" d="M527.63,561a3.11,3.11,0,1,1-3.11-3.11A3.11,3.11,0,0,1,527.63,561Z"/><path class="cls-207" d="M617.35,594.23a1.56,1.56,0,1,1-1.56-1.55A1.55,1.55,0,0,1,617.35,594.23Z"/><path class="cls-208" d="M554.89,569.1a1.56,1.56,0,1,1-1.55-1.55A1.54,1.54,0,0,1,554.89,569.1Z"/><path class="cls-209" d="M573.43,585.79a1.55,1.55,0,1,1-1.55-1.56A1.55,1.55,0,0,1,573.43,585.79Z"/><path class="cls-210" d="M586.49,599.72a1.56,1.56,0,1,1-1.56-1.56A1.55,1.55,0,0,1,586.49,599.72Z"/><path class="cls-211" d="M523.48,595.93a1.56,1.56,0,1,1-1.56-1.55A1.56,1.56,0,0,1,523.48,595.93Z"/><path class="cls-212" d="M532.67,567a1.56,1.56,0,1,1-1.56-1.55A1.55,1.55,0,0,1,532.67,567Z"/><path class="cls-213" d="M581.93,548.78a1.56,1.56,0,1,1-1.56-1.55A1.55,1.55,0,0,1,581.93,548.78Z"/><path class="cls-214" d="M600.47,565.47a1.56,1.56,0,1,1-1.55-1.56A1.56,1.56,0,0,1,600.47,565.47Z"/><path class="cls-215" d="M566.35,590.43a1.56,1.56,0,1,1-2,.85A1.56,1.56,0,0,1,566.35,590.43Z"/><path class="cls-216" d="M188.4,386.11a2.86,2.86,0,1,1-2.86-2.87A2.86,2.86,0,0,1,188.4,386.11Z"/><path class="cls-217" d="M406.47,460.33a2.86,2.86,0,1,1-2.86-2.86A2.86,2.86,0,0,1,406.47,460.33Z"/><path class="cls-218" d="M447.25,434.73a2.86,2.86,0,1,1-2.86-2.86A2.86,2.86,0,0,1,447.25,434.73Z"/><path class="cls-219" d="M287.33,514.29a2.87,2.87,0,1,1-2.87-2.86A2.87,2.87,0,0,1,287.33,514.29Z"/></g></g></g></g></g></svg>