<svg xmlns="http://www.w3.org/2000/svg" xmlns:xlink="http://www.w3.org/1999/xlink" viewBox="0 0 312.54 303.43"><defs><style>.cls-1{fill:none;}.cls-2{fill:#001639;}.cls-3{clip-path:url(#clip-path);}.cls-4{fill:#ff2f56;}</style><clipPath id="clip-path"><rect class="cls-1" x="14.41" y="8.59" width="288" height="288"/></clipPath></defs><title>Asset 1</title><g id="Layer_2" data-name="Layer 2"><g id="Layer_1-2" data-name="Layer 1"><rect class="cls-2" x="14.41" y="8.59" width="288" height="288"/><g class="cls-3"><path class="cls-4" d="M107.71,191.83s0,0,0,0a0,0,0,0,0,0,0s0,0,0,0Z"/><path class="cls-4" d="M115.28,190.1a0,0,0,0,0,0,0s0,0,0,0a0,0,0,0,0,0,0S115.29,190.1,115.28,190.1Z"/><path class="cls-4" d="M121.35,194.94a0,0,0,0,0,0,0s0,0,0,0l0,0S121.36,194.94,121.35,194.94Z"/><path class="cls-4" d="M121.35,202.71s0,0,0,0a0,0,0,0,0,0,0s0,0,0,0Z"/><circle class="cls-4" cx="102.13" cy="184.86" r="0.02"/><circle class="cls-4" cx="109.3" cy="181.4" r="0.02"/><path class="cls-4" d="M117.27,181.35a.05.05,0,0,0,0,.05,0,0,0,0,0,0,0,.05.05,0,0,0,0,0A.06.06,0,0,0,117.27,181.35Z"/><path class="cls-4" d="M124.44,184.81a0,0,0,1,0,0,.1.05.05,0,1,0,0-.1Z"/><path class="cls-4" d="M129.41,191a0,0,0,0,0,0,.05.05.05,0,0,0,.1,0A0,0,0,0,0,129.41,191Z"/><circle class="cls-4" cx="131.18" cy="198.85" r="0.05"/><path class="cls-4" d="M129.41,206.59a0,0,0,0,0,0,0l0,0,0,0S129.42,206.59,129.41,206.59Z"/><circle class="cls-4" cx="96.55" cy="177.86" r="0.02"/><circle class="cls-4" cx="103.48" cy="173.86" r="0.02"/><path class="cls-4" d="M111.28,172a0,0,0,1,0,0,.05A0,0,0,0,0,111.28,172Z"/><path class="cls-4" d="M119.26,172.6a.09.09,0,0,0-.08.08.08.08,0,0,0,.08.07.07.07,0,0,0,.07-.07A.08.08,0,0,0,119.26,172.6Z"/><path class="cls-4" d="M126.71,175.53a.08.08,0,0,0-.08.07.09.09,0,0,0,.08.08.08.08,0,0,0,.07-.08A.07.07,0,0,0,126.71,175.53Z"/><path class="cls-4" d="M133,180.49a.11.11,0,0,0-.1.1.1.1,0,0,0,.1.1.09.09,0,0,0,.1-.1A.1.1,0,0,0,133,180.49Z"/><circle class="cls-4" cx="137.47" cy="187.2" r="0.07"/><path class="cls-4" d="M139.83,194.78a.07.07,0,1,0,.07.07A.07.07,0,0,0,139.83,194.78Z"/><path class="cls-4" d="M139.83,202.8a0,0,0,0,0,0,.1,0,0,0,0,0,0-.1A0,0,0,0,0,139.83,202.8Z"/><path class="cls-4" d="M137.47,210.47s0,0,0,0l0,0s0,0,0,0A0,0,0,0,0,137.47,210.47Z"/><circle class="cls-4" cx="132.96" cy="217.11" r="0.02"/><path class="cls-4" d="M91,170.84a0,0,0,0,0,0,0s0,0,0,0l0,0S91,170.84,91,170.84Z"/><circle class="cls-4" cx="97.75" cy="166.6" r="0.02"/><path class="cls-4" d="M105.32,163.91a0,0,0,0,0,0,0,.05.05,0,1,0,.1,0A0,0,0,0,0,105.32,163.91Z"/><path class="cls-4" d="M113.29,163a.08.08,0,0,0-.08.08.07.07,0,0,0,.08.07.07.07,0,0,0,.07-.07A.08.08,0,0,0,113.29,163Z"/><path class="cls-4" d="M121.25,163.86a.1.1,0,0,0-.1.09.1.1,0,1,0,.2,0A.1.1,0,0,0,121.25,163.86Z"/><path class="cls-4" d="M128.82,166.48a.12.12,0,0,0-.13.12.13.13,0,0,0,.13.13.13.13,0,0,0,.12-.13A.12.12,0,0,0,128.82,166.48Z"/><path class="cls-4" d="M135.6,170.74a.12.12,0,0,0-.12.13.12.12,0,0,0,.12.12.13.13,0,0,0,.13-.12A.13.13,0,0,0,135.6,170.74Z"/><path class="cls-4" d="M141.27,176.41a.12.12,0,0,0-.12.12.12.12,0,1,0,.24,0A.12.12,0,0,0,141.27,176.41Z"/><path class="cls-4" d="M145.53,183.2a.12.12,0,0,0,0,.24.12.12,0,1,0,0-.24Z"/><path class="cls-4" d="M148.18,190.79a.1.1,0,0,0-.1.1.11.11,0,0,0,.1.1.1.1,0,0,0,.1-.1A.09.09,0,0,0,148.18,190.79Z"/><path class="cls-4" d="M149.08,198.78a.08.08,0,0,0-.08.07.09.09,0,0,0,.08.08.08.08,0,0,0,.07-.08A.07.07,0,0,0,149.08,198.78Z"/><path class="cls-4" d="M148.18,206.77a0,0,0,0,0-.05,0,.05.05,0,0,0,.1,0A0,0,0,0,0,148.18,206.77Z"/><circle class="cls-4" cx="145.53" cy="214.38" r="0.02"/><path class="cls-4" d="M141.27,221.14a0,0,0,0,0,0,0s0,0,0,0a0,0,0,0,0,0,0S141.28,221.14,141.27,221.14Z"/><circle class="cls-4" cx="85.39" cy="163.87" r="0.02"/><circle class="cls-4" cx="92.08" cy="159.45" r="0.05"/><path class="cls-4" d="M99.46,156.25a.05.05,0,1,0,.05.05A0,0,0,0,0,99.46,156.25Z"/><path class="cls-4" d="M107.28,154.41a.1.1,0,0,0-.1.1.09.09,0,0,0,.1.1.1.1,0,0,0,.1-.1A.11.11,0,0,0,107.28,154.41Z"/><path class="cls-4" d="M115.29,154a.12.12,0,0,0-.12.12.12.12,0,0,0,.12.13.13.13,0,0,0,.13-.13A.13.13,0,0,0,115.29,154Z"/><path class="cls-4" d="M123.24,155.08a.15.15,0,1,0,.15.15A.15.15,0,0,0,123.24,155.08Z"/><circle class="cls-4" cx="130.87" cy="157.71" r="0.17"/><path class="cls-4" d="M137.93,161.34a.17.17,0,0,0,0,.34.17.17,0,1,0,0-.34Z"/><path class="cls-4" d="M144.2,166.31a.2.2,0,0,0,0,.4.2.2,0,1,0,0-.4Z"/><path class="cls-4" d="M149.48,172.35a.2.2,0,1,0,.2.2A.2.2,0,0,0,149.48,172.35Z"/><circle class="cls-4" cx="153.6" cy="179.44" r="0.17"/><path class="cls-4" d="M156.41,186.8a.15.15,0,0,0,0,.3.15.15,0,1,0,0-.3Z"/><path class="cls-4" d="M157.85,194.72a.12.12,0,1,0,0,.24.12.12,0,0,0,0-.24Z"/><path class="cls-4" d="M157.85,202.76a.1.1,0,0,0-.1.1.09.09,0,0,0,.1.1.1.1,0,0,0,.1-.1A.11.11,0,0,0,157.85,202.76Z"/><path class="cls-4" d="M156.41,210.68a.07.07,0,0,0-.07.07.08.08,0,0,0,.07.08.08.08,0,0,0,.08-.08A.07.07,0,0,0,156.41,210.68Z"/><path class="cls-4" d="M153.6,218.21a.05.05,0,0,0,0,0,0,0,0,0,0,0,.05.05.05,0,0,0,.05-.05A.06.06,0,0,0,153.6,218.21Z"/><path class="cls-4" d="M149.48,225.12s0,0,0,0l0,0s0,0,0,0A0,0,0,0,0,149.48,225.12Z"/><path class="cls-4" d="M79.81,156.85l0,0a0,0,0,0,0,0,0s0,0,0,0Z"/><path class="cls-4" d="M86.44,152.3a.05.05,0,0,0,0,0,.05.05,0,1,0,.1,0A.05.05,0,0,0,86.44,152.3Z"/><path class="cls-4" d="M93.67,148.8a.07.07,0,0,0-.07.07.07.07,0,1,0,.14,0A.07.07,0,0,0,93.67,148.8Z"/><path class="cls-4" d="M101.34,146.41a.09.09,0,0,0-.1.1.1.1,0,0,0,.1.1.11.11,0,0,0,.1-.1A.1.1,0,0,0,101.34,146.41Z"/><path class="cls-4" d="M109.27,145.19a.12.12,0,1,0,0,.24.12.12,0,1,0,0-.24Z"/><circle class="cls-4" cx="117.3" cy="145.31" r="0.17"/><path class="cls-4" d="M125.23,146.31a.2.2,0,1,0,.2.2A.2.2,0,0,0,125.23,146.31Z"/><path class="cls-4" d="M132.9,148.65a.22.22,0,0,0-.22.22.22.22,0,1,0,.44,0A.22.22,0,0,0,132.9,148.65Z"/><path class="cls-4" d="M140.13,152.11a.25.25,0,1,0,.25.24A.25.25,0,0,0,140.13,152.11Z"/><path class="cls-4" d="M146.76,156.63a.25.25,0,1,0,.25.24A.25.25,0,0,0,146.76,156.63Z"/><path class="cls-4" d="M152.64,162.08a.26.26,0,0,0-.25.25.25.25,0,0,0,.25.25.25.25,0,0,0,.25-.25A.25.25,0,0,0,152.64,162.08Z"/><path class="cls-4" d="M157.65,168.36a.25.25,0,1,0,0,.49.25.25,0,0,0,0-.49Z"/><path class="cls-4" d="M161.66,175.33a.22.22,0,0,0-.22.23.22.22,0,1,0,.44,0A.22.22,0,0,0,161.66,175.33Z"/><circle class="cls-4" cx="164.59" cy="183.03" r="0.2"/><path class="cls-4" d="M166.38,190.68a.17.17,0,0,0-.18.17.18.18,0,0,0,.18.17.18.18,0,0,0,.17-.17A.17.17,0,0,0,166.38,190.68Z"/><path class="cls-4" d="M167,198.7a.15.15,0,1,0,0,.3.15.15,0,0,0,0-.3Z"/><circle class="cls-4" cx="166.38" cy="206.85" r="0.12"/><path class="cls-4" d="M164.59,214.6a.08.08,0,0,0-.07.08.07.07,0,0,0,.14,0A.08.08,0,0,0,164.59,214.6Z"/><path class="cls-4" d="M161.66,222.1a0,0,0,0,0,0,.05,0,0,0,0,0,.1,0A0,0,0,0,0,161.66,222.1Z"/><circle class="cls-4" cx="157.65" cy="229.1" r="0.02"/><circle class="cls-4" cx="152.64" cy="235.37" r="0.02"/><path class="cls-4" d="M74.23,149.85s0,0,0,0a0,0,0,0,0,0,0l0,0A0,0,0,0,0,74.23,149.85Z"/><path class="cls-4" d="M80.81,145.24a.05.05,0,0,0,0,0,.06.06,0,0,0,0,.05.05.05,0,0,0,0-.05A0,0,0,0,0,80.81,145.24Z"/><path class="cls-4" d="M87.93,141.5a.07.07,0,0,0-.07.07.07.07,0,1,0,.14,0A.07.07,0,0,0,87.93,141.5Z"/><path class="cls-4" d="M95.46,138.7a.11.11,0,0,0-.1.1.1.1,0,0,0,.1.1.09.09,0,0,0,.1-.1A.1.1,0,0,0,95.46,138.7Z"/><path class="cls-4" d="M103.29,136.87a.15.15,0,0,0-.15.15.15.15,0,0,0,.3,0A.15.15,0,0,0,103.29,136.87Z"/><circle class="cls-4" cx="111.28" cy="136.24" r="0.17"/><circle class="cls-4" cx="119.3" cy="136.5" r="0.22"/><path class="cls-4" d="M127.22,137.53a.25.25,0,0,0-.24.25.25.25,0,1,0,.49,0A.25.25,0,0,0,127.22,137.53Z"/><path class="cls-4" d="M134.92,139.79a.28.28,0,0,0-.27.28.27.27,0,1,0,.54,0A.28.28,0,0,0,134.92,139.79Z"/><path class="cls-4" d="M142.26,143a.3.3,0,1,0,0,.59.3.3,0,1,0,0-.59Z"/><circle class="cls-4" cx="149.12" cy="147.48" r="0.32"/><circle class="cls-4" cx="155.4" cy="152.48" r="0.32"/><path class="cls-4" d="M161,157.92a.33.33,0,1,0,.32.33A.32.32,0,0,0,161,157.92Z"/><path class="cls-4" d="M165.78,164.36a.32.32,0,1,0,.32.32A.32.32,0,0,0,165.78,164.36Z"/><path class="cls-4" d="M169.72,171.38a.3.3,0,1,0,0,.59.3.3,0,1,0,0-.59Z"/><path class="cls-4" d="M172.73,178.84a.27.27,0,0,0-.27.27.28.28,0,0,0,.27.28.29.29,0,0,0,.28-.28A.28.28,0,0,0,172.73,178.84Z"/><path class="cls-4" d="M174.77,186.63a.25.25,0,0,0-.25.25.25.25,0,0,0,.5,0A.25.25,0,0,0,174.77,186.63Z"/><circle class="cls-4" cx="175.8" cy="194.84" r="0.2"/><circle class="cls-4" cx="175.8" cy="202.86" r="0.17"/><path class="cls-4" d="M174.77,210.7a.13.13,0,0,0-.13.12.13.13,0,0,0,.13.13.12.12,0,0,0,.12-.13A.12.12,0,0,0,174.77,210.7Z"/><path class="cls-4" d="M172.73,218.49a.1.1,0,0,0-.1.1.11.11,0,0,0,.1.1.1.1,0,0,0,.1-.1A.09.09,0,0,0,172.73,218.49Z"/><circle class="cls-4" cx="169.72" cy="226.03" r="0.05"/><circle class="cls-4" cx="165.78" cy="233.02" r="0.05"/><path class="cls-4" d="M161,239.43s0,0,0,0l0,0,0,0A0,0,0,0,0,161,239.43Z"/><circle class="cls-4" cx="68.65" cy="142.88" r="0.02"/><path class="cls-4" d="M75.2,138.19a0,0,0,0,0,0,.05,0,0,0,0,0,.1,0A0,0,0,0,0,75.2,138.19Z"/><path class="cls-4" d="M82.22,134.28a.07.07,0,0,0-.07.07.08.08,0,0,0,.07.08.08.08,0,0,0,.08-.08A.07.07,0,0,0,82.22,134.28Z"/><circle class="cls-4" cx="89.64" cy="131.28" r="0.12"/><circle class="cls-4" cx="97.36" cy="129.06" r="0.15"/><circle class="cls-4" cx="105.27" cy="127.71" r="0.2"/><path class="cls-4" d="M113.29,127a.23.23,0,1,0,.22.22A.22.22,0,0,0,113.29,127Z"/><path class="cls-4" d="M121.3,127.44a.27.27,0,0,0-.27.27.27.27,0,1,0,.54,0A.27.27,0,0,0,121.3,127.44Z"/><path class="cls-4" d="M129.21,128.76a.29.29,0,0,0-.29.3.3.3,0,1,0,.59,0A.29.29,0,0,0,129.21,128.76Z"/><path class="cls-4" d="M136.93,130.93a.35.35,0,1,0,.35.35A.35.35,0,0,0,136.93,130.93Z"/><path class="cls-4" d="M144.35,134a.38.38,0,1,0,.37.37A.38.38,0,0,0,144.35,134Z"/><circle class="cls-4" cx="151.37" cy="138.24" r="0.37"/><circle class="cls-4" cx="157.92" cy="142.88" r="0.4"/><path class="cls-4" d="M163.9,147.83a.4.4,0,1,0,.4.4A.4.4,0,0,0,163.9,147.83Z"/><path class="cls-4" d="M169.25,153.82a.39.39,0,0,0-.39.4.38.38,0,0,0,.39.39.39.39,0,0,0,.4-.39A.4.4,0,0,0,169.25,153.82Z"/><circle class="cls-4" cx="173.9" cy="160.76" r="0.37"/><circle class="cls-4" cx="177.78" cy="167.79" r="0.37"/><path class="cls-4" d="M180.85,174.86a.35.35,0,0,0-.34.35.35.35,0,0,0,.69,0A.35.35,0,0,0,180.85,174.86Z"/><path class="cls-4" d="M183.08,182.62a.3.3,0,0,0-.3.3.29.29,0,0,0,.3.3.3.3,0,0,0,.3-.3A.31.31,0,0,0,183.08,182.62Z"/><path class="cls-4" d="M184.42,190.56a.28.28,0,0,0,0,.55.28.28,0,1,0,0-.55Z"/><path class="cls-4" d="M184.87,198.63a.22.22,0,1,0,0,.44.22.22,0,1,0,0-.44Z"/><path class="cls-4" d="M184.42,206.67a.2.2,0,0,0-.2.2.2.2,0,0,0,.4,0A.2.2,0,0,0,184.42,206.67Z"/><circle class="cls-4" cx="183.08" cy="214.78" r="0.15"/><path class="cls-4" d="M180.85,222.37a.13.13,0,0,0-.12.12.13.13,0,0,0,.12.13.13.13,0,0,0,.13-.13A.13.13,0,0,0,180.85,222.37Z"/><path class="cls-4" d="M177.78,229.84a.07.07,0,0,0-.07.07.08.08,0,0,0,.07.08.09.09,0,0,0,.08-.08A.08.08,0,0,0,177.78,229.84Z"/><path class="cls-4" d="M173.9,236.89a0,0,0,0,0-.05.05.05.05,0,1,0,.1,0A0,0,0,0,0,173.9,236.89Z"/><circle class="cls-4" cx="169.25" cy="243.48" r="0.02"/><circle class="cls-4" cx="57.05" cy="141.2" r="0.02"/><path class="cls-4" d="M63.07,135.86s0,0,0,0a0,0,0,0,0,0,0s0,0,0,0A0,0,0,0,0,63.07,135.86Z"/><path class="cls-4" d="M69.59,131.15a.05.05,0,0,0,0,.1,0,0,0,0,0,0-.1A0,0,0,0,0,69.59,131.15Z"/><path class="cls-4" d="M76.54,127.11a.07.07,0,0,0-.07.07.07.07,0,0,0,.07.08.07.07,0,0,0,.08-.08A.07.07,0,0,0,76.54,127.11Z"/><path class="cls-4" d="M83.86,123.76a.12.12,0,0,0-.12.12.12.12,0,0,0,.12.13.13.13,0,0,0,.13-.13A.12.12,0,0,0,83.86,123.76Z"/><path class="cls-4" d="M91.47,121.18a.15.15,0,0,0-.15.15.15.15,0,0,0,.15.14.14.14,0,0,0,.15-.14A.14.14,0,0,0,91.47,121.18Z"/><circle class="cls-4" cx="99.3" cy="119.54" r="0.2"/><path class="cls-4" d="M107.27,118.29a.25.25,0,1,0,.24.25A.25.25,0,0,0,107.27,118.29Z"/><path class="cls-4" d="M115.29,118a.3.3,0,1,0,.3.3A.3.3,0,0,0,115.29,118Z"/><circle class="cls-4" cx="123.3" cy="118.94" r="0.32"/><circle class="cls-4" cx="131.21" cy="120.33" r="0.37"/><path class="cls-4" d="M138.93,122.11a.4.4,0,1,0,.4.4A.4.4,0,0,0,138.93,122.11Z"/><path class="cls-4" d="M146.41,125a.45.45,0,1,0,.44.44A.45.45,0,0,0,146.41,125Z"/><path class="cls-4" d="M153.55,128.63a.48.48,0,1,0,.47.48A.47.47,0,0,0,153.55,128.63Z"/><path class="cls-4" d="M160.3,133a.5.5,0,0,0-.5.5.5.5,0,1,0,.5-.5Z"/><path class="cls-4" d="M166.57,138a.5.5,0,1,0,.5.5A.49.49,0,0,0,166.57,138Z"/><path class="cls-4" d="M172.32,143.58a.5.5,0,1,0,.5.49A.49.49,0,0,0,172.32,143.58Z"/><path class="cls-4" d="M177.48,149.73a.5.5,0,1,0,.5.49A.49.49,0,0,0,177.48,149.73Z"/><path class="cls-4" d="M182,156.39a.47.47,0,1,0,.47.47A.47.47,0,0,0,182,156.39Z"/><path class="cls-4" d="M185.85,163.46a.45.45,0,1,0,.44.45A.45.45,0,0,0,185.85,163.46Z"/><path class="cls-4" d="M189,170.88a.43.43,0,1,0,.43.43A.42.42,0,0,0,189,170.88Z"/><circle class="cls-4" cx="191.33" cy="178.98" r="0.37"/><circle class="cls-4" cx="192.92" cy="186.85" r="0.35"/><path class="cls-4" d="M193.72,194.54a.3.3,0,1,0,.3.3A.3.3,0,0,0,193.72,194.54Z"/><path class="cls-4" d="M193.72,202.62a.25.25,0,1,0,.25.25A.25.25,0,0,0,193.72,202.62Z"/><path class="cls-4" d="M192.92,210.66a.19.19,0,0,0-.2.19.2.2,0,0,0,.4,0A.19.19,0,0,0,192.92,210.66Z"/><path class="cls-4" d="M191.33,218.55a.17.17,0,0,0-.17.17.17.17,0,1,0,.34,0A.17.17,0,0,0,191.33,218.55Z"/><path class="cls-4" d="M189,226.27a.13.13,0,0,0-.12.13.13.13,0,0,0,.12.12.13.13,0,0,0,.13-.12A.13.13,0,0,0,189,226.27Z"/><path class="cls-4" d="M185.85,233.69a.1.1,0,0,0-.1.1.09.09,0,0,0,.1.1.09.09,0,0,0,.09-.1A.1.1,0,0,0,185.85,233.69Z"/><path class="cls-4" d="M182,240.8a0,0,0,0,0,0,0,0,0,0,0,0,0,0,0,0,0,0,0,0,0A0,0,0,0,0,182,240.8Z"/><path class="cls-4" d="M177.48,247.45s0,0,0,0a0,0,0,0,0,0,0s0,0,0,0A0,0,0,0,0,177.48,247.45Z"/><path class="cls-4" d="M172.32,253.6s0,0,0,0a0,0,0,0,0,0,0s0,0,0,0A0,0,0,0,0,172.32,253.6Z"/><path class="cls-4" d="M51.45,134.15s0,0,0,0a0,0,0,0,0,0,0s0,0,0,0Z"/><path class="cls-4" d="M57.49,128.86s0,0,0,0a0,0,0,0,0,0,0s0,0,0,0A0,0,0,0,0,57.49,128.86Z"/><circle class="cls-4" cx="63.99" cy="124.17" r="0.05"/><path class="cls-4" d="M70.88,120a.07.07,0,0,0-.07.07.08.08,0,0,0,.07.08.09.09,0,0,0,.08-.08A.08.08,0,0,0,70.88,120Z"/><path class="cls-4" d="M78.12,116.44a.13.13,0,0,0-.13.13.12.12,0,0,0,.13.12.12.12,0,0,0,.12-.12A.13.13,0,0,0,78.12,116.44Z"/><circle class="cls-4" cx="85.63" cy="113.75" r="0.17"/><circle class="cls-4" cx="93.37" cy="111.61" r="0.2"/><path class="cls-4" d="M101.27,109.93a.25.25,0,0,0-.24.25.25.25,0,1,0,.49,0A.25.25,0,0,0,101.27,109.93Z"/><path class="cls-4" d="M109.27,109.16a.3.3,0,1,0,.3.3A.3.3,0,0,0,109.27,109.16Z"/><circle class="cls-4" cx="117.3" cy="109.46" r="0.35"/><path class="cls-4" d="M125.3,109.78a.4.4,0,0,0-.4.4.39.39,0,0,0,.4.39.38.38,0,0,0,.39-.39A.39.39,0,0,0,125.3,109.78Z"/><path class="cls-4" d="M133.2,111.16a.45.45,0,1,0,.44.45A.45.45,0,0,0,133.2,111.16Z"/><path class="cls-4" d="M140.94,113.25a.5.5,0,1,0,.49.5A.5.5,0,0,0,140.94,113.25Z"/><path class="cls-4" d="M148.45,116.05a.52.52,0,1,0,.53.52A.52.52,0,0,0,148.45,116.05Z"/><path class="cls-4" d="M155.69,119.51a.55.55,0,0,0-.55.54.55.55,0,0,0,.55.55.55.55,0,0,0,.54-.55A.54.54,0,0,0,155.69,119.51Z"/><path class="cls-4" d="M162.58,123.6a.57.57,0,1,0,0,1.14.57.57,0,0,0,0-1.14Z"/><path class="cls-4" d="M169.08,128.29a.6.6,0,1,0,0,1.2.6.6,0,0,0,0-1.2Z"/><path class="cls-4" d="M175.12,133.58a.59.59,0,0,0-.59.59.6.6,0,1,0,1.19,0A.59.59,0,0,0,175.12,133.58Z"/><path class="cls-4" d="M180.67,139.38a.6.6,0,0,0,0,1.19.6.6,0,1,0,0-1.19Z"/><path class="cls-4" d="M185.68,145.66a.59.59,0,0,0-.6.59.6.6,0,0,0,.6.6.59.59,0,0,0,.59-.6A.58.58,0,0,0,185.68,145.66Z"/><path class="cls-4" d="M190.1,152.38a.58.58,0,1,0,.57.57A.57.57,0,0,0,190.1,152.38Z"/><circle class="cls-4" cx="193.91" cy="160.03" r="0.55"/><circle class="cls-4" cx="197.06" cy="167.41" r="0.5"/><path class="cls-4" d="M199.54,174.57a.48.48,0,0,0,0,1,.48.48,0,1,0,0-1Z"/><circle class="cls-4" cx="201.33" cy="182.87" r="0.42"/><circle class="cls-4" cx="202.41" cy="190.83" r="0.37"/><path class="cls-4" d="M202.77,198.53a.32.32,0,1,0,.32.32A.32.32,0,0,0,202.77,198.53Z"/><path class="cls-4" d="M202.41,206.6a.27.27,0,0,0-.27.27.27.27,0,1,0,.54,0A.27.27,0,0,0,202.41,206.6Z"/><path class="cls-4" d="M201.33,214.61a.22.22,0,1,0,.22.22A.22.22,0,0,0,201.33,214.61Z"/><circle class="cls-4" cx="199.54" cy="222.66" r="0.2"/><circle class="cls-4" cx="197.06" cy="230.29" r="0.15"/><path class="cls-4" d="M193.91,237.58a.09.09,0,0,0-.1.1.1.1,0,0,0,.1.1.11.11,0,0,0,.1-.1A.1.1,0,0,0,193.91,237.58Z"/><path class="cls-4" d="M190.1,244.67a.08.08,0,0,0-.07.08.07.07,0,0,0,.07.07.08.08,0,0,0,.08-.07A.09.09,0,0,0,190.1,244.67Z"/><path class="cls-4" d="M185.68,251.4a0,0,0,1,0,0,.1,0,0,0,0,0,0-.1A0,0,0,0,0,185.68,251.4Z"/><circle class="cls-4" cx="180.67" cy="257.73" r="0.02"/><path class="cls-4" d="M45.85,127.13s0,0,0,0a0,0,0,0,0,0,0s0,0,0,0A0,0,0,0,0,45.85,127.13Z"/><circle class="cls-4" cx="51.91" cy="121.89" r="0.02"/><path class="cls-4" d="M58.39,117.1a0,0,0,0,0,0,.05,0,0,0,1,0,.1,0A0,0,0,0,0,58.39,117.1Z"/><path class="cls-4" d="M65.23,112.85a.1.1,0,0,0-.1.09.1.1,0,0,0,.1.1.09.09,0,0,0,.1-.1A.09.09,0,0,0,65.23,112.85Z"/><path class="cls-4" d="M72.39,109.19a.13.13,0,0,0-.12.12.13.13,0,0,0,.12.13.13.13,0,0,0,.13-.13A.13.13,0,0,0,72.39,109.19Z"/><circle class="cls-4" cx="79.83" cy="106.28" r="0.17"/><path class="cls-4" d="M87.49,103.64a.22.22,0,1,0,0,.44.22.22,0,0,0,0-.44Z"/><path class="cls-4" d="M95.31,101.8a.27.27,0,0,0-.27.27.28.28,0,1,0,.55,0A.27.27,0,0,0,95.31,101.8Z"/><path class="cls-4" d="M103.26,100.61a.32.32,0,1,0,0,.64.32.32,0,1,0,0-.64Z"/><path class="cls-4" d="M111.28,100.07a.36.36,0,0,0-.37.37.37.37,0,0,0,.37.37.38.38,0,0,0,.37-.37A.37.37,0,0,0,111.28,100.07Z"/><path class="cls-4" d="M119.31,100.18a.42.42,0,0,0-.43.42.43.43,0,1,0,.43-.42Z"/><path class="cls-4" d="M127.29,101a.47.47,0,1,0,.47.47A.47.47,0,0,0,127.29,101Z"/><circle class="cls-4" cx="135.19" cy="102.89" r="0.52"/><circle class="cls-4" cx="142.94" cy="104.99" r="0.57"/><path class="cls-4" d="M150.49,107.1a.62.62,0,1,0,.62.62A.62.62,0,0,0,150.49,107.1Z"/><path class="cls-4" d="M157.79,110.41a.65.65,0,1,0,.65.65A.65.65,0,0,0,157.79,110.41Z"/><path class="cls-4" d="M164.8,114.31a.67.67,0,1,0,.67.67A.67.67,0,0,0,164.8,114.31Z"/><circle class="cls-4" cx="171.47" cy="119.45" r="0.69"/><circle class="cls-4" cx="177.74" cy="124.46" r="0.69"/><circle class="cls-4" cx="183.59" cy="129.96" r="0.72"/><circle class="cls-4" cx="188.97" cy="135.92" r="0.69"/><circle class="cls-4" cx="193.85" cy="142.3" r="0.69"/><path class="cls-4" d="M198.19,148.39a.67.67,0,1,0,.67.67A.67.67,0,0,0,198.19,148.39Z"/><path class="cls-4" d="M202,155.5a.65.65,0,1,0,.64.64A.64.64,0,0,0,202,155.5Z"/><path class="cls-4" d="M205.16,162.89a.62.62,0,0,0-.62.62.61.61,0,0,0,.62.62.62.62,0,0,0,.62-.62A.62.62,0,0,0,205.16,162.89Z"/><circle class="cls-4" cx="207.73" cy="171.12" r="0.57"/><path class="cls-4" d="M209.68,178.39a.52.52,0,0,0,0,1,.52.52,0,1,0,0-1Z"/><path class="cls-4" d="M211,186.36a.47.47,0,1,0,.47.47A.47.47,0,0,0,211,186.36Z"/><path class="cls-4" d="M211.64,194.44a.4.4,0,0,0-.4.4.4.4,0,0,0,.79,0A.4.4,0,0,0,211.64,194.44Z"/><circle class="cls-4" cx="211.64" cy="202.87" r="0.35"/><circle class="cls-4" cx="210.98" cy="210.87" r="0.3"/><path class="cls-4" d="M209.68,218.54a.25.25,0,1,0,.24.25A.25.25,0,0,0,209.68,218.54Z"/><circle class="cls-4" cx="207.73" cy="226.58" r="0.2"/><path class="cls-4" d="M205.16,234a.15.15,0,1,0,0,.3.15.15,0,0,0,0-.3Z"/><path class="cls-4" d="M202,241.44a.12.12,0,1,0,.12.12A.12.12,0,0,0,202,241.44Z"/><path class="cls-4" d="M198.19,248.57a.07.07,0,0,0-.07.08.07.07,0,0,0,.07.07.08.08,0,0,0,.08-.07A.08.08,0,0,0,198.19,248.57Z"/><path class="cls-4" d="M193.85,255.35a0,0,0,1,0,.05.05A0,0,0,0,0,193.85,255.35Z"/><circle class="cls-4" cx="188.97" cy="261.78" r="0.02"/><path class="cls-4" d="M183.59,267.71s0,0,0,0l0,0s0,0,0,0A0,0,0,0,0,183.59,267.71Z"/><circle class="cls-4" cx="40.25" cy="120.14" r="0.02"/><path class="cls-4" d="M46.33,114.85a.05.05,0,0,0,0,.05.06.06,0,0,0,0,0,.05.05,0,0,0,.05,0A0,0,0,0,0,46.33,114.85Z"/><path class="cls-4" d="M52.8,110.08a0,0,0,0,0,0,.1.05.05,0,0,0,0-.1Z"/><path class="cls-4" d="M59.59,105.76a.09.09,0,0,0-.09.1.1.1,0,0,0,.09.1.1.1,0,0,0,.1-.1A.09.09,0,0,0,59.59,105.76Z"/><path class="cls-4" d="M66.69,102a.13.13,0,0,0-.12.12.13.13,0,0,0,.12.13.13.13,0,0,0,.13-.13A.13.13,0,0,0,66.69,102Z"/><circle class="cls-4" cx="74.05" cy="98.89" r="0.17"/><circle class="cls-4" cx="81.63" cy="96.24" r="0.22"/><path class="cls-4" d="M89.39,93.89a.27.27,0,0,0-.27.27.27.27,0,1,0,.54,0A.27.27,0,0,0,89.39,93.89Z"/><path class="cls-4" d="M97.28,92.35a.32.32,0,1,0,.32.32A.32.32,0,0,0,97.28,92.35Z"/><path class="cls-4" d="M105.26,91.37a.4.4,0,1,0,.4.4A.4.4,0,0,0,105.26,91.37Z"/><path class="cls-4" d="M113.29,91a.45.45,0,1,0,.44.45A.45.45,0,0,0,113.29,91Z"/><path class="cls-4" d="M121.31,91.27a.5.5,0,1,0,.5.5A.51.51,0,0,0,121.31,91.27Z"/><path class="cls-4" d="M129.29,92.1a.56.56,0,0,0-.57.57.57.57,0,0,0,.57.57.58.58,0,0,0,.57-.57A.57.57,0,0,0,129.29,92.1Z"/><path class="cls-4" d="M137.18,93.54a.62.62,0,0,0-.62.62.62.62,0,0,0,1.24,0A.62.62,0,0,0,137.18,93.54Z"/><path class="cls-4" d="M144.94,95.57a.67.67,0,1,0,.67.67A.67.67,0,0,0,144.94,95.57Z"/><circle class="cls-4" cx="152.52" cy="98.89" r="0.72"/><circle class="cls-4" cx="159.88" cy="102.1" r="0.74"/><circle class="cls-4" cx="166.98" cy="105.86" r="0.77"/><path class="cls-4" d="M173.77,109.33a.8.8,0,0,0-.79.8.8.8,0,0,0,1.59,0A.8.8,0,0,0,173.77,109.33Z"/><path class="cls-4" d="M180.24,114.08a.82.82,0,1,0,.81.82A.81.81,0,0,0,180.24,114.08Z"/><path class="cls-4" d="M186.32,119.32a.82.82,0,1,0,.82.82A.82.82,0,0,0,186.32,119.32Z"/><path class="cls-4" d="M192,125a.82.82,0,1,0,.82.82A.82.82,0,0,0,192,125Z"/><path class="cls-4" d="M197.24,131.08a.82.82,0,1,0,.82.82A.82.82,0,0,0,197.24,131.08Z"/><path class="cls-4" d="M202,137.57a.79.79,0,0,0-.8.79.8.8,0,0,0,.8.8.79.79,0,0,0,.79-.8A.79.79,0,0,0,202,137.57Z"/><path class="cls-4" d="M206.28,144.39a.77.77,0,1,0,.77.77A.77.77,0,0,0,206.28,144.39Z"/><path class="cls-4" d="M210,151.52a.74.74,0,0,0,0,1.48.74.74,0,1,0,0-1.48Z"/><circle class="cls-4" cx="213.24" cy="159.62" r="0.72"/><path class="cls-4" d="M215.9,166.53a.67.67,0,1,0,.67.67A.67.67,0,0,0,215.9,166.53Z"/><path class="cls-4" d="M218,174.34a.62.62,0,0,0-.62.62.62.62,0,0,0,.62.62.62.62,0,0,0,.62-.62A.61.61,0,0,0,218,174.34Z"/><circle class="cls-4" cx="219.47" cy="182.85" r="0.57"/><path class="cls-4" d="M220.37,190.33a.5.5,0,1,0,.49.5A.5.5,0,0,0,220.37,190.33Z"/><path class="cls-4" d="M220.67,198.4a.45.45,0,1,0,.44.45A.45.45,0,0,0,220.67,198.4Z"/><path class="cls-4" d="M220.37,206.48a.4.4,0,1,0,0,.79.4.4,0,0,0,0-.79Z"/><path class="cls-4" d="M219.47,214.53a.33.33,0,1,0,0,.65.33.33,0,0,0,0-.65Z"/><path class="cls-4" d="M218,222.47a.28.28,0,0,0,0,.55.28.28,0,1,0,0-.55Z"/><circle class="cls-4" cx="215.9" cy="230.5" r="0.22"/><path class="cls-4" d="M213.24,237.91a.18.18,0,0,0-.17.17.18.18,0,0,0,.17.18.18.18,0,0,0,.18-.18A.18.18,0,0,0,213.24,237.91Z"/><circle class="cls-4" cx="210.03" cy="245.44" r="0.12"/><path class="cls-4" d="M206.28,252.44a.1.1,0,0,0-.1.1.09.09,0,0,0,.1.1.1.1,0,0,0,.1-.1A.11.11,0,0,0,206.28,252.44Z"/><path class="cls-4" d="M202,259.29a0,0,0,0,0,0,.1,0,0,0,0,0,0-.1Z"/><path class="cls-4" d="M197.24,265.75a.05.05,0,1,0,0,.05A0,0,0,0,0,197.24,265.75Z"/><path class="cls-4" d="M192,271.86s0,0,0,0l0,0,0,0A0,0,0,0,0,192,271.86Z"/><circle class="cls-4" cx="34.65" cy="113.12" r="0.02"/><path class="cls-4" d="M40.76,107.85a.05.05,0,0,0,0,.1.05.05,0,0,0,0-.1Z"/><path class="cls-4" d="M47.2,103.06a.06.06,0,0,0-.05,0,.05.05,0,0,0,.05,0,0,0,0,0,0,0,0A.05.05,0,0,0,47.2,103.06Z"/><path class="cls-4" d="M54,98.68a.1.1,0,0,0-.1.1.09.09,0,0,0,.1.1.09.09,0,0,0,.09-.1A.1.1,0,0,0,54,98.68Z"/><circle class="cls-4" cx="61.01" cy="94.93" r="0.15"/><circle class="cls-4" cx="68.3" cy="91.57" r="0.2"/><path class="cls-4" d="M75.81,88.5a.22.22,0,0,0-.22.22.23.23,0,1,0,.22-.22Z"/><path class="cls-4" d="M83.5,86.1a.3.3,0,0,0-.3.3.3.3,0,0,0,.6,0A.3.3,0,0,0,83.5,86.1Z"/><path class="cls-4" d="M91.33,84.27a.35.35,0,0,0-.35.34.35.35,0,0,0,.7,0A.35.35,0,0,0,91.33,84.27Z"/><circle class="cls-4" cx="99.26" cy="83.37" r="0.4"/><path class="cls-4" d="M107.26,82.21a.47.47,0,1,0,0,.94.47.47,0,1,0,0-.94Z"/><path class="cls-4" d="M115.29,82a.52.52,0,1,0,0,1,.52.52,0,1,0,0-1Z"/><path class="cls-4" d="M123.31,82.36a.6.6,0,0,0,0,1.19.6.6,0,1,0,0-1.19Z"/><path class="cls-4" d="M131.28,83.28a.65.65,0,1,0,.65.64A.64.64,0,0,0,131.28,83.28Z"/><circle class="cls-4" cx="139.17" cy="85.44" r="0.72"/><path class="cls-4" d="M146.93,86.73a.77.77,0,1,0,.77.76A.77.77,0,0,0,146.93,86.73Z"/><path class="cls-4" d="M154.54,89.26a.82.82,0,1,0,.81.82A.82.82,0,0,0,154.54,89.26Z"/><path class="cls-4" d="M161.94,92.32a.87.87,0,1,0,.87.87A.87.87,0,0,0,161.94,92.32Z"/><circle class="cls-4" cx="169.12" cy="96.8" r="0.89"/><circle class="cls-4" cx="176.02" cy="100.89" r="0.92"/><circle class="cls-4" cx="182.63" cy="105.45" r="0.94"/><path class="cls-4" d="M188.91,109.49a1,1,0,1,0,1,1A1,1,0,0,0,188.91,109.49Z"/><path class="cls-4" d="M194.83,114.92a1,1,0,1,0,1,1A1,1,0,0,0,194.83,114.92Z"/><path class="cls-4" d="M200.36,120.74a1,1,0,1,0,1,1A1,1,0,0,0,200.36,120.74Z"/><path class="cls-4" d="M205.47,127a.94.94,0,1,0,.95.94A.94.94,0,0,0,205.47,127Z"/><circle class="cls-4" cx="210.15" cy="134.43" r="0.92"/><circle class="cls-4" cx="214.36" cy="141.27" r="0.89"/><circle class="cls-4" cx="218.09" cy="148.38" r="0.87"/><path class="cls-4" d="M221.33,154.91a.82.82,0,1,0,.82.82A.82.82,0,0,0,221.33,154.91Z"/><circle class="cls-4" cx="224.04" cy="163.29" r="0.77"/><circle class="cls-4" cx="226.23" cy="171.01" r="0.72"/><path class="cls-4" d="M227.89,178.2a.67.67,0,1,0,.67.67A.67.67,0,0,0,227.89,178.2Z"/><path class="cls-4" d="M229,186.2a.62.62,0,0,0-.62.62.62.62,0,0,0,1.24,0A.62.62,0,0,0,229,186.2Z"/><circle class="cls-4" cx="229.54" cy="194.84" r="0.55"/><path class="cls-4" d="M229.54,202.39a.48.48,0,0,0-.47.48.48.48,0,0,0,1,0A.48.48,0,0,0,229.54,202.39Z"/><path class="cls-4" d="M229,210.46a.42.42,0,0,0-.42.42.42.42,0,1,0,.84,0A.42.42,0,0,0,229,210.46Z"/><path class="cls-4" d="M227.89,218.48a.35.35,0,1,0,.34.35A.35.35,0,0,0,227.89,218.48Z"/><path class="cls-4" d="M226.23,226.39a.3.3,0,1,0,.3.3A.3.3,0,0,0,226.23,226.39Z"/><path class="cls-4" d="M224,234.17a.25.25,0,1,0,.25.25A.25.25,0,0,0,224,234.17Z"/><circle class="cls-4" cx="221.33" cy="241.97" r="0.2"/><circle class="cls-4" cx="218.09" cy="249.32" r="0.15"/><path class="cls-4" d="M214.36,256.34a.1.1,0,0,0-.1.09.1.1,0,0,0,.1.1.09.09,0,0,0,.1-.1A.09.09,0,0,0,214.36,256.34Z"/><path class="cls-4" d="M210.15,263.2a.08.08,0,0,0-.08.07.09.09,0,0,0,.08.08.08.08,0,0,0,.07-.08A.07.07,0,0,0,210.15,263.2Z"/><path class="cls-4" d="M205.47,269.75a.05.05,0,0,0,0,.1.05.05,0,0,0,0-.1Z"/><circle class="cls-4" cx="200.36" cy="275.99" r="0.02"/><circle class="cls-4" cx="29.06" cy="106.11" r="0.02"/><circle class="cls-4" cx="35.18" cy="100.9" r="0.05"/><path class="cls-4" d="M41.61,96a.07.07,0,0,0-.07.07.08.08,0,0,0,.07.08.09.09,0,0,0,.08-.08A.08.08,0,0,0,41.61,96Z"/><path class="cls-4" d="M48.34,91.62a.11.11,0,0,0-.1.1.1.1,0,0,0,.1.1.09.09,0,0,0,.1-.1A.1.1,0,0,0,48.34,91.62Z"/><path class="cls-4" d="M55.34,87.63a.15.15,0,1,0,.15.15A.15.15,0,0,0,55.34,87.63Z"/><circle class="cls-4" cx="62.57" cy="84.3" r="0.2"/><path class="cls-4" d="M70,81a.25.25,0,1,0,.25.25A.25.25,0,0,0,70,81Z"/><path class="cls-4" d="M77.64,78.45a.31.31,0,0,0-.3.3.3.3,0,1,0,.6,0A.31.31,0,0,0,77.64,78.45Z"/><circle class="cls-4" cx="85.41" cy="76.71" r="0.35"/><path class="cls-4" d="M93.29,74.76a.42.42,0,1,0,.42.42A.42.42,0,0,0,93.29,74.76Z"/><circle class="cls-4" cx="101.26" cy="74.15" r="0.5"/><circle class="cls-4" cx="109.27" cy="73.64" r="0.55"/><path class="cls-4" d="M117.3,73a.62.62,0,1,0,.62.62A.62.62,0,0,0,117.3,73Z"/><path class="cls-4" d="M125.31,73.46a.7.7,0,1,0,.7.69A.69.69,0,0,0,125.31,73.46Z"/><path class="cls-4" d="M133.28,74.43a.76.76,0,0,0-.75.75.75.75,0,0,0,.75.74.74.74,0,0,0,.74-.74A.75.75,0,0,0,133.28,74.43Z"/><path class="cls-4" d="M141.16,75.9a.82.82,0,1,0,.82.81A.82.82,0,0,0,141.16,75.9Z"/><circle class="cls-4" cx="148.93" cy="78.75" r="0.87"/><circle class="cls-4" cx="156.55" cy="81.28" r="0.92"/><path class="cls-4" d="M164,83.33a1,1,0,1,0,1,1A1,1,0,0,0,164,83.33Z"/><path class="cls-4" d="M171.23,86.76a1,1,0,1,0,1,1A1,1,0,0,0,171.23,86.76Z"/><path class="cls-4" d="M178.23,90.68a1,1,0,1,0,1,1A1,1,0,0,0,178.23,90.68Z"/><path class="cls-4" d="M185,95A1.07,1.07,0,1,0,186,96.1,1.07,1.07,0,0,0,185,95Z"/><circle class="cls-4" cx="191.39" cy="100.9" r="1.09"/><circle class="cls-4" cx="197.51" cy="106.11" r="1.12"/><circle class="cls-4" cx="203.28" cy="111.7" r="1.12"/><path class="cls-4" d="M208.68,116.55a1.09,1.09,0,1,0,1.09,1.09A1.09,1.09,0,0,0,208.68,116.55Z"/><circle class="cls-4" cx="213.68" cy="123.92" r="1.09"/><path class="cls-4" d="M218.28,129.44a1.07,1.07,0,1,0,1.07,1.07A1.07,1.07,0,0,0,218.28,129.44Z"/><path class="cls-4" d="M222.44,136.33a1,1,0,1,0,1,1A1,1,0,0,0,222.44,136.33Z"/><path class="cls-4" d="M226.16,143.5a1,1,0,1,0,1,1A1,1,0,0,0,226.16,143.5Z"/><circle class="cls-4" cx="229.41" cy="151.84" r="0.94"/><circle class="cls-4" cx="232.18" cy="159.37" r="0.89"/><path class="cls-4" d="M234.47,166.23a.85.85,0,1,0,.84.84A.85.85,0,0,0,234.47,166.23Z"/><path class="cls-4" d="M236.25,174.11a.79.79,0,0,0-.79.79.79.79,0,0,0,.79.8.8.8,0,0,0,.8-.8A.79.79,0,0,0,236.25,174.11Z"/><path class="cls-4" d="M237.53,182.11a.72.72,0,1,0,.72.72A.72.72,0,0,0,237.53,182.11Z"/><path class="cls-4" d="M238.31,190.18a.65.65,0,1,0,.64.64A.65.65,0,0,0,238.31,190.18Z"/><path class="cls-4" d="M238.56,198.26a.58.58,0,0,0-.59.59.59.59,0,0,0,.59.6.6.6,0,0,0,.6-.6A.59.59,0,0,0,238.56,198.26Z"/><circle class="cls-4" cx="238.31" cy="206.88" r="0.52"/><path class="cls-4" d="M237.53,214.42a.45.45,0,1,0,.45.45A.45.45,0,0,0,237.53,214.42Z"/><path class="cls-4" d="M236.25,222.4a.4.4,0,0,0,0,.8.4.4,0,1,0,0-.8Z"/><circle class="cls-4" cx="234.47" cy="230.63" r="0.32"/><path class="cls-4" d="M232.18,238.05a.28.28,0,0,0-.27.28.27.27,0,0,0,.54,0A.28.28,0,0,0,232.18,238.05Z"/><path class="cls-4" d="M229.41,245.64a.23.23,0,1,0,.22.22A.22.22,0,0,0,229.41,245.64Z"/><circle class="cls-4" cx="226.16" cy="253.21" r="0.17"/><path class="cls-4" d="M222.44,260.2a.12.12,0,0,0-.12.13.12.12,0,0,0,.12.12.12.12,0,0,0,.13-.12A.13.13,0,0,0,222.44,260.2Z"/><path class="cls-4" d="M218.28,267.12a.08.08,0,0,0-.08.07.08.08,0,0,0,.08.08.07.07,0,0,0,.07-.08A.07.07,0,0,0,218.28,267.12Z"/><path class="cls-4" d="M213.68,273.73a0,0,0,1,0,0,.1.05.05,0,0,0,0-.1Z"/><path class="cls-4" d="M208.68,280a0,0,0,0,0,0,0s0,0,0,0l0,0S208.69,280,208.68,280Z"/><circle class="cls-4" cx="203.28" cy="286" r="0.02"/><circle class="cls-4" cx="23.47" cy="99.1" r="0.02"/><path class="cls-4" d="M29.6,93.86a0,0,0,0,0,0,.1,0,0,0,0,0,0-.1Z"/><path class="cls-4" d="M36,89a.07.07,0,0,0-.07.07.08.08,0,0,0,.07.08.09.09,0,0,0,.08-.08A.08.08,0,0,0,36,89Z"/><path class="cls-4" d="M42.72,84.54a.13.13,0,0,0-.12.13.12.12,0,0,0,.12.12.12.12,0,0,0,.13-.12A.13.13,0,0,0,42.72,84.54Z"/><circle class="cls-4" cx="49.68" cy="80.65" r="0.15"/><circle class="cls-4" cx="56.86" cy="77.06" r="0.2"/><path class="cls-4" d="M64.25,73.66a.25.25,0,1,0,0,.49.25.25,0,1,0,0-.49Z"/><path class="cls-4" d="M71.81,70.87a.33.33,0,1,0,0,.65.33.33,0,0,0,0-.65Z"/><circle class="cls-4" cx="79.52" cy="68.94" r="0.37"/><path class="cls-4" d="M87.35,66.71a.45.45,0,1,0,.44.45A.45.45,0,0,0,87.35,66.71Z"/><path class="cls-4" d="M95.27,65.34a.5.5,0,1,0,.49.5A.5.5,0,0,0,95.27,65.34Z"/><path class="cls-4" d="M103.25,64.43a.58.58,0,0,0-.57.57.58.58,0,0,0,1.15,0A.58.58,0,0,0,103.25,64.43Z"/><path class="cls-4" d="M111.28,64a.65.65,0,1,0,.64.65A.65.65,0,0,0,111.28,64Z"/><path class="cls-4" d="M119.31,64a.72.72,0,1,0,.72.72A.72.72,0,0,0,119.31,64Z"/><path class="cls-4" d="M127.32,64.57a.79.79,0,1,0,.79.79A.79.79,0,0,0,127.32,64.57Z"/><path class="cls-4" d="M135.27,65.57a.87.87,0,1,0,.87.87A.86.86,0,0,0,135.27,65.57Z"/><circle class="cls-4" cx="143.15" cy="67.99" r="0.92"/><path class="cls-4" d="M150.93,69a1,1,0,1,0,1,1A1,1,0,0,0,150.93,69Z"/><path class="cls-4" d="M158.56,71.45a1,1,0,1,0,1.05,1A1,1,0,0,0,158.56,71.45Z"/><path class="cls-4" d="M166,74.33a1.1,1.1,0,1,0,1.09,1.1A1.09,1.09,0,0,0,166,74.33Z"/><circle class="cls-4" cx="173.33" cy="78.8" r="1.14"/><path class="cls-4" d="M180.4,81.42a1.19,1.19,0,1,0,1.19,1.19A1.19,1.19,0,0,0,180.4,81.42Z"/><path class="cls-4" d="M187.23,85.61a1.22,1.22,0,1,0,1.22,1.22A1.22,1.22,0,0,0,187.23,85.61Z"/><path class="cls-4" d="M193.8,90.21A1.24,1.24,0,1,0,195,91.45,1.24,1.24,0,0,0,193.8,90.21Z"/><circle class="cls-4" cx="200.08" cy="96.46" r="1.24"/><circle class="cls-4" cx="206.04" cy="101.83" r="1.27"/><path class="cls-4" d="M211.68,106.29a1.27,1.27,0,1,0,1.27,1.26A1.27,1.27,0,0,0,211.68,106.29Z"/><path class="cls-4" d="M217,112.36a1.24,1.24,0,1,0,0,2.48,1.24,1.24,0,0,0,0-2.48Z"/><path class="cls-4" d="M221.88,118.71a1.25,1.25,0,1,0,1.24,1.24A1.24,1.24,0,0,0,221.88,118.71Z"/><path class="cls-4" d="M226.4,125.37a1.22,1.22,0,1,0,1.22,1.22A1.22,1.22,0,0,0,226.4,125.37Z"/><path class="cls-4" d="M230.52,132.32a1.17,1.17,0,1,0,1.17,1.16A1.16,1.16,0,0,0,230.52,132.32Z"/><path class="cls-4" d="M234.22,139.47a1.14,1.14,0,1,0,1.14,1.14A1.14,1.14,0,0,0,234.22,139.47Z"/><circle class="cls-4" cx="237.48" cy="147.95" r="1.09"/><path class="cls-4" d="M240.31,154.43a1,1,0,1,0,1,1A1,1,0,0,0,240.31,154.43Z"/><path class="cls-4" d="M242.67,162.17a1,1,0,1,0,1,1A1,1,0,0,0,242.67,162.17Z"/><circle class="cls-4" cx="244.58" cy="170.94" r="0.92"/><path class="cls-4" d="M246,178a.85.85,0,1,0,.85.85A.85.85,0,0,0,246,178Z"/><path class="cls-4" d="M247,186.05a.77.77,0,1,0,.77.77A.77.77,0,0,0,247,186.05Z"/><path class="cls-4" d="M247.45,194.14a.7.7,0,1,0,.7.7A.7.7,0,0,0,247.45,194.14Z"/><path class="cls-4" d="M247.45,202.22a.65.65,0,1,0,.65.65A.65.65,0,0,0,247.45,202.22Z"/><path class="cls-4" d="M247,210.31a.58.58,0,0,0-.57.57.57.57,0,0,0,.57.57.56.56,0,0,0,.57-.57A.57.57,0,0,0,247,210.31Z"/><circle class="cls-4" cx="246.01" cy="218.86" r="0.5"/><path class="cls-4" d="M244.58,226.34a.42.42,0,0,0,0,.84.42.42,0,0,0,0-.84Z"/><circle class="cls-4" cx="242.67" cy="234.56" r="0.35"/><path class="cls-4" d="M240.31,241.94a.3.3,0,1,0,.29.29A.29.29,0,0,0,240.31,241.94Z"/><path class="cls-4" d="M237.48,249.5a.25.25,0,0,0-.24.25.25.25,0,1,0,.49,0A.25.25,0,0,0,237.48,249.5Z"/><path class="cls-4" d="M234.22,256.89a.2.2,0,1,0,.2.2A.2.2,0,0,0,234.22,256.89Z"/><circle class="cls-4" cx="230.52" cy="264.22" r="0.15"/><path class="cls-4" d="M226.4,271a.11.11,0,0,0-.1.1.1.1,0,0,0,.2,0A.11.11,0,0,0,226.4,271Z"/><path class="cls-4" d="M221.88,277.7a0,0,0,0,0,0,.05.05.05,0,0,0,0,.05.06.06,0,0,0,.05-.05A.05.05,0,0,0,221.88,277.7Z"/><path class="cls-4" d="M217,284.05a.05.05,0,1,0,0,.1,0,0,0,1,0,0-.1Z"/><path class="cls-4" d="M211.68,290.12a0,0,0,0,0,0,0s0,0,0,0a0,0,0,0,0,0,0S211.69,290.12,211.68,290.12Z"/><path class="cls-4" d="M17.88,92.07a0,0,0,0,0,0,0s0,0,0,0a0,0,0,0,0,0,0S17.9,92.07,17.88,92.07Z"/><path class="cls-4" d="M24,86.86a.05.05,0,0,0-.05,0A0,0,0,0,0,24,87a.05.05,0,0,0,.05,0A.06.06,0,0,0,24,86.86Z"/><path class="cls-4" d="M30.43,82a.07.07,0,0,0-.07.07.08.08,0,0,0,.07.08.08.08,0,0,0,.08-.08A.07.07,0,0,0,30.43,82Z"/><path class="cls-4" d="M37.11,77.5a.12.12,0,0,0-.12.12.12.12,0,0,0,.12.13.13.13,0,0,0,.13-.13A.12.12,0,0,0,37.11,77.5Z"/><path class="cls-4" d="M44,73.39a.15.15,0,1,0,.15.15A.15.15,0,0,0,44,73.39Z"/><path class="cls-4" d="M51.16,69.66a.19.19,0,0,0-.19.2.18.18,0,0,0,.19.19.19.19,0,0,0,.2-.19A.2.2,0,0,0,51.16,69.66Z"/><path class="cls-4" d="M58.49,66.3a.28.28,0,1,0,.28.28A.27.27,0,0,0,58.49,66.3Z"/><path class="cls-4" d="M66,63.39a.32.32,0,1,0,.32.32A.32.32,0,0,0,66,63.39Z"/><circle class="cls-4" cx="73.65" cy="61.27" r="0.37"/><path class="cls-4" d="M81.43,58.82a.45.45,0,1,0,.44.45A.45.45,0,0,0,81.43,58.82Z"/><path class="cls-4" d="M89.3,57.18a.52.52,0,1,0,.52.52A.52.52,0,0,0,89.3,57.18Z"/><circle class="cls-4" cx="97.25" cy="56.58" r="0.6"/><path class="cls-4" d="M105.26,55.23a.67.67,0,1,0,.67.67A.67.67,0,0,0,105.26,55.23Z"/><circle class="cls-4" cx="113.29" cy="55.68" r="0.74"/><path class="cls-4" d="M121.31,55.08a.82.82,0,1,0,.82.82A.82.82,0,0,0,121.31,55.08Z"/><path class="cls-4" d="M129.32,55.68a.9.9,0,1,0,.89.9A.9.9,0,0,0,129.32,55.68Z"/><path class="cls-4" d="M137.27,56.73a1,1,0,1,0,1,1A1,1,0,0,0,137.27,56.73Z"/><circle class="cls-4" cx="145.14" cy="59.27" r="1.04"/><path class="cls-4" d="M152.92,60.16A1.12,1.12,0,1,0,154,61.27,1.12,1.12,0,0,0,152.92,60.16Z"/><path class="cls-4" d="M160.57,62.54a1.17,1.17,0,1,0,1.17,1.17A1.17,1.17,0,0,0,160.57,62.54Z"/><path class="cls-4" d="M168.08,65.36a1.22,1.22,0,1,0,1.21,1.22A1.21,1.21,0,0,0,168.08,65.36Z"/><circle class="cls-4" cx="175.41" cy="69.86" r="1.27"/><circle class="cls-4" cx="182.54" cy="73.54" r="1.32"/><path class="cls-4" d="M189.46,76.26a1.37,1.37,0,1,0,1.36,1.36A1.36,1.36,0,0,0,189.46,76.26Z"/><path class="cls-4" d="M196.14,80.69a1.39,1.39,0,1,0,1.39,1.39A1.39,1.39,0,0,0,196.14,80.69Z"/><path class="cls-4" d="M202.55,85.5a1.42,1.42,0,0,0,0,2.83,1.42,1.42,0,1,0,0-2.83Z"/><circle class="cls-4" cx="208.69" cy="92.09" r="1.41"/><circle class="cls-4" cx="214.52" cy="97.61" r="1.41"/><circle class="cls-4" cx="220.04" cy="103.45" r="1.41"/><path class="cls-4" d="M225.22,108.17a1.42,1.42,0,0,0,0,2.83,1.42,1.42,0,1,0,0-2.83Z"/><path class="cls-4" d="M230.05,114.61a1.39,1.39,0,1,0,1.39,1.39A1.39,1.39,0,0,0,230.05,114.61Z"/><path class="cls-4" d="M234.51,121.31a1.37,1.37,0,1,0,1.37,1.37A1.36,1.36,0,0,0,234.51,121.31Z"/><circle class="cls-4" cx="238.59" cy="129.59" r="1.32"/><circle class="cls-4" cx="242.28" cy="136.73" r="1.27"/><path class="cls-4" d="M245.56,142.84a1.22,1.22,0,1,0,1.22,1.22A1.22,1.22,0,0,0,245.56,142.84Z"/><path class="cls-4" d="M248.42,150.4a1.17,1.17,0,1,0,1.17,1.16A1.16,1.16,0,0,0,248.42,150.4Z"/><path class="cls-4" d="M250.86,158.1a1.12,1.12,0,1,0,1.12,1.12A1.12,1.12,0,0,0,250.86,158.1Z"/><circle class="cls-4" cx="252.87" cy="166.99" r="1.04"/><path class="cls-4" d="M254.44,173.9a1,1,0,1,0,1,1A1,1,0,0,0,254.44,173.9Z"/><path class="cls-4" d="M255.56,181.93a.89.89,0,1,0,.89.89A.89.89,0,0,0,255.56,181.93Z"/><path class="cls-4" d="M256.23,190a.82.82,0,1,0,.82.82A.82.82,0,0,0,256.23,190Z"/><circle class="cls-4" cx="256.46" cy="198.85" r="0.74"/><path class="cls-4" d="M256.23,206.21a.67.67,0,1,0,.67.67A.67.67,0,0,0,256.23,206.21Z"/><path class="cls-4" d="M255.56,214.29a.59.59,0,0,0-.6.59.6.6,0,0,0,.6.6.59.59,0,0,0,.59-.6A.58.58,0,0,0,255.56,214.29Z"/><path class="cls-4" d="M254.44,222.31a.52.52,0,0,0-.52.52.52.52,0,0,0,.52.52.52.52,0,0,0,.52-.52A.53.53,0,0,0,254.44,222.31Z"/><path class="cls-4" d="M252.87,230.26a.45.45,0,1,0,.45.45A.45.45,0,0,0,252.87,230.26Z"/><path class="cls-4" d="M250.86,238.11a.38.38,0,1,0,.38.38A.38.38,0,0,0,250.86,238.11Z"/><path class="cls-4" d="M248.42,245.82a.32.32,0,1,0,.33.32A.32.32,0,0,0,248.42,245.82Z"/><path class="cls-4" d="M245.56,253.37a.27.27,0,1,0,.27.27A.27.27,0,0,0,245.56,253.37Z"/><circle class="cls-4" cx="242.28" cy="260.97" r="0.2"/><path class="cls-4" d="M238.59,268a.14.14,0,0,0-.14.15.15.15,0,0,0,.14.15.15.15,0,0,0,.15-.15A.14.14,0,0,0,238.59,268Z"/><path class="cls-4" d="M234.51,274.9a.13.13,0,0,0-.12.12.13.13,0,0,0,.12.13.13.13,0,0,0,.13-.13A.13.13,0,0,0,234.51,274.9Z"/><path class="cls-4" d="M230.05,281.63a.07.07,0,0,0-.07.07.08.08,0,0,0,.07.08.09.09,0,0,0,.08-.08A.08.08,0,0,0,230.05,281.63Z"/><path class="cls-4" d="M225.22,288.07a.05.05,0,1,0,0,.1.05.05,0,1,0,0-.1Z"/><path class="cls-4" d="M220,294.23l0,0s0,0,0,0a0,0,0,0,0,0,0S220.06,294.23,220,294.23Z"/><path class="cls-4" d="M12.29,85.06s0,0,0,0a0,0,0,0,0,0,0s0,0,0,0A0,0,0,0,0,12.29,85.06Z"/><circle class="cls-4" cx="18.44" cy="79.92" r="0.05"/><path class="cls-4" d="M24.85,75a.09.09,0,0,0-.08.08.08.08,0,0,0,.08.07.07.07,0,0,0,.07-.07A.08.08,0,0,0,24.85,75Z"/><path class="cls-4" d="M31.5,70.46a.12.12,0,0,0-.12.12.12.12,0,0,0,.12.13.13.13,0,0,0,.13-.13A.12.12,0,0,0,31.5,70.46Z"/><circle class="cls-4" cx="38.39" cy="66.44" r="0.17"/><path class="cls-4" d="M45.48,62.45a.23.23,0,1,0,0,.45.22.22,0,0,0,.22-.22A.22.22,0,0,0,45.48,62.45Z"/><path class="cls-4" d="M52.76,59a.28.28,0,0,0-.27.28.27.27,0,1,0,.54,0A.28.28,0,0,0,52.76,59Z"/><path class="cls-4" d="M60.21,56a.32.32,0,1,0,.32.32A.32.32,0,0,0,60.21,56Z"/><circle class="cls-4" cx="67.81" cy="53.69" r="0.4"/><path class="cls-4" d="M75.53,51a.47.47,0,1,0,.47.47A.47.47,0,0,0,75.53,51Z"/><circle class="cls-4" cx="83.36" cy="49.7" r="0.55"/><path class="cls-4" d="M91.27,47.71a.62.62,0,0,0,0,1.24.62.62,0,1,0,0-1.24Z"/><path class="cls-4" d="M99.25,46.68a.7.7,0,1,0,0,1.39.7.7,0,0,0,0-1.39Z"/><path class="cls-4" d="M107.26,46.08a.77.77,0,1,0,.77.77A.77.77,0,0,0,107.26,46.08Z"/><path class="cls-4" d="M115.29,45.9a.85.85,0,1,0,.85.84A.85.85,0,0,0,115.29,45.9Z"/><path class="cls-4" d="M123.32,46.12a.94.94,0,1,0,.94.94A.95.95,0,0,0,123.32,46.12Z"/><path class="cls-4" d="M131.31,46.78a1,1,0,1,0,1,1A1,1,0,0,0,131.31,46.78Z"/><circle class="cls-4" cx="139.26" cy="48.96" r="1.09"/><path class="cls-4" d="M147.14,49.38a1.17,1.17,0,1,0,1.16,1.16A1.16,1.16,0,0,0,147.14,49.38Z"/><path class="cls-4" d="M154.92,51.29a1.25,1.25,0,1,0,1.24,1.25A1.25,1.25,0,0,0,154.92,51.29Z"/><circle class="cls-4" cx="162.58" cy="54.94" r="1.29"/><path class="cls-4" d="M170.11,56.37a1.37,1.37,0,1,0,1.36,1.37A1.37,1.37,0,0,0,170.11,56.37Z"/><path class="cls-4" d="M177.47,59.52a1.42,1.42,0,1,0,1.42,1.41A1.41,1.41,0,0,0,177.47,59.52Z"/><circle class="cls-4" cx="184.66" cy="64.51" r="1.46"/><circle class="cls-4" cx="191.65" cy="68.47" r="1.51"/><path class="cls-4" d="M198.42,71.25A1.54,1.54,0,1,0,200,72.79,1.54,1.54,0,0,0,198.42,71.25Z"/><path class="cls-4" d="M205,75.89a1.57,1.57,0,1,0,1.56,1.56A1.56,1.56,0,0,0,205,75.89Z"/><circle class="cls-4" cx="211.24" cy="82.46" r="1.59"/><path class="cls-4" d="M217.24,86.18a1.62,1.62,0,1,0,1.62,1.61A1.61,1.61,0,0,0,217.24,86.18Z"/><circle class="cls-4" cx="222.96" cy="93.43" r="1.61"/><path class="cls-4" d="M228.37,97.78A1.59,1.59,0,1,0,230,99.37,1.59,1.59,0,0,0,228.37,97.78Z"/><path class="cls-4" d="M233.46,104a1.59,1.59,0,1,0,1.59,1.59A1.59,1.59,0,0,0,233.46,104Z"/><path class="cls-4" d="M238.22,110.49a1.57,1.57,0,1,0,1.56,1.56A1.56,1.56,0,0,0,238.22,110.49Z"/><path class="cls-4" d="M242.62,117.26a1.51,1.51,0,1,0,1.52,1.51A1.51,1.51,0,0,0,242.62,117.26Z"/><path class="cls-4" d="M246.67,124.24a1.47,1.47,0,1,0,1.46,1.47A1.47,1.47,0,0,0,246.67,124.24Z"/><path class="cls-4" d="M250.34,131.43a1.42,1.42,0,1,0,1.42,1.42A1.42,1.42,0,0,0,250.34,131.43Z"/><path class="cls-4" d="M253.64,138.81a1.37,1.37,0,1,0,1.36,1.36A1.36,1.36,0,0,0,253.64,138.81Z"/><circle class="cls-4" cx="256.54" cy="147.66" r="1.32"/><circle class="cls-4" cx="259.04" cy="155.29" r="1.27"/><path class="cls-4" d="M261.13,161.85a1.2,1.2,0,1,0,1.2,1.2A1.2,1.2,0,0,0,261.13,161.85Z"/><circle class="cls-4" cx="262.82" cy="170.9" r="1.12"/><circle class="cls-4" cx="264.08" cy="178.83" r="1.04"/><circle class="cls-4" cx="264.93" cy="186.82" r="0.97"/><path class="cls-4" d="M265.35,194a.87.87,0,1,0,.87.87A.87.87,0,0,0,265.35,194Z"/><path class="cls-4" d="M265.35,202.07a.8.8,0,1,0,.8.8A.8.8,0,0,0,265.35,202.07Z"/><circle class="cls-4" cx="264.93" cy="210.89" r="0.72"/><path class="cls-4" d="M264.08,218.23a.65.65,0,1,0,.65.64A.64.64,0,0,0,264.08,218.23Z"/><path class="cls-4" d="M262.82,226.26a.55.55,0,0,0-.55.54.55.55,0,0,0,.55.55.55.55,0,0,0,.54-.55A.54.54,0,0,0,262.82,226.26Z"/><path class="cls-4" d="M261.13,234.18a.48.48,0,0,0-.47.48.47.47,0,0,0,.47.47.48.48,0,0,0,.48-.47A.49.49,0,0,0,261.13,234.18Z"/><path class="cls-4" d="M259,242a.4.4,0,1,0,.4.4A.4.4,0,0,0,259,242Z"/><circle class="cls-4" cx="256.54" cy="250.04" r="0.35"/><path class="cls-4" d="M253.64,257.26a.27.27,0,1,0,.27.27A.27.27,0,0,0,253.64,257.26Z"/><path class="cls-4" d="M250.34,264.63a.22.22,0,0,0-.22.22.23.23,0,1,0,.22-.22Z"/><circle class="cls-4" cx="246.67" cy="272" r="0.17"/><path class="cls-4" d="M242.62,278.81a.12.12,0,0,0-.12.12.12.12,0,0,0,.12.13.13.13,0,0,0,.13-.13A.12.12,0,0,0,242.62,278.81Z"/><path class="cls-4" d="M238.22,285.55a.09.09,0,0,0-.1.1.1.1,0,0,0,.1.1.1.1,0,0,0,.09-.1A.09.09,0,0,0,238.22,285.55Z"/><path class="cls-4" d="M233.46,292.07a.05.05,0,1,0,0,.05A0,0,0,0,0,233.46,292.07Z"/><path class="cls-4" d="M12.86,72.87a0,0,0,1,0,.05,0A0,0,0,0,0,12.86,72.87Z"/><path class="cls-4" d="M19.26,68a.07.07,0,0,0-.07.07.08.08,0,0,0,.07.08.09.09,0,0,0,.08-.08A.08.08,0,0,0,19.26,68Z"/><path class="cls-4" d="M25.9,63.42a.13.13,0,0,0-.13.13.12.12,0,0,0,.13.12.12.12,0,0,0,.12-.12A.12.12,0,0,0,25.9,63.42Z"/><circle class="cls-4" cx="32.75" cy="59.36" r="0.17"/><circle class="cls-4" cx="39.8" cy="55.52" r="0.22"/><path class="cls-4" d="M47,51.76a.27.27,0,0,0-.27.27.27.27,0,1,0,.54,0A.27.27,0,0,0,47,51.76Z"/><circle class="cls-4" cx="54.44" cy="48.91" r="0.35"/><path class="cls-4" d="M62,45.77a.4.4,0,0,0-.4.4.39.39,0,0,0,.4.39.38.38,0,0,0,.39-.39A.39.39,0,0,0,62,45.77Z"/><path class="cls-4" d="M69.66,43.33a.47.47,0,1,0,.47.47A.47.47,0,0,0,69.66,43.33Z"/><path class="cls-4" d="M77.44,41.27a.55.55,0,0,0-.54.55.54.54,0,0,0,.54.54.55.55,0,0,0,.55-.54A.55.55,0,0,0,77.44,41.27Z"/><path class="cls-4" d="M85.32,39.58a.65.65,0,1,0,.64.65A.65.65,0,0,0,85.32,39.58Z"/><circle class="cls-4" cx="93.26" cy="39.03" r="0.72"/><path class="cls-4" d="M101.25,37.44a.79.79,0,1,0,0,1.58.79.79,0,1,0,0-1.58Z"/><circle class="cls-4" cx="109.27" cy="37.83" r="0.89"/><path class="cls-4" d="M117.3,36.86a1,1,0,1,0,1,1A1,1,0,0,0,117.3,36.86Z"/><path class="cls-4" d="M125.32,37.19a1,1,0,1,0,1,1A1,1,0,0,0,125.32,37.19Z"/><circle class="cls-4" cx="133.31" cy="39.03" r="1.14"/><path class="cls-4" d="M141.25,39a1.22,1.22,0,1,0,1.22,1.22A1.22,1.22,0,0,0,141.25,39Z"/><circle class="cls-4" cx="149.13" cy="41.82" r="1.29"/><path class="cls-4" d="M156.91,42.44a1.36,1.36,0,1,0,1.36,1.36A1.37,1.37,0,0,0,156.91,42.44Z"/><path class="cls-4" d="M164.58,44.73A1.44,1.44,0,1,0,166,46.17,1.44,1.44,0,0,0,164.58,44.73Z"/><circle class="cls-4" cx="172.13" cy="48.91" r="1.51"/><path class="cls-4" d="M179.53,50.47A1.57,1.57,0,1,0,181.09,52,1.56,1.56,0,0,0,179.53,50.47Z"/><path class="cls-4" d="M186.77,53.88a1.64,1.64,0,1,0,1.64,1.64A1.63,1.63,0,0,0,186.77,53.88Z"/><path class="cls-4" d="M193.82,57.7a1.66,1.66,0,1,0,1.66,1.66A1.66,1.66,0,0,0,193.82,57.7Z"/><path class="cls-4" d="M200.67,61.83a1.72,1.72,0,1,0,1.72,1.72A1.72,1.72,0,0,0,200.67,61.83Z"/><path class="cls-4" d="M207.31,66.33a1.74,1.74,0,1,0,1.74,1.74A1.74,1.74,0,0,0,207.31,66.33Z"/><path class="cls-4" d="M213.71,71.16a1.76,1.76,0,1,0,1.76,1.76A1.76,1.76,0,0,0,213.71,71.16Z"/><path class="cls-4" d="M219.86,76.3a1.79,1.79,0,1,0,1.79,1.78A1.78,1.78,0,0,0,219.86,76.3Z"/><path class="cls-4" d="M225.75,81.76a1.79,1.79,0,1,0,1.79,1.79A1.79,1.79,0,0,0,225.75,81.76Z"/><path class="cls-4" d="M231.36,87.51a1.79,1.79,0,1,0,1.79,1.78A1.79,1.79,0,0,0,231.36,87.51Z"/><circle class="cls-4" cx="236.67" cy="95.32" r="1.79"/><path class="cls-4" d="M241.68,99.83a1.77,1.77,0,1,0,1.76,1.77A1.76,1.76,0,0,0,241.68,99.83Z"/><path class="cls-4" d="M246.37,106.38a1.74,1.74,0,1,0,1.74,1.74A1.74,1.74,0,0,0,246.37,106.38Z"/><path class="cls-4" d="M250.73,113.18a1.69,1.69,0,1,0,1.68,1.68A1.68,1.68,0,0,0,250.73,113.18Z"/><circle class="cls-4" cx="254.74" cy="121.82" r="1.66"/><circle class="cls-4" cx="258.41" cy="128.96" r="1.61"/><path class="cls-4" d="M261.71,134.75a1.54,1.54,0,1,0,1.54,1.54A1.54,1.54,0,0,0,261.71,134.75Z"/><circle class="cls-4" cx="264.64" cy="143.76" r="1.46"/><path class="cls-4" d="M267.2,150a1.42,1.42,0,1,0,1.41,1.41A1.41,1.41,0,0,0,267.2,150Z"/><circle class="cls-4" cx="269.38" cy="159.11" r="1.34"/><circle class="cls-4" cx="271.16" cy="166.94" r="1.27"/><path class="cls-4" d="M272.56,173.65a1.2,1.2,0,1,0,1.19,1.19A1.19,1.19,0,0,0,272.56,173.65Z"/><circle class="cls-4" cx="273.56" cy="182.81" r="1.09"/><path class="cls-4" d="M274.16,189.8a1,1,0,1,0,1,1A1,1,0,0,0,274.16,189.8Z"/><circle class="cls-4" cx="274.36" cy="198.85" r="0.92"/><path class="cls-4" d="M274.16,206a.84.84,0,1,0,.84.84A.84.84,0,0,0,274.16,206Z"/><circle class="cls-4" cx="273.56" cy="214.89" r="0.74"/><path class="cls-4" d="M272.56,222.19a.67.67,0,1,0,.67.67A.67.67,0,0,0,272.56,222.19Z"/><circle class="cls-4" cx="271.16" cy="230.77" r="0.6"/><path class="cls-4" d="M269.38,238.08a.52.52,0,0,0-.53.52.53.53,0,0,0,1,0A.52.52,0,0,0,269.38,238.08Z"/><path class="cls-4" d="M267.2,245.88a.45.45,0,1,0,.45.45A.45.45,0,0,0,267.2,245.88Z"/><path class="cls-4" d="M264.64,253.57a.37.37,0,0,0,0,.74.37.37,0,0,0,0-.74Z"/><path class="cls-4" d="M261.71,261.12a.3.3,0,1,0,0,.59.3.3,0,1,0,0-.59Z"/><path class="cls-4" d="M258.41,268.49a.25.25,0,0,0-.25.25.25.25,0,1,0,.49,0A.25.25,0,0,0,258.41,268.49Z"/><path class="cls-4" d="M254.74,275.69a.19.19,0,0,0-.2.19.2.2,0,1,0,.4,0A.19.19,0,0,0,254.74,275.69Z"/><path class="cls-4" d="M250.73,282.69a.15.15,0,1,0,0,.3.15.15,0,0,0,0-.3Z"/><path class="cls-4" d="M246.37,289.49a.09.09,0,0,0-.1.1.09.09,0,0,0,.1.09.1.1,0,0,0,.1-.09A.1.1,0,0,0,246.37,289.49Z"/><path class="cls-4" d="M7.28,65.87a.05.05,0,0,0,0,0,0,0,0,0,0,.1,0A.05.05,0,0,0,7.28,65.87Z"/><path class="cls-4" d="M13.68,61a.09.09,0,0,0-.1.1.1.1,0,0,0,.1.1.1.1,0,0,0,.09-.1A.09.09,0,0,0,13.68,61Z"/><path class="cls-4" d="M20.29,56.39a.12.12,0,0,0-.12.13.12.12,0,0,0,.12.12.13.13,0,0,0,.13-.12A.13.13,0,0,0,20.29,56.39Z"/><circle class="cls-4" cx="27.12" cy="52.28" r="0.17"/><circle class="cls-4" cx="34.14" cy="48.38" r="0.22"/><path class="cls-4" d="M41.33,44.51a.3.3,0,0,0-.3.3.31.31,0,0,0,.3.3.3.3,0,0,0,.3-.3A.29.29,0,0,0,41.33,44.51Z"/><circle class="cls-4" cx="48.69" cy="41.58" r="0.35"/><path class="cls-4" d="M56.18,38.28a.43.43,0,1,0,.43.43A.42.42,0,0,0,56.18,38.28Z"/><circle class="cls-4" cx="63.81" cy="36.19" r="0.5"/><circle class="cls-4" cx="71.55" cy="34.03" r="0.57"/><path class="cls-4" d="M79.38,31.6a.65.65,0,1,0,.64.65A.65.65,0,0,0,79.38,31.6Z"/><circle class="cls-4" cx="87.28" cy="30.83" r="0.74"/><path class="cls-4" d="M95.25,29a.82.82,0,1,0,.82.82A.82.82,0,0,0,95.25,29Z"/><circle class="cls-4" cx="103.25" cy="29.13" r="0.92"/><path class="cls-4" d="M111.28,27.85a1,1,0,1,0,1,1A1,1,0,0,0,111.28,27.85Z"/><circle class="cls-4" cx="119.31" cy="28.94" r="1.09"/><path class="cls-4" d="M127.33,28.22a1.19,1.19,0,1,0,1.19,1.19A1.19,1.19,0,0,0,127.33,28.22Z"/><circle class="cls-4" cx="135.31" cy="30.26" r="1.27"/><path class="cls-4" d="M143.25,30.13a1.37,1.37,0,1,0,1.36,1.36A1.36,1.36,0,0,0,143.25,30.13Z"/><circle class="cls-4" cx="151.12" cy="33.09" r="1.44"/><path class="cls-4" d="M158.9,33.55a1.52,1.52,0,1,0,1.52,1.52A1.52,1.52,0,0,0,158.9,33.55Z"/><path class="cls-4" d="M166.59,35.81a1.59,1.59,0,1,0,1.59,1.59A1.59,1.59,0,0,0,166.59,35.81Z"/><path class="cls-4" d="M174.15,38.44a1.66,1.66,0,1,0,1.66,1.66A1.66,1.66,0,0,0,174.15,38.44Z"/><path class="cls-4" d="M181.58,41.41a1.74,1.74,0,1,0,1.74,1.74A1.74,1.74,0,0,0,181.58,41.41Z"/><path class="cls-4" d="M188.86,44.76a1.79,1.79,0,1,0,1.78,1.79A1.79,1.79,0,0,0,188.86,44.76Z"/><circle class="cls-4" cx="195.97" cy="50.29" r="1.84"/><path class="cls-4" d="M202.89,52.47a1.89,1.89,0,1,0,1.89,1.89A1.89,1.89,0,0,0,202.89,52.47Z"/><path class="cls-4" d="M209.61,56.84a1.91,1.91,0,1,0,1.91,1.91A1.92,1.92,0,0,0,209.61,56.84Z"/><path class="cls-4" d="M216.12,61.52a1.94,1.94,0,1,0,1.94,1.94A1.93,1.93,0,0,0,216.12,61.52Z"/><path class="cls-4" d="M222.4,66.5a2,2,0,1,0,2,2A2,2,0,0,0,222.4,66.5Z"/><path class="cls-4" d="M228.44,71.78a2,2,0,1,0,2,2A2,2,0,0,0,228.44,71.78Z"/><path class="cls-4" d="M234.21,77.36a2,2,0,1,0,2,2A2,2,0,0,0,234.21,77.36Z"/><circle class="cls-4" cx="239.72" cy="85.19" r="1.96"/><path class="cls-4" d="M245,89.32a2,2,0,1,0,2,2A2,2,0,0,0,245,89.32Z"/><path class="cls-4" d="M249.88,95.69a1.94,1.94,0,1,0,1.94,1.93A1.92,1.92,0,0,0,249.88,95.69Z"/><path class="cls-4" d="M254.51,102.27a1.92,1.92,0,1,0,1.91,1.91A1.92,1.92,0,0,0,254.51,102.27Z"/><circle class="cls-4" cx="258.82" cy="110.96" r="1.86"/><path class="cls-4" d="M262.81,116.09a1.84,1.84,0,1,0,1.84,1.84A1.84,1.84,0,0,0,262.81,116.09Z"/><path class="cls-4" d="M266.47,123.3a1.79,1.79,0,1,0,1.78,1.78A1.79,1.79,0,0,0,266.47,123.3Z"/><path class="cls-4" d="M269.78,130.69a1.71,1.71,0,1,0,1.71,1.71A1.7,1.7,0,0,0,269.78,130.69Z"/><circle class="cls-4" cx="272.74" cy="139.86" r="1.66"/><path class="cls-4" d="M275.35,145.87a1.59,1.59,0,1,0,1.59,1.59A1.59,1.59,0,0,0,275.35,145.87Z"/><path class="cls-4" d="M277.6,153.68a1.49,1.49,0,1,0,1.49,1.49A1.49,1.49,0,0,0,277.6,153.68Z"/><path class="cls-4" d="M279.48,161.56a1.42,1.42,0,1,0,0,2.83,1.42,1.42,0,0,0,0-2.83Z"/><circle class="cls-4" cx="280.99" cy="170.87" r="1.34"/><path class="cls-4" d="M282.12,177.58a1.24,1.24,0,1,0,1.24,1.24A1.23,1.23,0,0,0,282.12,177.58Z"/><path class="cls-4" d="M282.88,185.65a1.17,1.17,0,1,0,1.16,1.16A1.16,1.16,0,0,0,282.88,185.65Z"/><circle class="cls-4" cx="283.26" cy="194.84" r="1.07"/><path class="cls-4" d="M283.26,201.9a1,1,0,1,0,1,1A1,1,0,0,0,283.26,201.9Z"/><path class="cls-4" d="M282.88,210a.89.89,0,1,0,.89.89A.89.89,0,0,0,282.88,210Z"/><path class="cls-4" d="M282.12,218.09a.8.8,0,1,0,.79.79A.79.79,0,0,0,282.12,218.09Z"/><circle class="cls-4" cx="280.99" cy="226.84" r="0.72"/><path class="cls-4" d="M279.48,234.08a.65.65,0,1,0,.64.64A.65.65,0,0,0,279.48,234.08Z"/><path class="cls-4" d="M277.6,242a.55.55,0,0,0-.55.54.55.55,0,0,0,.55.55.55.55,0,0,0,.54-.55A.54.54,0,0,0,277.6,242Z"/><path class="cls-4" d="M275.35,249.77a.47.47,0,1,0,.47.47A.47.47,0,0,0,275.35,249.77Z"/><circle class="cls-4" cx="272.74" cy="257.84" r="0.4"/><circle class="cls-4" cx="269.78" cy="265.3" r="0.32"/><path class="cls-4" d="M266.47,272.35a.27.27,0,1,0,0,.54.27.27,0,0,0,0-.54Z"/><path class="cls-4" d="M262.81,279.55a.22.22,0,1,0,0,.44.22.22,0,1,0,0-.44Z"/><path class="cls-4" d="M258.82,286.57a.18.18,0,0,0-.17.17.18.18,0,0,0,.17.18.18.18,0,0,0,.18-.18A.18.18,0,0,0,258.82,286.57Z"/><path class="cls-4" d="M254.51,293.39a.12.12,0,0,0-.12.13.12.12,0,0,0,.12.12.12.12,0,0,0,.13-.12A.13.13,0,0,0,254.51,293.39Z"/><path class="cls-4" d="M8.09,54a.11.11,0,0,0-.1.1.1.1,0,0,0,.1.1.09.09,0,0,0,.1-.1A.1.1,0,0,0,8.09,54Z"/><circle class="cls-4" cx="14.69" cy="49.49" r="0.15"/><path class="cls-4" d="M21.49,45a.18.18,0,0,0-.17.18.18.18,0,0,0,.17.17.18.18,0,0,0,.18-.17A.18.18,0,0,0,21.49,45Z"/><path class="cls-4" d="M28.48,41a.25.25,0,0,0-.25.25.25.25,0,0,0,.25.25.25.25,0,0,0,.25-.25A.26.26,0,0,0,28.48,41Z"/><path class="cls-4" d="M35.63,37.31a.3.3,0,1,0,.3.3A.29.29,0,0,0,35.63,37.31Z"/><circle class="cls-4" cx="42.95" cy="34.28" r="0.35"/><path class="cls-4" d="M50.4,30.87a.43.43,0,1,0,.42.43A.42.42,0,0,0,50.4,30.87Z"/><path class="cls-4" d="M58,28.15a.5.5,0,1,0,.5.49A.49.49,0,0,0,58,28.15Z"/><path class="cls-4" d="M65.67,25.74a.58.58,0,0,0-.59.59.59.59,0,0,0,.59.6.6.6,0,0,0,.6-.6A.59.59,0,0,0,65.67,25.74Z"/><path class="cls-4" d="M73.46,23.7a.67.67,0,1,0,.67.67A.67.67,0,0,0,73.46,23.7Z"/><path class="cls-4" d="M81.33,22a.76.76,0,0,0-.75.75.75.75,0,0,0,.75.74.74.74,0,0,0,.74-.74A.75.75,0,0,0,81.33,22Z"/><path class="cls-4" d="M89.26,20.66a.85.85,0,1,0,.85.84A.85.85,0,0,0,89.26,20.66Z"/><path class="cls-4" d="M97.24,19.66a.95.95,0,0,0,0,1.89.95.95,0,1,0,0-1.89Z"/><path class="cls-4" d="M105.26,19a1,1,0,1,0,1,1A1,1,0,0,0,105.26,19Z"/><circle class="cls-4" cx="113.29" cy="19.88" r="1.12"/><path class="cls-4" d="M121.31,18.85a1.22,1.22,0,1,0,1.22,1.21A1.21,1.21,0,0,0,121.31,18.85Z"/><path class="cls-4" d="M129.33,19.29a1.32,1.32,0,1,0,1.31,1.31A1.32,1.32,0,0,0,129.33,19.29Z"/><path class="cls-4" d="M137.31,20.09a1.42,1.42,0,1,0,1.41,1.41A1.42,1.42,0,0,0,137.31,20.09Z"/><path class="cls-4" d="M145.24,21.27a1.49,1.49,0,1,0,1.49,1.49A1.49,1.49,0,0,0,145.24,21.27Z"/><path class="cls-4" d="M153.11,22.78a1.59,1.59,0,1,0,1.59,1.59A1.59,1.59,0,0,0,153.11,22.78Z"/><path class="cls-4" d="M160.9,24.65a1.69,1.69,0,1,0,1.68,1.68A1.69,1.69,0,0,0,160.9,24.65Z"/><path class="cls-4" d="M168.59,26.88a1.76,1.76,0,1,0,1.76,1.76A1.76,1.76,0,0,0,168.59,26.88Z"/><circle class="cls-4" cx="176.17" cy="31.29" r="1.84"/><path class="cls-4" d="M183.62,32.4a1.89,1.89,0,1,0,1.89,1.88A1.88,1.88,0,0,0,183.62,32.4Z"/><path class="cls-4" d="M190.94,35.65a2,2,0,1,0,2,2A2,2,0,0,0,190.94,35.65Z"/><circle class="cls-4" cx="198.09" cy="41.25" r="2.01"/><path class="cls-4" d="M205.08,43.16a2.06,2.06,0,1,0,2.06,2.06A2.06,2.06,0,0,0,205.08,43.16Z"/><path class="cls-4" d="M211.88,47.4A2.09,2.09,0,1,0,214,49.49,2.1,2.1,0,0,0,211.88,47.4Z"/><path class="cls-4" d="M218.48,52a2.11,2.11,0,1,0,2.11,2.11A2.11,2.11,0,0,0,218.48,52Z"/><path class="cls-4" d="M224.87,56.79A2.14,2.14,0,1,0,227,58.93,2.13,2.13,0,0,0,224.87,56.79Z"/><circle class="cls-4" cx="231.03" cy="64.08" r="2.16"/><path class="cls-4" d="M237,67.34a2.16,2.16,0,1,0,2.16,2.15A2.16,2.16,0,0,0,237,67.34Z"/><path class="cls-4" d="M242.64,73a2.16,2.16,0,1,0,2.16,2.16A2.16,2.16,0,0,0,242.64,73Z"/><circle class="cls-4" cx="248.06" cy="81.1" r="2.16"/><path class="cls-4" d="M253.21,85.13a2.14,2.14,0,1,0,2.13,2.14A2.14,2.14,0,0,0,253.21,85.13Z"/><path class="cls-4" d="M258.07,91.55a2.11,2.11,0,1,0,2.11,2.11A2.11,2.11,0,0,0,258.07,91.55Z"/><path class="cls-4" d="M262.65,98.17a2.09,2.09,0,1,0,2.08,2.09A2.1,2.1,0,0,0,262.65,98.17Z"/><path class="cls-4" d="M266.92,105a2.06,2.06,0,1,0,2.06,2.06A2.06,2.06,0,0,0,266.92,105Z"/><circle class="cls-4" cx="270.88" cy="114.04" r="2.01"/><path class="cls-4" d="M274.53,119.24a2,2,0,1,0,2,2A2,2,0,0,0,274.53,119.24Z"/><path class="cls-4" d="M277.85,126.63a1.89,1.89,0,1,0,1.89,1.88A1.88,1.88,0,0,0,277.85,126.63Z"/><circle class="cls-4" cx="280.84" cy="135.97" r="1.84"/><path class="cls-4" d="M283.49,141.78a1.77,1.77,0,1,0,1.77,1.77A1.76,1.76,0,0,0,283.49,141.78Z"/><path class="cls-4" d="M285.8,149.55a1.69,1.69,0,1,0,1.69,1.69A1.69,1.69,0,0,0,285.8,149.55Z"/><path class="cls-4" d="M287.77,157.44a1.59,1.59,0,1,0,1.58,1.59A1.59,1.59,0,0,0,287.77,157.44Z"/><path class="cls-4" d="M289.38,165.41a1.49,1.49,0,1,0,1.49,1.48A1.48,1.48,0,0,0,289.38,165.41Z"/><path class="cls-4" d="M290.63,173.41a1.42,1.42,0,1,0,1.42,1.42A1.42,1.42,0,0,0,290.63,173.41Z"/><circle class="cls-4" cx="291.53" cy="182.81" r="1.32"/><path class="cls-4" d="M292.07,189.61a1.22,1.22,0,0,0,0,2.43,1.22,1.22,0,1,0,0-2.43Z"/><path class="cls-4" d="M292.25,197.73a1.12,1.12,0,1,0,1.12,1.12A1.12,1.12,0,0,0,292.25,197.73Z"/><path class="cls-4" d="M292.07,205.84a1,1,0,1,0,1,1A1,1,0,0,0,292.07,205.84Z"/><circle class="cls-4" cx="291.53" cy="214.89" r="0.94"/><path class="cls-4" d="M290.63,222a.85.85,0,1,0,.85.84A.85.85,0,0,0,290.63,222Z"/><path class="cls-4" d="M289.38,230.06a.76.76,0,0,0-.75.75.75.75,0,0,0,.75.74.74.74,0,0,0,.74-.74A.75.75,0,0,0,289.38,230.06Z"/><path class="cls-4" d="M287.77,238a.67.67,0,1,0,.67.67A.66.66,0,0,0,287.77,238Z"/><path class="cls-4" d="M285.8,245.87a.58.58,0,0,0-.59.59.59.59,0,0,0,.59.6.6.6,0,0,0,.6-.6A.59.59,0,0,0,285.8,245.87Z"/><path class="cls-4" d="M283.49,253.66a.5.5,0,1,0,.5.49A.49.49,0,0,0,283.49,253.66Z"/><path class="cls-4" d="M280.84,261.31a.43.43,0,1,0,.42.43A.42.42,0,0,0,280.84,261.31Z"/><path class="cls-4" d="M277.85,268.84a.35.35,0,1,0,.35.35A.35.35,0,0,0,277.85,268.84Z"/><path class="cls-4" d="M274.53,276.2a.31.31,0,0,0-.3.3.3.3,0,1,0,.6,0A.31.31,0,0,0,274.53,276.2Z"/><path class="cls-4" d="M270.88,283.41a.25.25,0,1,0,.25.25A.25.25,0,0,0,270.88,283.41Z"/><circle class="cls-4" cx="266.92" cy="290.64" r="0.17"/><path class="cls-4" d="M9.09,42.32a.15.15,0,0,0-.15.15.15.15,0,0,0,.15.14.14.14,0,0,0,.15-.14A.14.14,0,0,0,9.09,42.32Z"/><circle class="cls-4" cx="15.87" cy="38.16" r="0.2"/><path class="cls-4" d="M22.83,33.89a.25.25,0,1,0,.24.25A.25.25,0,0,0,22.83,33.89Z"/><path class="cls-4" d="M30,30.13a.3.3,0,1,0,0,.59.3.3,0,0,0,0-.59Z"/><circle class="cls-4" cx="37.22" cy="27.02" r="0.37"/><path class="cls-4" d="M44.63,23.48a.45.45,0,1,0,.45.44A.44.44,0,0,0,44.63,23.48Z"/><path class="cls-4" d="M52.17,20.63a.52.52,0,1,0,.52.52A.52.52,0,0,0,52.17,20.63Z"/><path class="cls-4" d="M59.82,18.11a.59.59,0,0,0-.6.59.6.6,0,0,0,.6.6.59.59,0,0,0,.59-.6A.58.58,0,0,0,59.82,18.11Z"/><path class="cls-4" d="M67.56,15.89a.7.7,0,1,0,.7.69A.69.69,0,0,0,67.56,15.89Z"/><circle class="cls-4" cx="75.39" cy="14.79" r="0.77"/><circle class="cls-4" cx="83.29" cy="13.34" r="0.87"/><path class="cls-4" d="M91.25,11.26a1,1,0,1,0,1,1A1,1,0,0,0,91.25,11.26Z"/><circle class="cls-4" cx="99.24" cy="11.46" r="1.07"/><path class="cls-4" d="M107.26,9.86A1.17,1.17,0,1,0,108.43,11,1.17,1.17,0,0,0,107.26,9.86Z"/><circle class="cls-4" cx="115.29" cy="10.95" r="1.27"/><path class="cls-4" d="M123.32,9.84a1.37,1.37,0,1,0,1.37,1.36A1.36,1.36,0,0,0,123.32,9.84Z"/><circle class="cls-4" cx="131.33" cy="11.8" r="1.46"/><path class="cls-4" d="M139.31,11.18a1.57,1.57,0,1,0,1.56,1.56A1.56,1.56,0,0,0,139.31,11.18Z"/><circle class="cls-4" cx="147.23" cy="14.03" r="1.66"/><path class="cls-4" d="M155.1,13.91a1.74,1.74,0,1,0,1.74,1.74A1.74,1.74,0,0,0,155.1,13.91Z"/><circle class="cls-4" cx="162.89" cy="17.6" r="1.84"/><path class="cls-4" d="M170.59,18a1.92,1.92,0,1,0,1.91,1.92A1.91,1.91,0,0,0,170.59,18Z"/><path class="cls-4" d="M178.18,20.51a2,2,0,1,0,2,2A2,2,0,0,0,178.18,20.51Z"/><path class="cls-4" d="M185.66,23.37a2.06,2.06,0,1,0,2.06,2.06A2.06,2.06,0,0,0,185.66,23.37Z"/><path class="cls-4" d="M193,26.57a2.11,2.11,0,1,0,2.1,2.11A2.11,2.11,0,0,0,193,26.57Z"/><circle class="cls-4" cx="200.2" cy="32.24" r="2.18"/><path class="cls-4" d="M207.24,33.88a2.23,2.23,0,1,0,2.24,2.23A2.23,2.23,0,0,0,207.24,33.88Z"/><path class="cls-4" d="M214.11,38a2.29,2.29,0,1,0,2.28,2.28A2.28,2.28,0,0,0,214.11,38Z"/><path class="cls-4" d="M220.8,42.42a2.31,2.31,0,1,0,2.3,2.31A2.3,2.3,0,0,0,220.8,42.42Z"/><path class="cls-4" d="M227.28,47.13a2.33,2.33,0,1,0,2.34,2.33A2.33,2.33,0,0,0,227.28,47.13Z"/><circle class="cls-4" cx="233.56" cy="54.47" r="2.36"/><path class="cls-4" d="M239.62,57.36A2.38,2.38,0,1,0,242,59.74,2.39,2.39,0,0,0,239.62,57.36Z"/><circle class="cls-4" cx="245.45" cy="65.27" r="2.38"/><path class="cls-4" d="M251,68.65A2.39,2.39,0,1,0,253.42,71,2.38,2.38,0,0,0,251,68.65Z"/><circle class="cls-4" cx="256.37" cy="77.04" r="2.36"/><circle class="cls-4" cx="261.45" cy="83.26" r="2.36"/><path class="cls-4" d="M266.25,87.39a2.31,2.31,0,1,0,2.31,2.31A2.32,2.32,0,0,0,266.25,87.39Z"/><path class="cls-4" d="M270.78,94.05a2.29,2.29,0,1,0,2.28,2.29A2.29,2.29,0,0,0,270.78,94.05Z"/><path class="cls-4" d="M275,100.93a2.23,2.23,0,1,0,2.24,2.23A2.23,2.23,0,0,0,275,100.93Z"/><circle class="cls-4" cx="278.95" cy="110.16" r="2.18"/><path class="cls-4" d="M282.59,115.18a2.14,2.14,0,1,0,2.14,2.14A2.13,2.13,0,0,0,282.59,115.18Z"/><path class="cls-4" d="M285.92,122.57a2.06,2.06,0,1,0,2.06,2.06A2.06,2.06,0,0,0,285.92,122.57Z"/><circle class="cls-4" cx="288.93" cy="132.07" r="2.01"/><path class="cls-4" d="M291.63,137.7a1.94,1.94,0,1,0,1.93,1.94A1.94,1.94,0,0,0,291.63,137.7Z"/><path class="cls-4" d="M294,145.45a1.86,1.86,0,1,0,1.86,1.86A1.87,1.87,0,0,0,294,145.45Z"/><path class="cls-4" d="M296,153.32a1.76,1.76,0,1,0,1.76,1.76A1.76,1.76,0,0,0,296,153.32Z"/><circle class="cls-4" cx="297.74" cy="162.93" r="1.69"/><path class="cls-4" d="M299.1,169.26a1.59,1.59,0,1,0,1.59,1.58A1.59,1.59,0,0,0,299.1,169.26Z"/><circle class="cls-4" cx="300.13" cy="178.81" r="1.49"/><path class="cls-4" d="M300.82,185.42a1.39,1.39,0,1,0,1.38,1.39A1.39,1.39,0,0,0,300.82,185.42Z"/><path class="cls-4" d="M301.16,193.54a1.3,1.3,0,1,0,1.29,1.3A1.3,1.3,0,0,0,301.16,193.54Z"/><path class="cls-4" d="M301.16,201.68a1.19,1.19,0,1,0,1.19,1.19A1.19,1.19,0,0,0,301.16,201.68Z"/><circle class="cls-4" cx="300.82" cy="210.89" r="1.09"/><path class="cls-4" d="M300.13,217.9a1,1,0,1,0,1,1A1,1,0,0,0,300.13,217.9Z"/><circle class="cls-4" cx="299.1" cy="226.86" r="0.89"/><path class="cls-4" d="M297.74,234a.79.79,0,0,0-.8.79.8.8,0,1,0,1.59,0A.79.79,0,0,0,297.74,234Z"/><path class="cls-4" d="M296,241.93a.7.7,0,1,0,.7.69A.69.69,0,0,0,296,241.93Z"/><path class="cls-4" d="M294,249.77a.62.62,0,0,0,0,1.24.62.62,0,1,0,0-1.24Z"/><circle class="cls-4" cx="291.63" cy="258.06" r="0.55"/><path class="cls-4" d="M288.93,265.18a.45.45,0,1,0,.45.45A.45.45,0,0,0,288.93,265.18Z"/><circle class="cls-4" cx="285.92" cy="273.08" r="0.37"/><path class="cls-4" d="M282.59,280.06a.33.33,0,1,0,.32.32A.32.32,0,0,0,282.59,280.06Z"/><path class="cls-4" d="M279,287.3a.25.25,0,0,0,0,.49.25.25,0,1,0,0-.49Z"/><path class="cls-4" d="M275,294.34a.2.2,0,1,0,.2.2A.2.2,0,0,0,275,294.34Z"/><circle class="cls-4" cx="10.25" cy="31.1" r="0.2"/><path class="cls-4" d="M17.18,26.79a.25.25,0,1,0,.25.25A.25.25,0,0,0,17.18,26.79Z"/><circle class="cls-4" cx="24.27" cy="23.26" r="0.32"/><circle class="cls-4" cx="31.5" cy="19.78" r="0.37"/><path class="cls-4" d="M38.88,16.14a.45.45,0,1,0,.44.45A.45.45,0,0,0,38.88,16.14Z"/><path class="cls-4" d="M46.37,13.19a.52.52,0,0,0-.52.52.53.53,0,0,0,.52.52.52.52,0,0,0,.52-.52A.52.52,0,0,0,46.37,13.19Z"/><path class="cls-4" d="M54,10.51a.62.62,0,1,0,.62.62A.62.62,0,0,0,54,10.51Z"/><circle class="cls-4" cx="61.69" cy="8.87" r="0.69"/><path class="cls-4" d="M69.48,6.13a.79.79,0,0,0-.8.79.8.8,0,0,0,.8.8.79.79,0,0,0,.79-.8A.79.79,0,0,0,69.48,6.13Z"/><circle class="cls-4" cx="77.34" cy="5.29" r="0.89"/><path class="cls-4" d="M85.27,3a1,1,0,1,0,1,1A1,1,0,0,0,85.27,3Z"/><circle class="cls-4" cx="93.24" cy="3.01" r="1.09"/><path class="cls-4" d="M101.24,1.16a1.2,1.2,0,1,0,1.2,1.19A1.2,1.2,0,0,0,101.24,1.16Z"/><path class="cls-4" d="M109.27.74A1.29,1.29,0,1,0,110.56,2,1.29,1.29,0,0,0,109.27.74Z"/><path class="cls-4" d="M117.3.64A1.39,1.39,0,1,0,118.69,2,1.39,1.39,0,0,0,117.3.64Z"/><path class="cls-4" d="M125.33.84a1.52,1.52,0,1,0,1.51,1.51A1.52,1.52,0,0,0,125.33.84Z"/><circle class="cls-4" cx="133.33" cy="3.01" r="1.61"/><path class="cls-4" d="M141.3,2.28A1.71,1.71,0,1,0,143,4,1.71,1.71,0,0,0,141.3,2.28Z"/><circle class="cls-4" cx="149.23" cy="5.29" r="1.81"/><path class="cls-4" d="M157.09,5A1.91,1.91,0,1,0,159,6.92,1.92,1.92,0,0,0,157.09,5Z"/><circle class="cls-4" cx="164.88" cy="8.87" r="1.99"/><path class="cls-4" d="M172.59,9.05a2.09,2.09,0,1,0,2.08,2.08A2.08,2.08,0,0,0,172.59,9.05Z"/><circle class="cls-4" cx="180.2" cy="13.71" r="2.16"/><path class="cls-4" d="M187.69,14.36a2.23,2.23,0,1,0,2.24,2.23A2.23,2.23,0,0,0,187.69,14.36Z"/><path class="cls-4" d="M195.07,17.47a2.31,2.31,0,1,0,2.3,2.31A2.3,2.3,0,0,0,195.07,17.47Z"/><circle class="cls-4" cx="202.3" cy="23.26" r="2.36"/><path class="cls-4" d="M209.39,24.61A2.43,2.43,0,1,0,211.82,27,2.43,2.43,0,0,0,209.39,24.61Z"/><path class="cls-4" d="M216.32,28.62a2.48,2.48,0,1,0,2.48,2.48A2.48,2.48,0,0,0,216.32,28.62Z"/><circle class="cls-4" cx="223.07" cy="35.44" r="2.51"/><circle class="cls-4" cx="229.65" cy="40.06" r="2.56"/><path class="cls-4" d="M236,42.36a2.58,2.58,0,1,0,2.58,2.58A2.57,2.57,0,0,0,236,42.36Z"/><path class="cls-4" d="M242.2,47.47a2.61,2.61,0,1,0,2.61,2.6A2.6,2.6,0,0,0,242.2,47.47Z"/><path class="cls-4" d="M248.17,52.85a2.61,2.61,0,1,0,2.6,2.6A2.6,2.6,0,0,0,248.17,52.85Z"/><path class="cls-4" d="M253.9,58.47a2.61,2.61,0,1,0,2.61,2.6A2.59,2.59,0,0,0,253.9,58.47Z"/><path class="cls-4" d="M259.4,64.32a2.61,2.61,0,1,0,2.61,2.6A2.6,2.6,0,0,0,259.4,64.32Z"/><path class="cls-4" d="M264.66,70.41A2.58,2.58,0,1,0,267.24,73,2.59,2.59,0,0,0,264.66,70.41Z"/><circle class="cls-4" cx="269.67" cy="79.27" r="2.56"/><circle class="cls-4" cx="274.42" cy="85.75" r="2.53"/><path class="cls-4" d="M278.9,89.91a2.51,2.51,0,1,0,2.5,2.51A2.51,2.51,0,0,0,278.9,89.91Z"/><path class="cls-4" d="M283.1,96.8a2.46,2.46,0,1,0,2.46,2.46A2.46,2.46,0,0,0,283.1,96.8Z"/><circle class="cls-4" cx="287.02" cy="106.27" r="2.38"/><path class="cls-4" d="M290.65,111.1a2.34,2.34,0,1,0,2.34,2.33A2.34,2.34,0,0,0,290.65,111.1Z"/><path class="cls-4" d="M294,118.48a2.26,2.26,0,1,0,2.26,2.26A2.26,2.26,0,0,0,294,118.48Z"/><circle class="cls-4" cx="297.03" cy="128.18" r="2.18"/><path class="cls-4" d="M299.76,133.62a2.11,2.11,0,1,0,2.1,2.11A2.1,2.1,0,0,0,299.76,133.62Z"/><circle class="cls-4" cx="302.18" cy="143.39" r="2.03"/><path class="cls-4" d="M304.28,149.18a2,2,0,1,0,2,2A2,2,0,0,0,304.28,149.18Z"/><path class="cls-4" d="M306.07,157.11a1.86,1.86,0,1,0,1.86,1.86A1.86,1.86,0,0,0,306.07,157.11Z"/><path class="cls-4" d="M307.53,165.1a1.77,1.77,0,1,0,1.77,1.77A1.76,1.76,0,0,0,307.53,165.1Z"/><circle class="cls-4" cx="308.68" cy="174.81" r="1.66"/><path class="cls-4" d="M309.49,181.24a1.57,1.57,0,1,0,1.57,1.56A1.56,1.56,0,0,0,309.49,181.24Z"/><path class="cls-4" d="M310,189.38a1.44,1.44,0,1,0,1.44,1.44A1.44,1.44,0,0,0,310,189.38Z"/><path class="cls-4" d="M310.15,197.51a1.34,1.34,0,1,0,1.34,1.34A1.34,1.34,0,0,0,310.15,197.51Z"/><circle class="cls-4" cx="309.99" cy="206.88" r="1.24"/><path class="cls-4" d="M309.49,213.76a1.14,1.14,0,1,0,1.15,1.14A1.14,1.14,0,0,0,309.49,213.76Z"/><path class="cls-4" d="M308.68,221.84a1,1,0,1,0,1,1A1,1,0,0,0,308.68,221.84Z"/><circle class="cls-4" cx="307.53" cy="230.84" r="0.94"/><path class="cls-4" d="M306.07,237.89a.85.85,0,1,0,.84.84A.85.85,0,0,0,306.07,237.89Z"/><circle class="cls-4" cx="304.28" cy="246.56" r="0.74"/><path class="cls-4" d="M302.18,253.64a.67.67,0,1,0,.67.67A.67.67,0,0,0,302.18,253.64Z"/><path class="cls-4" d="M299.76,261.4a.57.57,0,0,0-.57.57.56.56,0,0,0,.57.57.57.57,0,0,0,.57-.57A.58.58,0,0,0,299.76,261.4Z"/><path class="cls-4" d="M297,269a.5.5,0,1,0,.49.5A.5.5,0,0,0,297,269Z"/><path class="cls-4" d="M294,276.54a.42.42,0,1,0,.42.42A.42.42,0,0,0,294,276.54Z"/><path class="cls-4" d="M290.65,283.92a.35.35,0,0,0-.34.35.35.35,0,0,0,.69,0A.35.35,0,0,0,290.65,283.92Z"/><path class="cls-4" d="M287,291.16a.27.27,0,0,0,0,.54.27.27,0,1,0,0-.54Z"/><path class="cls-4" d="M283.1,298.22a.22.22,0,1,0,.22.22A.22.22,0,0,0,283.1,298.22Z"/><path class="cls-4" d="M11.54,19.7a.25.25,0,1,0,.25.25A.25.25,0,0,0,11.54,19.7Z"/><path class="cls-4" d="M18.6,15.79a.32.32,0,0,0-.32.32.32.32,0,1,0,.64,0A.32.32,0,0,0,18.6,15.79Z"/><circle class="cls-4" cx="25.8" cy="12.56" r="0.37"/><path class="cls-4" d="M33.13,8.81a.48.48,0,0,0-.47.48.48.48,0,0,0,1,0A.48.48,0,0,0,33.13,8.81Z"/><circle class="cls-4" cx="40.59" cy="6.3" r="0.55"/><path class="cls-4" d="M48.16,3a.65.65,0,1,0,.64.64A.64.64,0,0,0,48.16,3Z"/><circle class="cls-4" cx="55.83" cy="1.22" r="0.72"/><path class="cls-4" d="M164.73,0c0,.05,0,.09,0,.14a2.16,2.16,0,0,0,2.16,2.16A2.16,2.16,0,0,0,169,.14c0-.05,0-.09,0-.14Z"/><path class="cls-4" d="M174.59.15a2.23,2.23,0,1,0,2.23,2.23A2.23,2.23,0,0,0,174.59.15Z"/><path class="cls-4" d="M182.21,2.59a2.33,2.33,0,1,0,2.33,2.33A2.33,2.33,0,0,0,182.21,2.59Z"/><circle class="cls-4" cx="189.72" cy="7.76" r="2.41"/><path class="cls-4" d="M197.12,8.4a2.49,2.49,0,1,0,2.48,2.49A2.49,2.49,0,0,0,197.12,8.4Z"/><circle class="cls-4" cx="204.39" cy="14.3" r="2.56"/><path class="cls-4" d="M211.52,15.36A2.64,2.64,0,1,0,214.15,18,2.63,2.63,0,0,0,211.52,15.36Z"/><path class="cls-4" d="M218.5,19.29A2.68,2.68,0,1,0,221.18,22,2.68,2.68,0,0,0,218.5,19.29Z"/><circle class="cls-4" cx="225.32" cy="26.21" r="2.73"/><path class="cls-4" d="M232,27.93a2.78,2.78,0,1,0,2.78,2.78A2.78,2.78,0,0,0,232,27.93Z"/><path class="cls-4" d="M238.44,32.66a2.81,2.81,0,1,0,2.81,2.81A2.8,2.8,0,0,0,238.44,32.66Z"/><path class="cls-4" d="M244.72,37.65a2.83,2.83,0,1,0,2.83,2.82A2.83,2.83,0,0,0,244.72,37.65Z"/><path class="cls-4" d="M250.8,42.89a2.83,2.83,0,1,0,2.83,2.83A2.83,2.83,0,0,0,250.8,42.89Z"/><path class="cls-4" d="M256.67,48.35a2.86,2.86,0,1,0,2.86,2.85A2.86,2.86,0,0,0,256.67,48.35Z"/><path class="cls-4" d="M262.32,54.06a2.86,2.86,0,1,0,2.86,2.85A2.86,2.86,0,0,0,262.32,54.06Z"/><path class="cls-4" d="M267.75,60a2.83,2.83,0,1,0,2.83,2.82A2.83,2.83,0,0,0,267.75,60Z"/><path class="cls-4" d="M272.94,66.14A2.83,2.83,0,1,0,275.77,69,2.82,2.82,0,0,0,272.94,66.14Z"/><path class="cls-4" d="M277.88,72.49a2.81,2.81,0,1,0,2.81,2.8A2.8,2.8,0,0,0,277.88,72.49Z"/><circle class="cls-4" cx="282.58" cy="81.81" r="2.75"/><path class="cls-4" d="M287,85.8a2.71,2.71,0,1,0,2.7,2.7A2.7,2.7,0,0,0,287,85.8Z"/><path class="cls-4" d="M291.19,92.71a2.66,2.66,0,1,0,2.65,2.66A2.66,2.66,0,0,0,291.19,92.71Z"/><path class="cls-4" d="M295.09,99.78a2.61,2.61,0,1,0,2.61,2.61A2.6,2.6,0,0,0,295.09,99.78Z"/><circle class="cls-4" cx="298.72" cy="109.55" r="2.53"/><path class="cls-4" d="M302.06,114.37a2.49,2.49,0,1,0,2.48,2.48A2.48,2.48,0,0,0,302.06,114.37Z"/><path class="cls-4" d="M305.11,121.88a2.41,2.41,0,1,0,2.41,2.4A2.4,2.4,0,0,0,305.11,121.88Z"/><path class="cls-4" d="M307.88,129.52a2.31,2.31,0,1,0,2.31,2.3A2.3,2.3,0,0,0,307.88,129.52Z"/><path class="cls-4" d="M312.54,139.35a2.22,2.22,0,1,0,0,.23Z"/><path class="cls-4" d="M312.54,145.07h0a2.13,2.13,0,1,0,0,4.26h0Z"/><path class="cls-4" d="M310.34,257.54a.7.7,0,1,0,.7.69A.69.69,0,0,0,310.34,257.54Z"/><path class="cls-4" d="M307.88,265.26a.62.62,0,1,0,.62.62A.62.62,0,0,0,307.88,265.26Z"/><path class="cls-4" d="M305.11,272.9a.52.52,0,1,0,.53.52A.52.52,0,0,0,305.11,272.9Z"/><path class="cls-4" d="M302.06,280.4a.45.45,0,1,0,.45.45A.45.45,0,0,0,302.06,280.4Z"/><circle class="cls-4" cx="298.72" cy="288.15" r="0.37"/><path class="cls-4" d="M295.09,295a.3.3,0,1,0,0,.59.3.3,0,1,0,0-.59Z"/><circle class="cls-4" cx="291.19" cy="302.34" r="0.25"/><path class="cls-4" d="M5.9,12.59a.27.27,0,1,0,.28.27A.27.27,0,0,0,5.9,12.59Z"/><path class="cls-4" d="M12.93,8.65a.33.33,0,0,0-.32.33.33.33,0,0,0,.65,0A.33.33,0,0,0,12.93,8.65Z"/><path class="cls-4" d="M20.1,5a.39.39,0,0,0-.39.4.38.38,0,0,0,.39.39.39.39,0,0,0,.4-.39A.4.4,0,0,0,20.1,5Z"/><path class="cls-4" d="M27.4,1.54a.47.47,0,0,0,0,.94.47.47,0,1,0,0-.94Z"/><path class="cls-4" d="M189.37,0a2.61,2.61,0,0,0,2.38,1.54A2.6,2.6,0,0,0,194.12,0Z"/><path class="cls-4" d="M200.92,0h-3.51a2.69,2.69,0,1,0,3.51,0Z"/><circle class="cls-4" cx="206.47" cy="5.36" r="2.75"/><path class="cls-4" d="M213.64,6.15A2.83,2.83,0,1,0,216.47,9,2.82,2.82,0,0,0,213.64,6.15Z"/><circle class="cls-4" cx="220.67" cy="12.86" r="2.9"/><circle class="cls-4" cx="227.55" cy="17.01" r="2.95"/><path class="cls-4" d="M234.26,18.43a3,3,0,1,0,3,3A3,3,0,0,0,234.26,18.43Z"/><path class="cls-4" d="M240.81,23a3,3,0,1,0,3,3A3,3,0,0,0,240.81,23Z"/><path class="cls-4" d="M247.19,27.89a3.06,3.06,0,1,0,3.05,3.05A3.06,3.06,0,0,0,247.19,27.89Z"/><circle class="cls-4" cx="253.37" cy="36.07" r="3.08"/><path class="cls-4" d="M259.36,38.34a3.08,3.08,0,1,0,3.08,3.08A3.08,3.08,0,0,0,259.36,38.34Z"/><circle class="cls-4" cx="265.14" cy="46.99" r="3.1"/><path class="cls-4" d="M270.72,49.7a3.08,3.08,0,1,0,3.07,3.08A3.08,3.08,0,0,0,270.72,49.7Z"/><circle class="cls-4" cx="276.07" cy="58.76" r="3.08"/><path class="cls-4" d="M281.19,61.9A3.05,3.05,0,1,0,284.24,65,3,3,0,0,0,281.19,61.9Z"/><path class="cls-4" d="M286.08,68.29a3,3,0,1,0,3,3A3,3,0,0,0,286.08,68.29Z"/><circle class="cls-4" cx="290.73" cy="77.87" r="2.98"/><path class="cls-4" d="M295.13,81.64a3,3,0,1,0,2.95,3A2.95,2.95,0,0,0,295.13,81.64Z"/><circle class="cls-4" cx="299.27" cy="91.47" r="2.9"/><path class="cls-4" d="M303.16,95.67A2.83,2.83,0,1,0,306,98.5,2.83,2.83,0,0,0,303.16,95.67Z"/><path class="cls-4" d="M306.78,102.92a2.75,2.75,0,1,0,2.75,2.75A2.76,2.76,0,0,0,306.78,102.92Z"/><path class="cls-4" d="M312.54,111.82a2.69,2.69,0,1,0,0,2.29Z"/><path class="cls-4" d="M312.54,117.88a2.59,2.59,0,0,0,0,5Z"/><path class="cls-4" d="M310.13,284.26a.47.47,0,1,0,.47.47A.47.47,0,0,0,310.13,284.26Z"/><path class="cls-4" d="M306.78,291.64a.39.39,0,0,0-.4.39.4.4,0,0,0,.8,0A.39.39,0,0,0,306.78,291.64Z"/><path class="cls-4" d="M303.16,298.88a.32.32,0,1,0,.32.32A.32.32,0,0,0,303.16,298.88Z"/><path class="cls-4" d="M.27,5.51a.28.28,0,0,0,0,.55.28.28,0,1,0,0-.55Z"/><path class="cls-4" d="M7.28,1.51a.34.34,0,0,0-.35.34.35.35,0,1,0,.69,0A.34.34,0,0,0,7.28,1.51Z"/><path class="cls-4" d="M212.69,0a3,3,0,0,0,3.05,3,3,3,0,0,0,3-3Z"/><circle class="cls-4" cx="222.81" cy="3.79" r="3.1"/><path class="cls-4" d="M229.74,4.67a3.18,3.18,0,1,0,3.18,3.18A3.17,3.17,0,0,0,229.74,4.67Z"/><path class="cls-4" d="M236.53,8.92a3.23,3.23,0,1,0,3.22,3.23A3.23,3.23,0,0,0,236.53,8.92Z"/><path class="cls-4" d="M243.15,13.44a3.25,3.25,0,1,0,3.25,3.25A3.25,3.25,0,0,0,243.15,13.44Z"/><circle class="cls-4" cx="249.6" cy="21.47" r="3.3"/><path class="cls-4" d="M255.88,23.15a3.33,3.33,0,1,0,3.33,3.33A3.33,3.33,0,0,0,255.88,23.15Z"/><path class="cls-4" d="M262,28.36a3.35,3.35,0,1,0,3.35,3.35A3.35,3.35,0,0,0,262,28.36Z"/><circle class="cls-4" cx="267.88" cy="37.15" r="3.35"/><path class="cls-4" d="M273.59,39.46a3.35,3.35,0,1,0,3.35,3.35A3.35,3.35,0,0,0,273.59,39.46Z"/><path class="cls-4" d="M279.09,45.31a3.35,3.35,0,1,0,3.35,3.35A3.35,3.35,0,0,0,279.09,45.31Z"/><path class="cls-4" d="M284.37,51.39a3.33,3.33,0,1,0,3.32,3.32A3.33,3.33,0,0,0,284.37,51.39Z"/><path class="cls-4" d="M289.43,57.65a3.3,3.3,0,1,0,3.3,3.3A3.3,3.3,0,0,0,289.43,57.65Z"/><circle class="cls-4" cx="294.27" cy="67.36" r="3.28"/><circle class="cls-4" cx="298.87" cy="73.94" r="3.23"/><path class="cls-4" d="M303.24,77.51a3.18,3.18,0,1,0,3.17,3.17A3.17,3.17,0,0,0,303.24,77.51Z"/><path class="cls-4" d="M307.36,84.45a3.13,3.13,0,1,0,3.12,3.13A3.13,3.13,0,0,0,307.36,84.45Z"/><path class="cls-4" d="M312.54,91.87a3.06,3.06,0,1,0,0,5.49Z"/><path class="cls-4" d="M312.54,99.92a2.92,2.92,0,0,0-.68,1.87,3,3,0,0,0,.68,1.87Z"/><circle class="cls-4" cx="311.23" cy="303.09" r="0.35"/><path class="cls-4" d="M228.78,0a3.4,3.4,0,0,0,3.15,2.11A3.39,3.39,0,0,0,235.07,0Z"/><path class="cls-4" d="M240.56,0H237a3.45,3.45,0,1,0,3.6,0Z"/><circle class="cls-4" cx="245.45" cy="7.38" r="3.5"/><path class="cls-4" d="M252,8.5a3.55,3.55,0,1,0,3.55,3.55A3.55,3.55,0,0,0,252,8.5Z"/><path class="cls-4" d="M258.35,13.38A3.57,3.57,0,1,0,261.92,17,3.57,3.57,0,0,0,258.35,13.38Z"/><path class="cls-4" d="M264.54,18.47a3.6,3.6,0,1,0,3.6,3.6A3.6,3.6,0,0,0,264.54,18.47Z"/><circle class="cls-4" cx="270.55" cy="27.39" r="3.62"/><circle class="cls-4" cx="276.37" cy="32.92" r="3.62"/><circle class="cls-4" cx="282" cy="38.65" r="3.62"/><path class="cls-4" d="M287.43,41a3.6,3.6,0,1,0,3.6,3.6A3.6,3.6,0,0,0,287.43,41Z"/><path class="cls-4" d="M292.65,47.07a3.6,3.6,0,1,0,3.6,3.6A3.6,3.6,0,0,0,292.65,47.07Z"/><path class="cls-4" d="M297.66,53.4A3.55,3.55,0,1,0,301.21,57,3.55,3.55,0,0,0,297.66,53.4Z"/><path class="cls-4" d="M302.45,59.88A3.52,3.52,0,1,0,306,63.4,3.51,3.51,0,0,0,302.45,59.88Z"/><circle class="cls-4" cx="307.01" cy="70.01" r="3.47"/><path class="cls-4" d="M312.54,73.58a3.37,3.37,0,0,0-1.2-.23,3.43,3.43,0,0,0,0,6.85,3.37,3.37,0,0,0,1.2-.23Z"/><path class="cls-4" d="M312.54,82a3.27,3.27,0,0,0,0,3.41Z"/><path class="cls-4" d="M244.51,0a3.73,3.73,0,0,0,3.21,1.85A3.75,3.75,0,0,0,250.94,0Z"/><path class="cls-4" d="M251.63,0A3.8,3.8,0,1,0,257,0Z"/><circle class="cls-4" cx="260.76" cy="7.48" r="3.82"/><path class="cls-4" d="M267,8.64a3.85,3.85,0,1,0,3.85,3.85A3.84,3.84,0,0,0,267,8.64Z"/><path class="cls-4" d="M273.15,13.83A3.87,3.87,0,1,0,277,17.7,3.87,3.87,0,0,0,273.15,13.83Z"/><path class="cls-4" d="M279.09,19.24A3.87,3.87,0,1,0,283,23.11,3.88,3.88,0,0,0,279.09,19.24Z"/><path class="cls-4" d="M284.84,24.82a3.9,3.9,0,1,0,3.89,3.9A3.9,3.9,0,0,0,284.84,24.82Z"/><path class="cls-4" d="M290.4,30.65a3.87,3.87,0,1,0,3.87,3.87A3.88,3.88,0,0,0,290.4,30.65Z"/><circle class="cls-4" cx="295.76" cy="40.49" r="3.87"/><path class="cls-4" d="M300.92,42.8a3.85,3.85,0,1,0,3.85,3.85A3.84,3.84,0,0,0,300.92,42.8Z"/><circle class="cls-4" cx="305.88" cy="52.97" r="3.82"/><path class="cls-4" d="M312.54,56.22a3.7,3.7,0,0,0-1.92-.54,3.77,3.77,0,1,0,0,7.54,3.7,3.7,0,0,0,1.92-.54Z"/><path class="cls-4" d="M312.54,63.4a3.73,3.73,0,0,0,0,5.37Z"/><path class="cls-4" d="M259.56,0a4.09,4.09,0,0,0,3.58,2.15A4.1,4.1,0,0,0,266.73,0Z"/><path class="cls-4" d="M272.4,0h-5.79a4.15,4.15,0,1,0,5.79,0Z"/><path class="cls-4" d="M275.7,3.9a4.17,4.17,0,1,0,4.17,4.17A4.17,4.17,0,0,0,275.7,3.9Z"/><path class="cls-4" d="M281.73,9.2a4.17,4.17,0,1,0,4.17,4.17A4.17,4.17,0,0,0,281.73,9.2Z"/><circle class="cls-4" cx="287.59" cy="18.86" r="4.19"/><circle class="cls-4" cx="293.27" cy="24.54" r="4.19"/><path class="cls-4" d="M298.77,26.23a4.17,4.17,0,1,0,4.16,4.17A4.17,4.17,0,0,0,298.77,26.23Z"/><path class="cls-4" d="M304.07,32.27a4.17,4.17,0,1,0,4.17,4.16A4.17,4.17,0,0,0,304.07,32.27Z"/><path class="cls-4" d="M312.54,40.23a4.15,4.15,0,1,0,0,4.81Z"/><path class="cls-4" d="M312.54,45.2a4.09,4.09,0,0,0,0,7.58Z"/><path class="cls-4" d="M274,0a4.42,4.42,0,0,0,4.16,2.93A4.42,4.42,0,0,0,282.36,0Z"/><path class="cls-4" d="M286.84,0h-5a4.47,4.47,0,1,0,5,0Z"/><path class="cls-4" d="M290.28,4.61a4.47,4.47,0,1,0,4.47,4.47A4.47,4.47,0,0,0,290.28,4.61Z"/><path class="cls-4" d="M296.07,10.18a4.47,4.47,0,1,0,4.47,4.47A4.47,4.47,0,0,0,296.07,10.18Z"/><path class="cls-4" d="M301.68,15.92a4.47,4.47,0,1,0,4.47,4.47A4.47,4.47,0,0,0,301.68,15.92Z"/><path class="cls-4" d="M307.12,21.84a4.47,4.47,0,1,0,4.46,4.47A4.47,4.47,0,0,0,307.12,21.84Z"/><path class="cls-4" d="M312.54,28h-.18a4.44,4.44,0,1,0,0,8.88l.18,0Z"/><path class="cls-4" d="M288.22,0a4.74,4.74,0,0,0,4.69,4.12A4.76,4.76,0,0,0,297.61,0Z"/><path class="cls-4" d="M298.8,0a4.79,4.79,0,1,0,4.79,4.79A4.79,4.79,0,0,0,298.8,0Z"/><circle class="cls-4" cx="304.52" cy="10.45" r="4.79"/><path class="cls-4" d="M312.54,12.17a4.71,4.71,0,0,0-2.47-.7,4.79,4.79,0,0,0,0,9.58,4.72,4.72,0,0,0,2.47-.71Z"/><path class="cls-4" d="M312.54,18.48a4.71,4.71,0,0,0,0,7.5Z"/><path class="cls-4" d="M302.24,0a5.42,5.42,0,0,0-.06.58,5.12,5.12,0,0,0,10.23,0,5.42,5.42,0,0,0-.06-.58Z"/><path class="cls-4" d="M312.54,1.21a5.08,5.08,0,0,0,0,10.14Z"/></g></g></g></svg>