<svg xmlns="http://www.w3.org/2000/svg" xmlns:xlink="http://www.w3.org/1999/xlink" width="750" height="500" viewBox="0 0 750 500"><defs><linearGradient id="a" x1="-0.001" y1="1.251" x2="0.841" y2="-0.011" gradientUnits="objectBoundingBox"><stop offset="0" stop-color="#00dbdb"/><stop offset="0.107" stop-color="#12dbd7"/><stop offset="0.323" stop-color="#43dccd"/><stop offset="0.63" stop-color="#92debd"/><stop offset="1" stop-color="#fae1a9"/></linearGradient><linearGradient id="b" x1="0.499" y1="0.525" x2="0.503" y2="-0.129" gradientUnits="objectBoundingBox"><stop offset="0" stop-color="#fff" stop-opacity="0"/><stop offset="1" stop-color="#fff"/></linearGradient></defs><g transform="translate(-554.016)"><rect width="750" height="500" transform="translate(554.016)" fill="url(#a)"/><path d="M554.018,500V295.378c66.82-70.186,159.659-134.588,237.539-66.354,139.5,122.2,217.49-43.753,280.49,12.07,37.063,32.839,71.2,40.892,150.2,10.214,21.855-8.486,22.685,37.335,52.456,25.4Z" opacity="0.73" fill="url(#b)"/><path d="M622.533,283.333a4.143,4.143,0,1,1,4.143-4.143A4.148,4.148,0,0,1,622.533,283.333Z" fill="#fff"/><path d="M622.533,310.052a4.143,4.143,0,1,1,4.143-4.144A4.149,4.149,0,0,1,622.533,310.052Z" fill="#fff"/><path d="M622.533,336.771a4.143,4.143,0,1,1,4.143-4.144A4.149,4.149,0,0,1,622.533,336.771Z" fill="#fff"/><path d="M622.533,363.489a4.144,4.144,0,1,1,4.143-4.143A4.148,4.148,0,0,1,622.533,363.489Z" fill="#fff"/><path d="M622.533,390.208a4.144,4.144,0,1,1,4.143-4.143A4.148,4.148,0,0,1,622.533,390.208Z" fill="#fff"/><path d="M622.533,416.926a4.143,4.143,0,1,1,4.143-4.143A4.149,4.149,0,0,1,622.533,416.926Z" fill="#fff"/><path d="M622.533,443.645a4.143,4.143,0,1,1,4.143-4.144A4.149,4.149,0,0,1,622.533,443.645Z" fill="#fff"/><path d="M622.533,470.363a4.143,4.143,0,1,1,4.143-4.143A4.148,4.148,0,0,1,622.533,470.363Z" fill="#fff"/><path d="M644.855,283.333A4.143,4.143,0,1,1,649,279.19,4.147,4.147,0,0,1,644.855,283.333Z" fill="#fff"/><path d="M644.855,310.052A4.143,4.143,0,1,1,649,305.908,4.148,4.148,0,0,1,644.855,310.052Z" fill="#fff"/><path d="M644.855,336.771A4.143,4.143,0,1,1,649,332.627,4.148,4.148,0,0,1,644.855,336.771Z" fill="#fff"/><path d="M644.855,363.489A4.144,4.144,0,1,1,649,359.346,4.147,4.147,0,0,1,644.855,363.489Z" fill="#fff"/><path d="M644.855,390.208A4.144,4.144,0,1,1,649,386.065,4.147,4.147,0,0,1,644.855,390.208Z" fill="#fff"/><path d="M644.855,416.926A4.143,4.143,0,1,1,649,412.783,4.148,4.148,0,0,1,644.855,416.926Z" fill="#fff"/><path d="M644.855,443.645A4.143,4.143,0,1,1,649,439.5,4.148,4.148,0,0,1,644.855,443.645Z" fill="#fff"/><path d="M644.855,470.363A4.143,4.143,0,1,1,649,466.22,4.147,4.147,0,0,1,644.855,470.363Z" fill="#fff"/><path d="M667.177,283.333a4.143,4.143,0,1,1,4.144-4.143A4.147,4.147,0,0,1,667.177,283.333Z" fill="#fff"/><path d="M667.177,310.052a4.143,4.143,0,1,1,4.144-4.144A4.148,4.148,0,0,1,667.177,310.052Z" fill="#fff"/><path d="M667.177,336.771a4.143,4.143,0,1,1,4.144-4.144A4.148,4.148,0,0,1,667.177,336.771Z" fill="#fff"/><path d="M667.177,363.489a4.144,4.144,0,1,1,4.144-4.143A4.147,4.147,0,0,1,667.177,363.489Z" fill="#fff"/><path d="M667.177,390.208a4.144,4.144,0,1,1,4.144-4.143A4.147,4.147,0,0,1,667.177,390.208Z" fill="#fff"/><path d="M667.177,416.926a4.143,4.143,0,1,1,4.144-4.143A4.147,4.147,0,0,1,667.177,416.926Z" fill="#fff"/><path d="M667.177,443.645a4.143,4.143,0,1,1,4.144-4.144A4.148,4.148,0,0,1,667.177,443.645Z" fill="#fff"/><path d="M667.177,470.363a4.143,4.143,0,1,1,4.144-4.143A4.147,4.147,0,0,1,667.177,470.363Z" fill="#fff"/><path d="M689.5,283.333a4.143,4.143,0,1,1,4.143-4.143A4.147,4.147,0,0,1,689.5,283.333Z" fill="#fff"/><path d="M689.5,310.052a4.143,4.143,0,1,1,4.143-4.144A4.148,4.148,0,0,1,689.5,310.052Z" fill="#fff"/><path d="M689.5,336.771a4.143,4.143,0,1,1,4.143-4.144A4.148,4.148,0,0,1,689.5,336.771Z" fill="#fff"/><path d="M689.5,363.489a4.144,4.144,0,1,1,4.143-4.143A4.147,4.147,0,0,1,689.5,363.489Z" fill="#fff"/><path d="M689.5,390.208a4.144,4.144,0,1,1,4.143-4.143A4.147,4.147,0,0,1,689.5,390.208Z" fill="#fff"/><path d="M689.5,416.926a4.143,4.143,0,1,1,4.143-4.143A4.148,4.148,0,0,1,689.5,416.926Z" fill="#fff"/><path d="M689.5,443.645a4.143,4.143,0,1,1,4.143-4.144A4.148,4.148,0,0,1,689.5,443.645Z" fill="#fff"/><path d="M689.5,470.363a4.143,4.143,0,1,1,4.143-4.143A4.147,4.147,0,0,1,689.5,470.363Z" fill="#fff"/><path d="M711.844,283.333a4.143,4.143,0,1,1,4.144-4.143A4.147,4.147,0,0,1,711.844,283.333Z" fill="#fff"/><path d="M711.844,310.052a4.143,4.143,0,1,1,4.144-4.144A4.148,4.148,0,0,1,711.844,310.052Z" fill="#fff"/><path d="M711.844,336.771a4.143,4.143,0,1,1,4.144-4.144A4.148,4.148,0,0,1,711.844,336.771Z" fill="#fff"/><circle cx="4.144" cy="4.144" r="4.144" transform="translate(707.701 355.202)" fill="#fff"/><path d="M711.844,390.208a4.144,4.144,0,1,1,4.144-4.143A4.147,4.147,0,0,1,711.844,390.208Z" fill="#fff"/><path d="M711.844,416.926a4.143,4.143,0,1,1,4.144-4.143A4.148,4.148,0,0,1,711.844,416.926Z" fill="#fff"/><path d="M711.844,443.645a4.143,4.143,0,1,1,4.144-4.144A4.148,4.148,0,0,1,711.844,443.645Z" fill="#fff"/><path d="M711.844,470.363a4.143,4.143,0,1,1,4.144-4.143A4.147,4.147,0,0,1,711.844,470.363Z" fill="#fff"/><path d="M734.167,283.333a4.143,4.143,0,1,1,4.143-4.143A4.147,4.147,0,0,1,734.167,283.333Z" fill="#fff"/><path d="M734.167,310.052a4.143,4.143,0,1,1,4.143-4.144A4.148,4.148,0,0,1,734.167,310.052Z" fill="#fff"/><path d="M734.167,336.771a4.143,4.143,0,1,1,4.143-4.144A4.148,4.148,0,0,1,734.167,336.771Z" fill="#fff"/><path d="M734.167,363.489a4.144,4.144,0,1,1,4.143-4.143A4.147,4.147,0,0,1,734.167,363.489Z" fill="#fff"/><path d="M734.167,390.208a4.144,4.144,0,1,1,4.143-4.143A4.147,4.147,0,0,1,734.167,390.208Z" fill="#fff"/><path d="M734.167,416.926a4.143,4.143,0,1,1,4.143-4.143A4.148,4.148,0,0,1,734.167,416.926Z" fill="#fff"/><path d="M734.167,443.645a4.143,4.143,0,1,1,4.143-4.144A4.148,4.148,0,0,1,734.167,443.645Z" fill="#fff"/><path d="M734.167,470.363a4.143,4.143,0,1,1,4.143-4.143A4.147,4.147,0,0,1,734.167,470.363Z" fill="#fff"/><path d="M1015,130.238a4.764,4.764,0,1,1,4.764-4.764A4.769,4.769,0,0,1,1015,130.238Z" fill="#fff"/><path d="M1044.936,130.238a4.764,4.764,0,1,1,4.764-4.764A4.768,4.768,0,0,1,1044.936,130.238Z" fill="#fff"/><path d="M1074.878,130.238a4.764,4.764,0,1,1,4.764-4.764A4.769,4.769,0,0,1,1074.878,130.238Z" fill="#fff"/><path d="M1104.819,130.238a4.764,4.764,0,1,1,4.763-4.764A4.768,4.768,0,0,1,1104.819,130.238Z" fill="#fff"/><path d="M1134.76,130.238a4.764,4.764,0,1,1,4.763-4.764A4.769,4.769,0,0,1,1134.76,130.238Z" fill="#fff"/><path d="M1164.7,130.238a4.764,4.764,0,1,1,4.764-4.764A4.768,4.768,0,0,1,1164.7,130.238Z" fill="#fff"/><path d="M1194.642,130.238a4.764,4.764,0,1,1,4.763-4.764A4.769,4.769,0,0,1,1194.642,130.238Z" fill="#fff"/><path d="M1224.583,130.238a4.764,4.764,0,1,1,4.764-4.764A4.769,4.769,0,0,1,1224.583,130.238Z" fill="#fff"/><path d="M1015,105.223a4.764,4.764,0,1,1,4.764-4.763A4.769,4.769,0,0,1,1015,105.223Z" fill="#fff"/><path d="M1044.936,105.223a4.764,4.764,0,1,1,4.764-4.763A4.768,4.768,0,0,1,1044.936,105.223Z" fill="#fff"/><path d="M1074.878,105.223a4.764,4.764,0,1,1,4.764-4.763A4.769,4.769,0,0,1,1074.878,105.223Z" fill="#fff"/><path d="M1104.819,105.223a4.764,4.764,0,1,1,4.763-4.763A4.768,4.768,0,0,1,1104.819,105.223Z" fill="#fff"/><path d="M1134.76,105.223a4.764,4.764,0,1,1,4.763-4.763A4.769,4.769,0,0,1,1134.76,105.223Z" fill="#fff"/><path d="M1164.7,105.223a4.764,4.764,0,1,1,4.764-4.763A4.768,4.768,0,0,1,1164.7,105.223Z" fill="#fff"/><path d="M1194.642,105.223a4.764,4.764,0,1,1,4.763-4.763A4.769,4.769,0,0,1,1194.642,105.223Z" fill="#fff"/><path d="M1224.583,105.223a4.764,4.764,0,1,1,4.764-4.763A4.769,4.769,0,0,1,1224.583,105.223Z" fill="#fff"/><path d="M1015,80.208a4.764,4.764,0,1,1,4.764-4.763A4.768,4.768,0,0,1,1015,80.208Z" fill="#fff"/><path d="M1044.936,80.208a4.764,4.764,0,1,1,4.764-4.763A4.767,4.767,0,0,1,1044.936,80.208Z" fill="#fff"/><path d="M1074.878,80.208a4.764,4.764,0,1,1,4.764-4.763A4.768,4.768,0,0,1,1074.878,80.208Z" fill="#fff"/><path d="M1104.819,80.208a4.764,4.764,0,1,1,4.763-4.763A4.768,4.768,0,0,1,1104.819,80.208Z" fill="#fff"/><path d="M1134.76,80.208a4.764,4.764,0,1,1,4.763-4.763A4.768,4.768,0,0,1,1134.76,80.208Z" fill="#fff"/><path d="M1164.7,80.208a4.764,4.764,0,1,1,4.764-4.763A4.768,4.768,0,0,1,1164.7,80.208Z" fill="#fff"/><path d="M1194.642,80.208a4.764,4.764,0,1,1,4.763-4.763A4.768,4.768,0,0,1,1194.642,80.208Z" fill="#fff"/><path d="M1224.583,80.208a4.764,4.764,0,1,1,4.764-4.763A4.768,4.768,0,0,1,1224.583,80.208Z" fill="#fff"/><path d="M1015,55.194a4.764,4.764,0,1,1,4.764-4.764A4.769,4.769,0,0,1,1015,55.194Z" fill="#fff"/><path d="M1044.936,55.194a4.764,4.764,0,1,1,4.764-4.764A4.768,4.768,0,0,1,1044.936,55.194Z" fill="#fff"/><path d="M1074.878,55.194a4.764,4.764,0,1,1,4.764-4.764A4.769,4.769,0,0,1,1074.878,55.194Z" fill="#fff"/><path d="M1104.819,55.194a4.764,4.764,0,1,1,4.763-4.764A4.768,4.768,0,0,1,1104.819,55.194Z" fill="#fff"/><path d="M1134.76,55.194a4.764,4.764,0,1,1,4.763-4.764A4.769,4.769,0,0,1,1134.76,55.194Z" fill="#fff"/><path d="M1164.7,55.194a4.764,4.764,0,1,1,4.764-4.764A4.768,4.768,0,0,1,1164.7,55.194Z" fill="#fff"/><path d="M1194.642,55.194a4.764,4.764,0,1,1,4.763-4.764A4.769,4.769,0,0,1,1194.642,55.194Z" fill="#fff"/><path d="M1224.583,55.194a4.764,4.764,0,1,1,4.764-4.764A4.769,4.769,0,0,1,1224.583,55.194Z" fill="#fff"/></g></svg>