<?xml version="1.0" encoding="UTF-8"?>
<svg width="294px" height="206px" viewBox="0 0 294 206" version="1.1" xmlns="http://www.w3.org/2000/svg" xmlns:xlink="http://www.w3.org/1999/xlink">
    <!-- Generator: Sketch 52.6 (67491) - http://www.bohemiancoding.com/sketch -->
    <title>Artboard</title>
    <desc>Created with Sketch.</desc>
    <g id="Artboard" stroke="none" stroke-width="1" fill="none" fill-rule="evenodd">
        <g id="Asset-2" transform="translate(78.000000, 0.000000)">
            <g id="triangle36" transform="translate(189.068493, 1.410959)" fill="#C4C4C4">
                <path d="M26.9681279,21.2537443 L0.630228311,6.67383562 L7.71794521,0.324520548 L27.0010502,14.4999543 L27.0010502,14.2271689 L7.77438356,0.117579909 C7.733146,0.0845634327 7.67452524,0.0845634327 7.63328767,0.117579909 L0.343333333,6.64561644 C0.318362455,6.67016681 0.306200106,6.70491638 0.310410959,6.73968037 C0.313091607,6.77583891 0.334503213,6.80795632 0.366849315,6.8243379 L26.9634247,21.5265297 L26.9681279,21.2537443 Z" id="Path"></path>
            </g>
            <g id="triangle36-2" transform="translate(189.068493, 7.995434)" fill="#C4C4C4">
                <path d="M26.8693607,34.6014155 L0.827762557,0.470319635 L26.9681279,14.9185388 L26.9681279,14.6645662 L0.475022831,0.0282191781 C0.430235193,2.22150056e-05 0.371389483,0.010168027 0.338630137,0.0517351598 C0.305613661,0.0929727251 0.305613661,0.151593485 0.338630137,0.19283105 L26.8693607,34.9635616 L26.8693607,34.6014155 Z" id="Path"></path>
            </g>
            <g id="triangle36-3" transform="translate(107.703196, 189.068493)" fill="#C4C4C4">
                <path d="M0.78543379,16.4611872 L36.2428311,0.470319635 L39.7184932,16.6587215 L39.9442466,16.6587215 L36.4309589,0.291598174 C36.4234362,0.259754212 36.4029844,0.232485166 36.3745205,0.216347032 C36.3437228,0.199620051 36.3065512,0.199620051 36.2757534,0.216347032 L0.235159817,16.4611872 L0.78543379,16.4611872 Z" id="Path"></path>
            </g>
            <g id="triangle36-4" transform="translate(191.420091, 198.474886)" fill="#C4C4C4">
                <polygon id="Path" points="23.7229224 0.0423287671 0.460913242 7.473379 1.17579909 7.47808219 23.7182192 0.272785388"></polygon>
            </g>
            <g id="triangle36-5" transform="translate(196.593607, 0.470320)" fill="#C4C4C4">
                <path d="M19.4806393,15.1678082 L0.507945205,1.22283105 L19.5558904,0.587899543 L19.5558904,0.366849315 L0.183424658,1.01118721 C0.136086833,1.01210239 0.0954092953,1.04503183 0.0846575342,1.09114155 C0.0698834317,1.13434355 0.0851726991,1.18212251 0.122283105,1.20872146 L19.4806393,15.4405936 L19.4806393,15.1678082 Z" id="Path"></path>
            </g>
            <g id="triangle36-6" transform="translate(189.068493, 80.424658)" fill="#C4C4C4">
                <path d="M26.6012785,14.6692694 L0.92652968,13.1689498 L21.6723288,0.59260274 L26.6530137,4.45863014 L26.6530137,4.17643836 L21.7475799,0.357442922 C21.7092644,0.331375518 21.6589091,0.331375518 21.6205936,0.357442922 L0.507945205,13.1689498 C0.467795955,13.1955112 0.448910662,13.244613 0.460913242,13.2912329 C0.470044419,13.3383367 0.511707629,13.3720641 0.559680365,13.3711872 L26.6012785,14.9091324 L26.6012785,14.6692694 Z" id="Path"></path>
            </g>
            <g id="triangle36-7" transform="translate(24.456621, 197.063927)" fill="#C4C4C4">
                <path d="M0.691369863,8.03305936 L4.92424658,0.818356164 L5.77552511,8.05657534 L5.99657534,8.05657534 L5.09826484,0.470319635 C5.0947439,0.423351348 5.0599465,0.38468757 5.01360731,0.376255708 C4.96746581,0.367343127 4.9206298,0.387950973 4.8960274,0.427990868 L0.432694064,8.03776256 L0.691369863,8.03305936 Z" id="Path"></path>
            </g>
            <g id="triangle36-8" transform="translate(186.716895, 190.949772)" fill="#C4C4C4">
                <polygon id="Path" points="28.4261187 7.56744292 5.16410959 14.9984932 5.87899543 15.0031963 28.4214155 7.79789954"></polygon>
                <path d="M28.4308219,6.36812785 L4.04474886,0.310410959 C3.985095,0.295456002 3.92444762,0.331007917 3.90835616,0.390365297 L0.216347032,14.970274 L0.446803653,14.970274 L4.07767123,0.550273973 L28.4308219,6.58447489 L28.4308219,6.36812785 Z" id="Path"></path>
            </g>
            <g id="triangle36-9" transform="translate(191.420091, 142.506849)" fill="#C4C4C4">
                <path d="M23.9863014,4.28461187 L10.6621461,11.9320091 L0.597305936,9.24178082 L24.0051142,0.305707763 L24.0051142,0.0658447489 L0.202237443,9.18063927 C0.155615345,9.19763029 0.126532414,9.24416298 0.131689498,9.29351598 C0.132604675,9.34085381 0.16553411,9.38153134 0.211643836,9.39228311 L10.6621461,12.1577626 C10.6807207,12.1619961 10.7000099,12.1619961 10.7185845,12.1577626 L23.9721918,4.54799087 L23.9863014,4.28461187 Z" id="Path"></path>
            </g>
            <g id="triangle36-10" transform="translate(143.447489, 189.068493)" fill="#C4C4C4">
                <path d="M4.18114155,16.6540183 L0.710182648,0.470319635 L14.1660274,5.24406393 L8.35287671,16.6634247 L8.60214612,16.6634247 L14.4247032,5.24406393 C14.4390491,5.21435023 14.4390491,5.1797137 14.4247032,5.15 C14.4145372,5.11977627 14.3897514,5.09676084 14.3588584,5.08885845 L0.597305936,0.206940639 C0.56238176,0.186777157 0.5193534,0.186777157 0.484429224,0.206940639 C0.454884109,0.234506456 0.442327849,0.275762738 0.451506849,0.315114155 L3.95538813,16.6352055 L4.18114155,16.6540183 Z" id="Path"></path>
            </g>
            <g id="triangle36-11" transform="translate(151.442922, 193.771689)" fill="#C4C4C4">
                <path d="M0.606712329,11.9743379 L6.33990868,0.714885845 L13.4840639,12.0401826 L13.7474429,12.0401826 L6.42926941,0.432694064 C6.41246182,0.394506281 6.37146524,0.373031885 6.33050228,0.380958904 C6.29230843,0.380911023 6.25751033,0.40288877 6.24114155,0.43739726 L0.366849315,11.9696347 L0.606712329,11.9743379 Z" id="Path"></path>
            </g>
            <g id="triangle36-12" transform="translate(157.557078, 193.771689)" fill="#C4C4C4">
                <path d="M7.36990868,12.0401826 L7.63328767,12.0401826 L0.522054795,0.752511416 L24.8187671,12.1295434 L25.3455251,12.1295434 L0.272785388,0.371552511 C0.229096923,0.349847792 0.176183109,0.361606417 0.145799087,0.399771689 C0.114259846,0.438003023 0.114259846,0.493229853 0.145799087,0.531461187 L7.36990868,12.0401826 Z" id="Path"></path>
            </g>
            <g id="triangle36-13" transform="translate(157.557078, 190.949772)" fill="#C4C4C4">
                <path d="M0.164611872,3.40981735 L24.8046575,14.946758 L25.3314155,14.946758 L0.630228311,3.38630137 L33.0305479,0.54086758 L29.3761644,14.970274 L29.606621,14.970274 L33.2845205,0.43739726 C33.2935782,0.402612609 33.2847659,0.365600748 33.2610046,0.338630137 C33.235389,0.314875936 33.201872,0.301469123 33.1669406,0.301004566 L0.202237443,3.19817352 C0.152330827,3.20099514 0.110856767,3.23764385 0.101914943,3.28682389 C0.0929731187,3.33600392 0.118892491,3.38490599 0.164611872,3.40511416 L0.164611872,3.40981735 Z" id="Path"></path>
            </g>
            <g id="triangle36-14" transform="translate(29.159817, 197.063927)" fill="#C4C4C4">
                <path d="M1.2886758,8.06127854 L0.423287671,0.700776256 L11.8849772,8.1130137 L12.2941553,8.1130137 L0.34803653,0.380958904 C0.309959155,0.360041088 0.2638308,0.360041088 0.225753425,0.380958904 C0.191815331,0.405976286 0.173870195,0.4472501 0.178721461,0.48913242 L1.06762557,8.05187215 L1.2886758,8.06127854 Z" id="Path"></path>
            </g>
            <g id="triangle36-15" transform="translate(102.059361, 121.812785)" fill="#C4C4C4" fill-rule="nonzero">
                <path d="M1.60378995,8.93607306 C1.58688388,8.94090867 1.56896086,8.94090867 1.55205479,8.93607306 C1.52355276,8.9209463 1.50423699,8.89285064 1.50031963,8.86082192 L0.366849315,3.38630137 C0.353433109,3.3596768 0.353433109,3.3282684 0.366849315,3.30164384 C0.383081666,3.27494616 0.410989497,3.25750377 0.442100457,3.25461187 L28.4731507,0.00470319635 C28.5297434,-0.00105934208 28.5811301,0.0379945307 28.5907306,0.0940639269 C28.6033614,0.148235349 28.5728501,0.203155625 28.5201826,0.221050228 L1.64141553,8.93607306 L1.60378995,8.93607306 Z M0.606712329,3.44744292 L1.68844749,8.68210046 L27.4149315,0.338630137 L0.606712329,3.44744292 Z" id="Shape"></path>
            </g>
            <g id="triangle36-16" transform="translate(14.109589, 188.598174)" fill="#C4C4C4">
                <path d="M0.672557078,16.4611872 L2.12114155,0.658447489 L15.186621,8.99721461 L10.779726,16.5223288 L11.0384018,16.5223288 L15.4311872,9.02543379 C15.4614761,8.97441098 15.4470904,8.90864803 15.3982648,8.87493151 L2.08821918,0.3856621 C2.0545094,0.367259273 2.01375544,0.367259273 1.98004566,0.3856621 C1.94284598,0.399557152 1.91837924,0.435316241 1.91890411,0.475022831 L0.451506849,16.4658904 L0.672557078,16.4611872 Z" id="Path"></path>
            </g>
            <g id="triangle36-17" transform="translate(15.990868, 172.607306)" fill="#C4C4C4" fill-rule="nonzero">
                <path d="M13.4558447,25.0492237 C13.4357465,25.0540205 13.4148015,25.0540205 13.3947032,25.0492237 L0.0846575342,16.5552511 C0.055533947,16.5341365 0.0367320616,16.5016605 0.0329223744,16.4658904 C0.0336275739,16.4290513 0.0509061797,16.3944941 0.0799543379,16.3718265 L22.8057991,0.409178082 C22.8446388,0.379380434 22.8986489,0.379380434 22.9374886,0.409178082 C22.9750375,0.437680149 22.9885743,0.487959653 22.970411,0.531461187 L13.5640183,24.9880822 C13.5504269,25.017688 13.5247074,25.0399783 13.4934703,25.0492237 L13.4558447,25.0492237 Z M0.343333333,16.4611872 L13.3994064,24.7905479 L22.636484,0.804246575 L0.343333333,16.4611872 Z" id="Shape"></path>
            </g>
            <g id="triangle36-18" transform="translate(29.159817, 172.607306)" fill="#C4C4C4" fill-rule="nonzero">
                <path d="M40.6309132,25.6888584 L0.282191781,25.0492237 C0.246421699,25.0454141 0.213945716,25.0266122 0.19283105,24.9974886 C0.176104069,24.9666908 0.176104069,24.9295192 0.19283105,24.8987215 L9.59922374,0.442100457 C9.60929253,0.407790977 9.63636186,0.381111548 9.6708138,0.371541564 C9.70526575,0.361971581 9.74221711,0.370867483 9.76853881,0.395068493 L40.7014612,25.4960274 C40.7381229,25.525059 40.7530865,25.5736908 40.7390868,25.6183105 C40.7203265,25.6612964 40.6778143,25.6890218 40.6309132,25.6888584 Z M0.446803653,24.8281735 L40.3157991,25.463105 L9.74502283,0.663150685 L0.446803653,24.8281735 Z" id="Shape"></path>
            </g>
            <g id="triangle36-19" transform="translate(29.159817, 197.063927)" fill="#C4C4C4">
                <path d="M11.8849772,8.1130137 L12.2941553,8.1130137 L0.667853881,0.587899543 L40.217032,1.21812785 L27.593653,8.19296804 L28.0639726,8.19296804 L40.7296804,1.21812785 C40.7736054,1.1923236 40.7948022,1.14029505 40.7814155,1.09114155 C40.7702707,1.04331195 40.7270394,1.00990594 40.6779452,1.01118721 L0.329223744,0.366849315 C0.280746863,0.36609871 0.237205315,0.396388483 0.221050228,0.442100457 C0.206776958,0.490177228 0.225935818,0.541906151 0.268082192,0.569086758 L11.8849772,8.1130137 Z" id="Path"></path>
            </g>
            <g id="triangle36-20" transform="translate(56.438356, 198.004566)" fill="#C4C4C4">
                <path d="M0.743105023,7.25703196 L13.0419635,0.470319635 L8.85611872,7.28525114 L9.11479452,7.28525114 L13.4511416,0.230456621 C13.4809392,0.191616902 13.4809392,0.137606842 13.4511416,0.0987671233 C13.4179347,0.061472275 13.3635145,0.0517543872 13.3194521,0.0752511416 L0.315114155,7.25232877 L0.743105023,7.25703196 Z" id="Path"></path>
            </g>
            <g id="triangle36-21" transform="translate(64.904110, 198.004566)" fill="#C4C4C4">
                <path d="M0.649041096,7.29936073 L4.93835616,0.315114155 L29.3714612,7.44515982 L30.1757078,7.44515982 L4.91954338,0.0705479452 C4.87049961,0.058771593 4.81940821,0.0795866076 4.79255708,0.122283105 L0.390365297,7.28995434 L0.649041096,7.29936073 Z" id="Path"></path>
            </g>
            <g id="triangle36-22" transform="translate(130.278539, 102.059361)" fill="#C4C4C4" fill-rule="nonzero">
                <path d="M46.92379,38.6978995 L46.8814612,38.6978995 L0.24456621,19.9744749 C0.206650133,19.9595978 0.179689525,19.9254477 0.174018265,19.8851142 C0.169419888,19.8479911 0.183511296,19.8110012 0.211643836,19.786347 L23.8310959,0.315114155 C23.8587442,0.299151398 23.8928083,0.299151398 23.9204566,0.315114155 C23.9519467,0.320407208 23.9794894,0.339342794 23.9957078,0.366849315 L47.0413699,38.5521005 C47.0696292,38.5914488 47.0696292,38.6444416 47.0413699,38.68379 C47.0075788,38.7093278 46.9626638,38.7147176 46.92379,38.6978995 Z M0.498538813,19.8286758 L46.660411,38.3639726 L23.8687215,0.564383562 L0.498538813,19.8286758 Z" id="Shape"></path>
            </g>
            <g id="triangle36-23" transform="translate(153.794521, 93.593607)" fill="#C4C4C4" fill-rule="nonzero">
                <path d="M23.4078082,47.163653 C23.3682406,47.1643765 23.331726,47.1424677 23.3137443,47.1072146 L0.268082192,8.92196347 C0.253836654,8.89387979 0.253836654,8.86068642 0.268082192,8.83260274 C0.275704153,8.80198027 0.296318084,8.77621286 0.324520548,8.76205479 L19.6734703,0.112876712 C19.7054841,0.0943935199 19.7449268,0.0943935199 19.7769406,0.112876712 C19.8068729,0.131057523 19.8261514,0.162604185 19.8286758,0.197534247 L23.5112785,47.0413699 C23.5119187,47.0923509 23.4796297,47.1379354 23.4313242,47.1542466 L23.4078082,47.163653 Z M0.54086758,8.93607306 L23.2620091,46.6180822 L19.6311416,0.399771689 L0.54086758,8.93607306 Z" id="Shape"></path>
            </g>
            <g id="triangle36-24" transform="translate(173.077626, 93.123288)" fill="#C4C4C4" fill-rule="nonzero">
                <path d="M4.1247032,47.6339726 C4.07133978,47.6274068 4.03001414,47.5841132 4.02593607,47.5305023 L0.315114155,0.691369863 C0.314381423,0.660726504 0.324361132,0.630787377 0.343333333,0.606712329 C0.365697021,0.584367206 0.396406458,0.572424648 0.427990868,0.573789954 L16.5364384,0.432694064 C16.569652,0.440751711 16.6003529,0.456910096 16.6257991,0.479726027 C16.640145,0.509439724 16.640145,0.544076258 16.6257991,0.573789954 L4.23287671,47.5493151 C4.22166056,47.5997447 4.1763504,47.6352048 4.1247032,47.6339726 Z M0.564383562,0.790136986 L4.18584475,46.8814612 L16.4141553,0.672557078 L0.564383562,0.790136986 Z" id="Shape"></path>
            </g>
            <g id="triangle36-25" transform="translate(176.840183, 136.392694)" fill="#C4C4C4">
                <path d="M38.5850228,6.15648402 L14.8385845,15.2524658 L0.649041096,4.33164384 L38.6179452,0.263378995 L38.6179452,0.0423287671 L0.352739726,4.14351598 C0.309001908,4.1500896 0.273133221,4.1816021 0.260982565,4.2241294 C0.248831909,4.26665669 0.262638343,4.31236208 0.29630137,4.34105023 L14.7539269,15.4641096 C14.7728331,15.4787196 14.7958877,15.4869534 14.8197717,15.4876256 L14.8621005,15.4876256 L38.5850228,6.40575342 L38.5850228,6.15648402 Z" id="Path"></path>
            </g>
            <g id="triangle36-26" transform="translate(173.077626, 78.073059)" fill="#C4C4C4" fill-rule="nonzero">
                <path d="M0.446803653,15.8403653 C0.402001508,15.8419786 0.360846933,15.8157893 0.343333333,15.7745205 C0.325717837,15.731911 0.337046756,15.682819 0.371552511,15.6522374 L16.4141553,0.310410959 C16.4495409,0.285978588 16.4963495,0.285978588 16.5317352,0.310410959 C16.573982,0.327497777 16.6018101,0.368312338 16.6022831,0.413881279 L16.6681279,15.6193151 C16.6681279,15.6790577 16.6196969,15.7274886 16.5599543,15.7274886 L0.446803653,15.8638813 L0.446803653,15.8403653 Z M16.3812329,0.6443379 L0.724292237,15.6193151 L16.4470776,15.4876256 L16.3812329,0.6443379 Z" id="Shape"></path>
            </g>
            <g id="triangle36-27" transform="translate(189.068493, 7.995434)" fill="#C4C4C4">
                <path d="M26.7517808,57.6376712 L0.611415525,70.2892694 L0.531461187,0.470319635 L26.8693607,34.9823744 L26.8693607,34.6202283 L0.531461187,0.0752511416 C0.500893279,0.0377950735 0.450513575,0.0228677539 0.404474886,0.0376255708 C0.360379273,0.0531975767 0.330451977,0.0943476084 0.329223744,0.14109589 L0.409178082,70.4868037 C0.409455153,70.524877 0.428907565,70.560245 0.460913242,70.5808676 C0.479422516,70.5856467 0.498842324,70.5856467 0.517351598,70.5808676 L0.564383562,70.5808676 L26.7705936,57.8822374 L26.7517808,57.6376712 Z" id="Path"></path>
            </g>
            <g id="triangle36-28" transform="translate(189.068493, 78.073059)" fill="#C4C4C4" fill-rule="nonzero">
                <path d="M0.564383562,15.7039726 C0.505663674,15.7015729 0.458609737,15.654519 0.456210046,15.5957991 L0.390365297,0.390365297 C0.38899999,0.358780887 0.400942549,0.32807145 0.423287671,0.305707763 C0.449157739,0.286724262 0.480567771,0.276805304 0.512648402,0.277488584 L21.677032,2.68552511 C21.7240003,2.68904606 21.762664,2.72384346 21.7710959,2.77018265 C21.7815083,2.81648104 21.7605296,2.86415995 21.7193607,2.88776256 L0.611415525,15.689863 C0.596761441,15.6974733 0.580806826,15.7022596 0.564383562,15.7039726 Z M0.611415525,0.512648402 L0.677260274,15.3982648 L21.343105,2.86894977 L0.611415525,0.512648402 Z" id="Shape"></path>
            </g>
            <g id="triangle36-29" transform="translate(189.068493, 65.374429)" fill="#C4C4C4">
                <path d="M26.7047489,9.34525114 L21.63,15.3747489 L0.88890411,13.0231507 L26.756484,0.503242009 L26.756484,0.258675799 L0.456210046,12.9902283 C0.410110612,13.0095152 0.384382245,13.0589928 0.395068493,13.1078082 C0.403098073,13.1551797 0.441411726,13.1915776 0.48913242,13.1971689 L21.653516,15.6005023 C21.6870986,15.6017134 21.7189928,15.5857662 21.7381735,15.5581735 L26.6812329,9.68858447 L26.7047489,9.34525114 Z" id="Path"></path>
            </g>
            <g id="triangle36-30" transform="translate(210.232877, 74.310502)" fill="#C4C4C4">
                <path d="M5.48863014,8.93607306 L0.677260274,6.54214612 L5.5309589,0.780730594 L5.5309589,0.432694064 L0.418584475,6.50922374 C0.40743047,6.53958641 0.40743047,6.572925 0.418584475,6.60328767 C0.425952758,6.63661211 0.448615618,6.66450486 0.479726027,6.67853881 L5.48863014,9.15712329 L5.48863014,8.93607306 Z" id="Path"></path>
            </g>
            <g id="triangle36-31" transform="translate(210.232877, 80.424658)" fill="#C4C4C4">
                <path d="M5.48863014,4.17643836 L1.44858447,1.03 L5.49333333,3.04296804 L5.49333333,2.82191781 L0.559680365,0.366849315 C0.507433638,0.341286527 0.444316101,0.359610973 0.413881279,0.409178082 C0.385492657,0.457994437 0.397547639,0.520278512 0.442100457,0.554977169 L5.48863014,4.45392694 L5.48863014,4.17643836 Z" id="Path"></path>
            </g>
            <g id="triangle36-32" transform="translate(69.607306, 174.958904)" fill="#C4C4C4">
                <path d="M0.155205479,23.3325571 L24.6682648,30.4908219 L25.4725114,30.4908219 L0.479726027,23.1961644 L44.8120548,0.376255708 L34.1028767,30.5331507 L34.3333333,30.5331507 L45.1130594,0.188127854 C45.1273684,0.145895128 45.1142964,0.0992095203 45.080137,0.0705479452 C45.043286,0.0452990925 44.9947049,0.0452990925 44.9578539,0.0705479452 L0.136392694,23.1444292 C0.0962136166,23.1650155 0.0721653804,23.2075624 0.0752511416,23.2526027 C0.0836960433,23.2927476 0.115060596,23.3241122 0.155205479,23.3325571 Z" id="Path"></path>
            </g>
            <g id="triangle36-33" transform="translate(103.470320, 174.958904)" fill="#C4C4C4">
                <path d="M0.470319635,30.5378539 L11.2077169,0.310410959 L40.2781735,14.42 L4.46803653,30.5707763 L5.0183105,30.5707763 L40.6026941,14.5281735 C40.6405218,14.5099141 40.6643594,14.4714072 40.6638356,14.4294064 C40.665601,14.3870705 40.6413754,14.3479368 40.6026941,14.3306393 L11.2124201,0.0658447489 C11.1837939,0.0540846394 11.1516855,0.0540846394 11.1230594,0.0658447489 C11.0947654,0.0788329723 11.0727775,0.102512305 11.0619178,0.131689498 L0.24456621,30.5519635 L0.470319635,30.5378539 Z" id="Path"></path>
            </g>
            <g id="triangle36-34" transform="translate(103.470320, 130.278539)" fill="#C4C4C4" fill-rule="nonzero">
                <path d="M13.0654795,10.1683105 C13.0415955,10.1676383 13.0185409,10.1594045 12.9996347,10.1447945 L0.126986301,0.470319635 C0.0831282588,0.437269178 0.0709944903,0.376600336 0.0987671233,0.329223744 C0.126972247,0.282745559 0.184301854,0.26297673 0.235159817,0.282191781 L20.6611416,7.71324201 C20.7053826,7.72966358 20.7347388,7.7718735 20.7347388,7.81906393 C20.7347388,7.86625435 20.7053826,7.90846427 20.6611416,7.92488584 L13.0984018,10.1824201 L13.0654795,10.1683105 Z M0.83716895,0.719589041 L13.0654795,9.93785388 L20.2519635,7.78849315 L0.83716895,0.719589041 Z" id="Shape"></path>
            </g>
            <g id="triangle36-35" transform="translate(103.470320, 121.342466)" fill="#C4C4C4" fill-rule="nonzero">
                <path d="M20.623516,16.8468493 L20.5858904,16.8468493 L0.159908676,9.40639269 C0.115077988,9.38909845 0.085281466,9.34626595 0.0846575342,9.29821918 C0.0858857673,9.2514709 0.115813063,9.21032086 0.159908676,9.19474886 L27.0574886,0.470319635 C27.0982999,0.456772535 27.1432362,0.469878956 27.1703653,0.503242009 C27.1935255,0.539013841 27.1935255,0.585050086 27.1703653,0.620821918 L20.7269863,16.7763014 C20.7089303,16.8177565 20.668702,16.8451849 20.623516,16.8468493 Z M0.536164384,9.32173516 L20.5623744,16.6069863 L26.9022831,0.771324201 L0.536164384,9.32173516 Z" id="Shape"></path>
            </g>
            <g id="triangle36-36" transform="translate(114.287671, 137.803653)" fill="#C4C4C4" fill-rule="nonzero">
                <path d="M0.315114155,37.4233333 C0.259095947,37.4160409 0.218121438,37.3668715 0.221050228,37.3104566 L2.13995434,2.53031963 C2.14242207,2.4835631 2.17469077,2.44370177 2.21990868,2.43155251 L9.77794521,0.174018265 C9.81551724,0.160287567 9.85763814,0.169444285 9.88611872,0.197534247 C9.91484832,0.225602308 9.92726305,0.266393575 9.9190411,0.305707763 L0.43739726,37.343379 C0.425629517,37.3991714 0.370942722,37.4349281 0.315114155,37.4233333 Z M2.33748858,2.61968037 L0.498538813,36.2146119 L9.6509589,0.470319635 L2.33748858,2.61968037 Z" id="Shape"></path>
            </g>
            <g id="triangle36-37" transform="translate(123.694064, 121.342466)" fill="#C4C4C4" fill-rule="nonzero">
                <path d="M53.5082648,19.4147945 L0.399771689,16.8468493 C0.364001608,16.8430396 0.331525624,16.8242377 0.310410959,16.7951142 C0.293683978,16.7643164 0.293683978,16.7271448 0.310410959,16.696347 L6.78200913,0.536164384 C6.79143728,0.508784158 6.81190779,0.486607775 6.83844749,0.475022831 C6.86589752,0.465705154 6.89565499,0.465705154 6.92310502,0.475022831 L53.5647032,19.2031507 C53.6148106,19.220939 53.6432792,19.2738093 53.6305479,19.3254338 C53.6187847,19.3822044 53.5659262,19.4208318 53.5082648,19.4147945 Z M0.559680365,16.6305023 L52.8592237,19.1608219 L6.92780822,0.719589041 L0.559680365,16.6305023 Z" id="Shape"></path>
            </g>
            <g id="triangle36-38" transform="translate(124.634703, 79.484018)" fill="#C4C4C4" fill-rule="nonzero">
                <path d="M5.9260274,42.5451142 L5.88840183,42.5451142 C5.85160772,42.5287589 5.8252233,42.4953387 5.81785388,42.4557534 L0.371552511,0.310410959 C0.366868975,0.265021578 0.388869241,0.221021046 0.427990868,0.197534247 C0.465545969,0.174671423 0.512718871,0.174671423 0.550273973,0.197534247 L29.606621,22.8810502 C29.6329826,22.9012717 29.6485896,22.9324856 29.6489498,22.9657078 C29.6492574,22.9994068 29.6356438,23.0317388 29.6113242,23.0550685 L5.99657534,42.516895 C5.97683048,42.5338498 5.95201837,42.5437746 5.9260274,42.5451142 Z M0.625525114,0.54086758 L6.01068493,42.2252968 L29.3620548,22.9751142 L0.625525114,0.54086758 Z" id="Shape"></path>
            </g>
            <g id="triangle36-39" transform="translate(124.634703, 68.196347)" fill="#C4C4C4" fill-rule="nonzero">
                <path d="M29.5407763,34.3709589 C29.5150067,34.3667736 29.4916203,34.3534099 29.4749315,34.3333333 L0.413881279,11.6639269 C0.384000985,11.6402629 0.368081434,11.6031173 0.371552511,11.5651598 C0.3771748,11.5262355 0.401885505,11.4926996 0.43739726,11.4757991 L25.75,0.117579909 C25.781458,0.103692936 25.8173092,0.103692936 25.8487671,0.117579909 C25.8794475,0.13577709 25.9002082,0.166918151 25.9052055,0.202237443 L29.6677626,34.2439726 C29.6761333,34.2887291 29.6528225,34.3334082 29.6113242,34.3521461 C29.5913005,34.3676602 29.565866,34.3744427 29.5407763,34.3709589 Z M0.696073059,11.6027854 L29.3855708,34.013516 L25.7123744,0.380958904 L0.696073059,11.6027854 Z" id="Shape"></path>
            </g>
            <g id="triangle36-40" transform="translate(137.803653, 7.525114)" fill="#C4C4C4" fill-rule="nonzero">
                <path d="M12.623379,61.0004566 C12.5794722,60.9923908 12.5444439,60.9592061 12.5340183,60.9157991 L0.43739726,10.7515068 C0.428079583,10.7240568 0.428079583,10.6942993 0.43739726,10.6668493 C0.454043112,10.6417925 0.479043716,10.6234587 0.507945205,10.6151142 L51.6646119,0.470319635 C51.7083393,0.461186472 51.7531834,0.479871495 51.7774886,0.517351598 C51.8027374,0.554202621 51.8027374,0.60278368 51.7774886,0.639634703 L12.7174429,60.9534247 C12.6952374,60.983032 12.6603881,61.0004566 12.623379,61.0004566 Z M0.677260274,10.8173516 L12.6751142,60.6194977 L51.452968,0.752511416 L0.677260274,10.8173516 Z" id="Shape"></path>
            </g>
            <g id="triangle36-41" transform="translate(150.031963, 68.196347)" fill="#C4C4C4" fill-rule="nonzero">
                <path d="M4.14351598,34.3709589 L4.08707763,34.3709589 C4.05654567,34.3533866 4.0370518,34.3214875 4.03534247,34.2863014 L0.272785388,0.24456621 C0.27067933,0.197964404 0.297457474,0.154867911 0.340171692,0.136115328 C0.38288591,0.117362744 0.432735469,0.126817807 0.465616438,0.159908676 L23.5583105,25.5571689 C23.5817588,25.5843529 23.5920773,25.6204675 23.5865297,25.6559361 C23.5768719,25.6895677 23.5527369,25.7171505 23.5206849,25.7311872 L4.17173516,34.3850685 C4.16138423,34.3825559 4.15173661,34.3777321 4.14351598,34.3709589 Z M0.545570776,0.545570776 L4.23757991,34.0981735 L23.3090411,25.5712785 L0.545570776,0.545570776 Z" id="Shape"></path>
            </g>
            <g id="triangle36-42" transform="translate(150.031963, 68.196347)" fill="#C4C4C4" fill-rule="nonzero">
                <path d="M23.4924658,25.7170776 C23.4628685,25.7154153 23.4346977,25.7038156 23.4125114,25.6841553 L0.319817352,0.286894977 C0.290019703,0.248055259 0.290019703,0.194045198 0.319817352,0.155205479 C0.342264573,0.112773494 0.39094821,0.091352694 0.43739726,0.10347032 L39.5773973,10.1494977 C39.6164386,10.1599169 39.6469324,10.1904107 39.6573516,10.2294521 C39.6655736,10.2687662 39.6531588,10.3095575 39.6244292,10.3376256 L23.5818265,25.6794521 C23.559643,25.7053885 23.5265203,25.7193349 23.4924658,25.7170776 Z M0.728995434,0.418584475 L23.4971689,25.4489954 L39.3140183,10.347032 L0.728995434,0.418584475 Z" id="Shape"></path>
            </g>
            <g id="triangle36-43" transform="translate(150.031963, 7.995434)" fill="#C4C4C4" fill-rule="nonzero">
                <path d="M39.5350685,70.5761644 L39.5068493,70.5761644 L0.371552511,60.530137 C0.336562554,60.5201273 0.308545349,60.4938611 0.29630137,60.459589 C0.279574389,60.4287913 0.279574389,60.3916197 0.29630137,60.3608219 L39.3328311,0.0658447489 C39.3583832,0.0244590139 39.4084149,0.00521602991 39.4551142,0.0188127854 C39.5019548,0.0314683214 39.5346385,0.0737648174 39.5350685,0.122283105 L39.6150228,70.4679909 C39.6143343,70.5022579 39.5967218,70.5339604 39.5679909,70.5526484 C39.5585226,70.5624059 39.5473693,70.5703725 39.5350685,70.5761644 Z M0.573789954,60.3514155 L39.426895,70.3221918 L39.3516438,0.498538813 L0.573789954,60.3514155 Z" id="Shape"></path>
            </g>
            <g id="triangle36-44" transform="translate(114.287671, 137.803653)" fill="#C4C4C4" fill-rule="nonzero">
                <path d="M0.315114155,37.4233333 C0.284025547,37.4240779 0.25440175,37.4101373 0.235159817,37.3857078 C0.208114304,37.3586367 0.197383676,37.319291 0.206940639,37.2822374 L9.72150685,0.24456621 C9.73277516,0.210306351 9.75859239,0.182767968 9.79205479,0.169315068 C9.82351275,0.155428096 9.85936396,0.155428096 9.89082192,0.169315068 L50.0984475,27.9416895 C50.1348446,27.967729 50.1524208,28.0128123 50.1432526,28.0566158 C50.1340844,28.1004193 50.0999035,28.1346697 50.0561187,28.1439269 L0.34803653,37.4186301 L0.315114155,37.4233333 Z M9.87200913,0.470319635 L0.465616438,37.1834703 L49.7174886,28.0028311 L9.87200913,0.470319635 Z" id="Shape"></path>
            </g>
            <g id="triangle36-45" transform="translate(114.287671, 165.552511)" fill="#C4C4C4" fill-rule="nonzero">
                <path d="M29.7194977,23.9345662 L29.6724658,23.9345662 L0.277488584,9.66977169 C0.234572241,9.6496124 0.209786554,9.60385421 0.216347032,9.55689498 C0.224573677,9.51045642 0.259751831,9.47342679 0.305707763,9.46283105 L49.9949772,0.197534247 C50.0405874,0.191592058 50.0852415,0.213919084 50.1078539,0.253972603 C50.1339213,0.292288085 50.1339213,0.342643422 50.1078539,0.380958904 L29.8135616,23.8969406 C29.7887843,23.9219884 29.7547143,23.9356164 29.7194977,23.9345662 Z M0.677260274,9.60863014 L29.6912785,23.69 L49.726895,0.470319635 L0.677260274,9.60863014 Z" id="Shape"></path>
            </g>
            <g id="triangle36-46" transform="translate(123.694064, 137.803653)" fill="#C4C4C4" fill-rule="nonzero">
                <path d="M40.6073973,28.1580365 C40.587299,28.1628332 40.566354,28.1628332 40.5462557,28.1580365 L0.338630137,0.3856621 C0.295354058,0.359389061 0.277444331,0.305659878 0.29630137,0.258675799 C0.312456456,0.212963825 0.355998005,0.182674052 0.404474886,0.183424658 L53.512968,2.75136986 C53.551715,2.75350763 53.5869118,2.77462576 53.607032,2.80780822 C53.6237708,2.8402674 53.6237708,2.87881936 53.607032,2.91127854 L40.7061644,28.1157078 C40.6925374,28.1443357 40.6665374,28.1651357 40.6356164,28.1721461 L40.6073973,28.1580365 Z M0.780730594,0.409178082 L40.5650685,27.8899543 L53.3342466,2.9630137 L0.780730594,0.409178082 Z" id="Shape"></path>
            </g>
            <g id="triangle36-47" transform="translate(143.447489, 165.552511)" fill="#C4C4C4" fill-rule="nonzero">
                <path d="M14.3212329,28.8211872 L14.2883105,28.8211872 L0.522054795,23.9392694 C0.488592394,23.9258165 0.46277516,23.8982781 0.451506849,23.8640183 C0.435515633,23.8313817 0.435515633,23.7931845 0.451506849,23.7605479 L20.7457991,0.24456621 C20.7805606,0.206504129 20.8366913,0.196826428 20.8821918,0.221050228 C20.9259245,0.244893902 20.9488586,0.29458447 20.9386301,0.343333333 L14.4247032,28.7318265 C14.4194101,28.7633166 14.4004746,28.7908593 14.372968,28.8070776 L14.3212329,28.8211872 Z M0.747808219,23.7746575 L14.2412785,28.5625114 L20.647032,0.710182648 L0.747808219,23.7746575 Z" id="Shape"></path>
            </g>
            <g id="triangle36-48" transform="translate(157.557078, 165.552511)" fill="#C4C4C4" fill-rule="nonzero">
                <path d="M0.211643836,28.8211872 C0.18025649,28.8188421 0.15127378,28.8034983 0.131689498,28.7788584 C0.107940939,28.7537735 0.0990235793,28.7181041 0.108173516,28.6847945 L6.63621005,0.272785388 C6.64489869,0.234438414 6.67371068,0.203825683 6.71146119,0.19283105 C6.74997226,0.182467188 6.79109394,0.193194584 6.8196347,0.221050228 L33.2374886,25.7358904 C33.2691623,25.764163 33.2803504,25.8089154 33.2657078,25.8487671 C33.2514767,25.8898834 33.2148811,25.9191599 33.1716438,25.9240183 L0.206940639,28.816484 L0.211643836,28.8211872 Z M6.79611872,0.512648402 L0.343333333,28.5860274 L32.912968,25.726484 L6.79611872,0.512648402 Z" id="Shape"></path>
            </g>
            <g id="triangle36-49" transform="translate(164.141553, 140.155251)" fill="#C4C4C4" fill-rule="nonzero">
                <path d="M0.159908676,25.8064384 C0.131105514,25.8075741 0.103371755,25.7954406 0.0846575342,25.773516 C0.0496393521,25.7410232 0.0400808882,25.6894075 0.0611415525,25.6465297 L12.9620091,0.442100457 C12.9760431,0.410990047 13.0039358,0.388327188 13.0372603,0.380958904 C13.0690082,0.37627426 13.1012914,0.384769842 13.126621,0.404474886 L27.593653,11.5275342 C27.6214968,11.5506962 27.6371124,11.5853977 27.6359817,11.6215982 C27.6306177,11.6592767 27.6080162,11.6923096 27.5748402,11.7109589 L0.216347032,25.7923288 C0.199175605,25.8020974 0.179656919,25.806977 0.159908676,25.8064384 Z M13.0984018,0.658447489 L0.399771689,25.439589 L27.3020548,11.593379 L13.0984018,0.658447489 Z" id="Shape"></path>
            </g>
            <g id="triangle36-50" transform="translate(164.141553, 154.264840)" fill="#C4C4C4" fill-rule="nonzero">
                <path d="M26.5918721,37.2116895 C26.563069,37.2128253 26.5353352,37.2006918 26.516621,37.1787671 L0.0846575342,11.6639269 C0.0550142841,11.6384281 0.0422770708,11.5983968 0.0517351598,11.5604566 C0.0604238081,11.5221096 0.0892357905,11.4914969 0.126986301,11.4805023 L37.9218721,0.19283105 C37.9617239,0.178188435 38.0064762,0.189376529 38.0347489,0.221050228 C38.0626045,0.249590991 38.0733319,0.290712676 38.062968,0.329223744 L26.6953425,37.1552511 C26.6860692,37.1923006 26.6571408,37.2212291 26.6200913,37.2305023 L26.5918721,37.2116895 Z M0.371552511,11.6357078 L26.540137,36.8965753 L37.7901826,0.470319635 L0.371552511,11.6357078 Z" id="Shape"></path>
            </g>
            <g id="triangle36-51" transform="translate(164.141553, 151.442922)" fill="#C4C4C4" fill-rule="nonzero">
                <path d="M0.159908676,14.5187671 C0.11472269,14.5171027 0.0744943633,14.4896743 0.0564383562,14.4482192 C0.0380441642,14.3962212 0.0599214128,14.3385448 0.108173516,14.3118265 L27.4666667,0.225753425 C27.4924999,0.216413729 27.5207878,0.216413729 27.546621,0.225753425 L37.9830137,3.01004566 C38.0307324,3.02535037 38.0642832,3.0682209 38.0676712,3.11821918 C38.0663142,3.16746667 38.0343989,3.21064621 37.9877169,3.22639269 L0.19283105,14.5140639 L0.159908676,14.5187671 Z M27.5325114,0.442100457 L1.25575342,13.96379 L37.53621,3.11821918 L27.5325114,0.442100457 Z" id="Shape"></path>
            </g>
            <g id="triangle36-52" transform="translate(0.940639, 161.319635)" fill="#C4C4C4" fill-rule="nonzero">
                <path d="M0.145799087,18.6857991 C0.100613101,18.6841346 0.0603847743,18.6567062 0.0423287671,18.6152511 C0.0237130745,18.5657595 0.0436045839,18.5100633 0.0893607306,18.4835616 L31.3891324,0.14109589 C31.4161798,0.129595073 31.4467426,0.129595073 31.47379,0.14109589 C31.5025144,0.149797728 31.5274045,0.168050524 31.5443379,0.19283105 L38.0159361,11.7156621 C38.0326631,11.7464598 38.0326631,11.7836315 38.0159361,11.8144292 C38.0003494,11.846222 37.9707477,11.8688586 37.9359817,11.8755708 L0.159908676,18.6857991 L0.145799087,18.6857991 Z M31.4079452,0.399771689 L0.738401826,18.3424658 L37.7478539,11.6733333 L31.4079452,0.399771689 Z" id="Shape"></path>
            </g>
            <g id="triangle36-53" transform="translate(31.981735, 157.557078)" fill="#C4C4C4" fill-rule="nonzero">
                <path d="M6.89958904,15.6428311 C6.86465898,15.6403067 6.83311232,15.6210281 6.81493151,15.5910959 L0.315114155,4.06356164 C0.298387174,4.0327639 0.298387174,3.99559226 0.315114155,3.96479452 C0.328602604,3.93134398 0.359252437,3.90790587 0.395068493,3.90365297 L19.7157991,0.0611415525 C19.7619406,0.052228972 19.8087766,0.0728368182 19.833379,0.112876712 C19.8594464,0.151192195 19.8594464,0.201547531 19.833379,0.239863014 L6.97954338,15.6005023 C6.96130045,15.6267059 6.93151566,15.6424744 6.89958904,15.6428311 Z M0.602009132,4.08707763 L6.89958904,15.3371233 L19.4477169,0.338630137 L0.602009132,4.08707763 Z" id="Shape"></path>
            </g>
            <g id="triangle36-54" transform="translate(93.123288, 71.958904)" fill="#C4C4C4">
                <path d="M0.418584475,23.6288584 L0.390365297,23.6288584 C0.331007917,23.612767 0.295456002,23.5521196 0.310410959,23.4924658 L6.38223744,0.112876712 C6.38891338,0.0847016016 6.40660628,0.0603790481 6.43135685,0.0453519194 C6.45610741,0.0303247907 6.48584931,0.025847646 6.51392694,0.0329223744 C6.57328432,0.0490138269 6.60883624,0.109661212 6.59388128,0.169315068 L0.522054795,23.5489041 C0.510909947,23.5967337 0.467678642,23.6301397 0.418584475,23.6288584 Z" id="Path"></path>
            </g>
            <g id="triangle36-55" transform="translate(93.123288, 71.958904)" fill="#C4C4C4" fill-rule="nonzero">
                <path d="M0.418584475,23.6288584 C0.392146588,23.6297909 0.366538119,23.6195475 0.34803653,23.6006393 C0.315072595,23.5732147 0.300494528,23.5294805 0.310410959,23.4877626 L6.38223744,0.108173516 C6.38749526,0.0790035222 6.40687474,0.054338726 6.4339726,0.0423287671 C6.46040165,0.0281138298 6.49220109,0.0281138298 6.51863014,0.0423287671 L32.0240639,7.71794521 C32.0677426,7.73239067 32.0989841,7.7709832 32.1040183,7.81671233 C32.107104,7.86175267 32.0830558,7.90429955 32.0428767,7.92488584 L0.465616438,23.6241553 C0.450645415,23.6299159 0.434399766,23.6315405 0.418584475,23.6288584 Z M6.5656621,0.277488584 L0.583196347,23.3231507 L31.6948402,7.8543379 L6.5656621,0.277488584 Z" id="Shape"></path>
            </g>
            <g id="triangle36-56" transform="translate(93.123288, 95.004566)" fill="#C4C4C4" fill-rule="nonzero">
                <path d="M9.41109589,30.2744749 C9.36136129,30.274565 9.31742824,30.2420928 9.30292237,30.1945205 L0.315114155,0.503242009 C0.302140047,0.457636328 0.319050514,0.408783867 0.357442922,0.380958904 C0.395318477,0.353499916 0.446553669,0.353499916 0.484429224,0.380958904 L37.5032877,26.8082192 C37.5408989,26.8344743 37.5578625,26.8815954 37.5456164,26.9257991 C37.5353368,26.9702852 37.4971136,27.0027749 37.4515525,27.0057534 L9.42050228,30.2556621 L9.41109589,30.2744749 Z M0.616118721,0.747808219 L9.48634703,30.0440183 L37.1411416,26.8364384 L0.616118721,0.747808219 Z" id="Shape"></path>
            </g>
            <g id="triangle36-57" transform="translate(93.123288, 79.484018)" fill="#C4C4C4" fill-rule="nonzero">
                <path d="M37.4374429,42.5451142 C37.417631,42.5519226 37.3961133,42.5519226 37.3763014,42.5451142 L0.352739726,16.0990411 C0.321769362,16.0758603 0.304182897,16.0389287 0.305707763,16.000274 C0.311071843,15.9625954 0.3336733,15.9295625 0.366849315,15.9109132 L31.9441096,0.211643836 C31.9761234,0.193160643 32.0155661,0.193160643 32.0475799,0.211643836 C32.0777968,0.230325142 32.0983959,0.261223742 32.1040183,0.29630137 L37.5503196,42.4416438 C37.5531511,42.485405 37.5313943,42.5271055 37.4938813,42.5498174 C37.4749745,42.5530713 37.4555503,42.5514526 37.4374429,42.5451142 Z M0.630228311,15.9908676 L37.3151598,42.1782648 L31.9017808,0.470319635 L0.630228311,15.9908676 Z" id="Shape"></path>
            </g>
            <g id="triangle36-58" transform="translate(82.776256, 124.634703)" fill="#C4C4C4" fill-rule="nonzero">
                <path d="M0.48913242,21.4418721 C0.45860264,21.440203 0.429923742,21.426707 0.409178082,21.4042466 C0.370853578,21.3613985 0.370853578,21.2965924 0.409178082,21.2537443 L19.6922831,0.456210046 C19.7212157,0.425646784 19.7652484,0.414638611 19.8051598,0.427990868 C19.8454334,0.439224122 19.8761987,0.471799093 19.8851142,0.512648402 L21.0091781,5.98716895 C21.0161284,6.02827694 20.9998533,6.06986875 20.9668493,6.09534247 L0.569086758,21.4183562 C0.545411111,21.4340666 0.517543733,21.4422629 0.48913242,21.4418721 Z M19.6922831,0.747808219 L1.40625571,20.5012329 L20.7693151,5.95894977 L19.6922831,0.747808219 Z" id="Shape"></path>
            </g>
            <g id="triangle36-59" transform="translate(82.776256, 130.278539)" fill="#C4C4C4" fill-rule="nonzero">
                <path d="M0.48913242,15.7980365 C0.44639558,15.7965685 0.408157611,15.7710766 0.390365297,15.7321918 C0.371570108,15.6843276 0.384727413,15.6298188 0.423287671,15.5957991 L20.8210502,0.277488584 C20.8622923,0.249778868 20.9162008,0.249778868 20.9574429,0.277488584 L33.8253881,9.97077626 C33.8604723,9.9967071 33.8755225,10.0418578 33.8630137,10.083653 C33.8533173,10.1257459 33.8204491,10.1586141 33.7783562,10.1683105 L0.507945205,15.8121461 L0.48913242,15.7980365 Z M20.8915982,0.503242009 L0.921826484,15.5205479 L33.486758,10.0084018 L20.8915982,0.503242009 Z" id="Shape"></path>
            </g>
            <g id="triangle36-60" transform="translate(82.776256, 140.155251)" fill="#C4C4C4" fill-rule="nonzero">
                <path d="M31.8265297,35.0717352 C31.7982016,35.0706007 31.7713377,35.0588478 31.7512785,35.0388128 L0.399771689,5.87899543 C0.37001925,5.85155948 0.358993876,5.80929554 0.371552511,5.77082192 C0.384490727,5.72984334 0.418753681,5.69918701 0.460913242,5.69086758 L33.726621,0.0470319635 C33.7592045,0.0416376081 33.7924056,0.0521221599 33.8159817,0.0752511416 C33.8432874,0.0964088247 33.8575552,0.130294791 33.8536073,0.164611872 L31.9347032,34.9682648 C31.9344451,35.0117265 31.9058062,35.0499117 31.8641553,35.0623288 L31.8265297,35.0717352 Z M0.728995434,5.87899543 L31.7418721,34.7189954 L33.6231507,0.315114155 L0.728995434,5.87899543 Z" id="Shape"></path>
            </g>
            <g id="triangle36-61" transform="translate(176.840183, 93.123288)" fill="#C4C4C4">
                <path d="M38.7214155,23.2478995 L0.54086758,47.2812329 L12.8679452,0.719589041 L38.7778539,11.6639269 L38.7778539,11.4287671 L12.8350228,0.465616438 C12.8048242,0.453575456 12.7711575,0.453575456 12.7409589,0.465616438 C12.7127564,0.479774503 12.6921425,0.505541917 12.6845205,0.536164384 L0.253972603,47.5022831 C0.244362549,47.546351 0.260807866,47.5920324 0.29630137,47.619863 C0.317761861,47.6264068 0.340685628,47.6264068 0.362146119,47.619863 C0.382061324,47.626022 0.403372466,47.626022 0.423287671,47.619863 L38.7214155,23.5159817 L38.7214155,23.2478995 Z" id="Path"></path>
            </g>
            <g id="triangle36-62" transform="translate(176.840183, 116.168950)" fill="#C4C4C4">
                <path d="M38.6179452,20.2660731 L0.823059361,24.3155251 L38.7214155,0.470319635 L38.7214155,0.206940639 L0.315114155,24.3860731 C0.268319589,24.4093014 0.2477077,24.4649535 0.268082192,24.5130594 C0.281072968,24.5590159 0.323829095,24.5901113 0.371552511,24.5883105 L38.613242,20.4871233 L38.6179452,20.2660731 Z" id="Path"></path>
            </g>
            <g id="triangle36-63" transform="translate(189.068493, 93.123288)" fill="#C4C4C4">
                <path d="M26.5542466,11.4052511 L1.19931507,0.691369863 L26.5965753,2.1916895 L26.5965753,1.97063927 L0.569086758,0.43739726 C0.542849108,0.433375402 0.516096966,0.440083935 0.49486168,0.456010399 C0.473626395,0.471936863 0.459695604,0.495740531 0.456210046,0.522054795 C0.444414269,0.573470213 0.469802312,0.626199226 0.517351598,0.649041096 L26.5448402,11.640411 L26.5542466,11.4052511 Z" id="Path"></path>
            </g>
            <g id="triangle36-64" transform="translate(38.566210, 157.086758)" fill="#C4C4C4" fill-rule="nonzero">
                <path d="M0.315114155,16.1131507 C0.280847101,16.1124621 0.249144597,16.0948496 0.230456621,16.0661187 C0.198183733,16.0263817 0.198183733,15.969463 0.230456621,15.929726 L13.079589,0.569086758 C13.1007381,0.544484311 13.1318129,0.530673282 13.1642466,0.531461187 L38.5615068,0.442100457 C38.6139469,0.443137197 38.6587635,0.480159557 38.6696804,0.531461187 C38.6796688,0.584064586 38.6496712,0.636060447 38.5991324,0.653744292 L0.315114155,16.1037443 L0.315114155,16.1131507 Z M13.2206849,0.752511416 L0.686666667,15.7321918 L37.9971233,0.68196347 L13.2206849,0.752511416 Z" id="Shape"></path>
            </g>
            <g id="triangle36-65" transform="translate(38.566210, 157.086758)" fill="#C4C4C4" fill-rule="nonzero">
                <path d="M31.2245205,41.2094064 C31.2002894,41.2108359 31.1765193,41.2023465 31.1586758,41.1858904 L0.225753425,16.0849315 C0.194314616,16.0624907 0.177992948,16.0244068 0.183424658,15.9861644 C0.189989884,15.9462192 0.216641712,15.9124602 0.253972603,15.8968037 L38.5050685,0.470319635 C38.5385375,0.450996297 38.579773,0.450996297 38.613242,0.470319635 C38.6454213,0.496403901 38.661501,0.537496475 38.6555708,0.578493151 L31.35621,41.1200457 C31.3468016,41.1575299 31.3208352,41.1886895 31.2856621,41.2047032 L31.2245205,41.2094064 Z M0.507945205,16.0331963 L31.1492694,40.9178082 L38.4110046,0.728995434 L0.507945205,16.0331963 Z" id="Shape"></path>
            </g>
            <g id="triangle36-66" transform="translate(51.264840, 145.799087)" fill="#C4C4C4" fill-rule="nonzero">
                <path d="M0.446803653,12.0401826 C0.394651113,12.0369486 0.351535486,11.9983428 0.342582443,11.9468628 C0.333629401,11.8953828 0.361179578,11.8444873 0.409178082,11.8238356 L31.9629224,0.0658447489 C32.006519,0.0493197936 32.0557986,0.062587364 32.0852055,0.0987671233 C32.1134722,0.134627607 32.1134722,0.185189744 32.0852055,0.221050228 L25.9287215,11.8943836 C25.9112113,11.9307013 25.8749564,11.954267 25.8346575,11.9555251 L0.43739726,12.0448858 L0.446803653,12.0401826 Z M31.7700913,0.371552511 L1.06292237,11.8144292 L25.7829224,11.7297717 L31.7700913,0.371552511 Z" id="Shape"></path>
            </g>
            <g id="triangle36-67" transform="translate(69.607306, 157.086758)" fill="#C4C4C4" fill-rule="nonzero">
                <path d="M0.183424658,41.2094064 C0.163612762,41.2162149 0.142095,41.2162149 0.122283105,41.2094064 C0.0865962567,41.1858197 0.0681608628,41.1434183 0.0752511416,41.1012329 L7.39812785,0.550273973 C7.40214762,0.516909447 7.4236618,0.488223874 7.45456621,0.475022831 C7.48536395,0.45829585 7.52253559,0.45829585 7.55333333,0.475022831 L45.056621,17.9521005 C45.0955851,17.969506 45.1206746,18.0081926 45.1206746,18.0508676 C45.1206746,18.0935425 45.0955851,18.1322292 45.056621,18.1496347 L0.235159817,41.223516 C0.216911037,41.2239321 0.198935409,41.2190297 0.183424658,41.2094064 Z M7.58625571,0.714885845 L0.315114155,40.9178082 L44.7368037,18.0508676 L7.58625571,0.714885845 Z" id="Shape"></path>
            </g>
            <g id="triangle36-68" transform="translate(76.662100, 145.799087)" fill="#C4C4C4" fill-rule="nonzero">
                <path d="M37.9406849,29.4278995 C37.9253622,29.4326148 37.9089757,29.4326148 37.893653,29.4278995 L0.390365297,11.9555251 C0.361340558,11.9435412 0.338955687,11.9195364 0.329025688,11.8897464 C0.319095689,11.8599564 0.322600673,11.8273216 0.338630137,11.8003196 L6.49511416,0.126986301 C6.51092104,0.097299039 6.53963731,0.0766531355 6.57281288,0.0711238736 C6.60598845,0.0655946117 6.63984846,0.0758111363 6.66442922,0.0987671233 L38.0159361,29.2585845 C38.0508301,29.2991443 38.0508301,29.3591205 38.0159361,29.3996804 C37.9954071,29.4184015 37.9684618,29.428506 37.9406849,29.4278995 Z M0.587899543,11.78621 L37.3527854,28.9199543 L6.62210046,0.343333333 L0.587899543,11.78621 Z" id="Shape"></path>
            </g>
            <g id="triangle36-69" transform="translate(201.767123, 146.739726)" fill="#C4C4C4">
                <path d="M13.5734247,12.6327854 L0.587899543,7.79789954 L13.6392694,0.305707763 L13.6392694,0.0517351598 L0.272785388,7.7226484 C0.236997509,7.74424604 0.216855611,7.78452984 0.221050228,7.82611872 C0.221308358,7.86958037 0.249947271,7.90776558 0.291598174,7.92018265 L13.5734247,12.8679452 L13.5734247,12.6327854 Z" id="Path"></path>
            </g>
            <g id="triangle36-70" transform="translate(99.237443, 54.557078)" fill="#C4C4C4">
                <path d="M0.371552511,17.6463927 C0.335618254,17.6473017 0.30178706,17.6294958 0.282191781,17.5993607 C0.250930582,17.5495069 0.263212901,17.4840012 0.310410959,17.4488584 L25.797032,0.399771689 C25.8490557,0.36640417 25.9182402,0.381079656 25.9522374,0.432694064 C25.968036,0.456959477 25.9734469,0.486545752 25.9672593,0.514832111 C25.9610716,0.543118471 25.943802,0.567743394 25.9193151,0.583196347 L0.432694064,17.6322831 C0.414689157,17.6442225 0.392968546,17.6492349 0.371552511,17.6463927 Z" id="Path"></path>
            </g>
            <g id="triangle36-71" transform="translate(99.237443, 54.557078)" fill="#C4C4C4" fill-rule="nonzero">
                <path d="M25.8769863,25.3267123 L25.8487671,25.3267123 L0.343333333,17.6463927 C0.300379529,17.6366582 0.268295626,17.6007997 0.263378995,17.557032 C0.2592815,17.5165892 0.277246167,17.477067 0.310410959,17.4535616 L25.797032,0.404474886 C25.8324069,0.386070496 25.8745337,0.386070496 25.9099087,0.404474886 C25.9477364,0.422734276 25.971574,0.461241165 25.9710502,0.503242009 L25.9710502,25.2279452 C25.9700246,25.2610029 25.9545523,25.2919476 25.9287215,25.3126027 C25.912934,25.3215736 25.8951423,25.3264259 25.8769863,25.3267123 Z M0.630228311,17.5005936 L25.7688128,25.0680365 L25.7688128,0.700776256 L0.630228311,17.5005936 Z" id="Shape"></path>
            </g>
            <g id="triangle36-72" transform="translate(124.634703, 54.557078)" fill="#C4C4C4" fill-rule="nonzero">
                <path d="M0.479726027,25.3267123 C0.461407212,25.3328092 0.441606486,25.3328092 0.423287671,25.3267123 C0.39060556,25.3090293 0.370614344,25.274499 0.371552511,25.2373516 L0.371552511,0.512648402 C0.370925089,0.474344958 0.390603283,0.438566423 0.423287671,0.418584475 C0.456140221,0.397083238 0.498608638,0.397083238 0.531461187,0.418584475 L25.8675799,13.7850685 C25.9028697,13.8076186 25.9241648,13.8466598 25.9240183,13.8885388 C25.9230761,13.9303122 25.8971012,13.9674192 25.8581735,13.9826027 L0.545570776,25.3408219 L0.479726027,25.3267123 Z M0.573789954,0.677260274 L0.573789954,25.0445205 L25.5242466,13.8509132 L0.573789954,0.677260274 Z" id="Shape"></path>
            </g>
            <g id="triangle36-73" transform="translate(124.634703, 17.872146)" fill="#C4C4C4" fill-rule="nonzero">
                <path d="M25.7923288,50.6534247 L25.7452968,50.6534247 L0.409178082,37.2775342 C0.360925979,37.2508159 0.33904873,37.1931395 0.357442922,37.1411416 L13.6110502,0.343333333 C13.6259067,0.296647542 13.6702855,0.265775356 13.7192237,0.268082192 C13.7674522,0.273281039 13.808048,0.306495812 13.8226941,0.352739726 L25.9005023,50.517032 C25.9130111,50.5588271 25.8979609,50.6039778 25.8628767,50.6299087 C25.843589,50.6471047 25.8180765,50.6556088 25.7923288,50.6534247 Z M0.597305936,37.127032 L25.6324201,50.3242009 L13.6910046,0.761917808 L0.597305936,37.127032 Z" id="Shape"></path>
            </g>
            <g id="triangle36-74" transform="translate(190.479452, 154.264840)" fill="#C4C4C4">
                <path d="M24.7717352,20.4071689 L0.43739726,36.8354338 L11.6451142,0.526757991 L24.7858447,17.4347489 L24.7858447,17.0773059 L11.6921461,0.225753425 C11.6660619,0.193574146 11.6249693,0.177494443 11.5839726,0.183424658 C11.5438266,0.190549025 11.5110971,0.219641904 11.4993151,0.258675799 L0.136392694,37.0705936 C0.121618592,37.1137956 0.136907859,37.1615746 0.174018265,37.1881735 C0.192924432,37.2027835 0.215979051,37.2110173 0.239863014,37.2116895 C0.259778219,37.2178485 0.281089361,37.2178485 0.301004566,37.2116895 L24.7717352,20.6940639 L24.7717352,20.4071689 Z" id="Path"></path>
            </g>
            <g id="triangle36-75" transform="translate(190.479452, 174.488584)" fill="#C4C4C4">
                <path d="M24.6682648,22.8293151 L0.522054795,16.8280365 L24.7717352,0.470319635 L24.7717352,0.202237443 L0.178721461,16.8045205 C0.141241358,16.8288258 0.122556335,16.8736698 0.131689498,16.9173973 C0.137102987,16.9599973 0.169422379,16.9942178 0.211643836,17.0020548 L24.6682648,23.0738813 L24.6682648,22.8293151 Z" id="Path"></path>
            </g>
            <g id="triangle36-76" transform="translate(201.767123, 154.264840)" fill="#C4C4C4">
                <path d="M13.5122831,17.0773059 L0.653744292,0.531461187 L13.5734247,5.34283105 L13.5734247,5.10767123 L0.366849315,0.188127854 C0.320837305,0.171909269 0.269612772,0.187086908 0.239863014,0.225753425 C0.209289676,0.266077742 0.209289676,0.321821802 0.239863014,0.362146119 L13.5075799,17.4347489 L13.5122831,17.0773059 Z" id="Path"></path>
            </g>
            <path d="M196.786438,0.442100457 C196.150058,0.439508286 195.632067,0.953293451 195.629471,1.58967404 C195.626876,2.22605464 196.140658,2.74404826 196.777038,2.7466475 C197.413419,2.74924674 197.931415,2.23546732 197.934018,1.59908676 C197.935268,1.29348151 197.815064,0.999896801 197.599851,0.782919226 C197.384637,0.565941651 197.092044,0.443345279 196.786438,0.442100457 Z" id="Path" fill="#C4C4C4"></path>
            <path d="M196.786438,0.442100457 C197.252913,0.444019962 197.672211,0.726996431 197.848514,1.15887573 C198.024816,1.59075503 197.923338,2.08632383 197.59147,2.41414427 C197.259602,2.74196472 196.762826,2.83735514 196.333142,2.65576683 C195.903459,2.47417852 195.625648,2.05144033 195.629452,1.58497717 C195.637178,0.951508213 196.152922,0.442053346 196.786438,0.442100457 Z M196.786438,1.76701237e-16 C196.141157,-0.00380419656 195.557208,0.381724351 195.307191,0.976614196 C195.057173,1.57150404 195.19039,2.25844 195.644655,2.7167484 C196.098919,3.1750568 196.784648,3.31435698 197.38173,3.06962119 C197.978812,2.8248854 198.369501,2.24437674 198.371416,1.59908676 C198.374037,0.722181097 197.668017,0.00775634461 196.791142,-2.8175704e-16 L196.786438,1.76701237e-16 Z" id="Shape" fill="#231F20" fill-rule="nonzero"></path>
            <path d="M16.1413699,188.344201 C15.8537075,188.342296 15.5933091,188.514113 15.4819029,188.779334 C15.3704967,189.044554 15.4300905,189.350785 15.6328261,189.554872 C15.8355617,189.758959 16.1413894,189.820586 16.4073443,189.710945 C16.6732993,189.601303 16.846843,189.342052 16.8468493,189.054384 C16.8481021,188.866465 16.7743285,188.685813 16.6418894,188.552491 C16.5094503,188.419169 16.3292924,188.344197 16.1413699,188.344201 Z" id="Path" fill="#C4C4C4"></path>
            <path d="M16.1413699,188.344201 C16.5335802,188.346807 16.8494185,188.666866 16.8468182,189.059076 C16.844218,189.451287 16.5241637,189.76713 16.1319533,189.764535 C15.7397429,189.76194 15.4238952,189.441891 15.426484,189.04968 C15.4277273,188.861327 15.5037448,188.681182 15.6378128,188.548878 C15.7718808,188.416574 15.9530165,188.342949 16.1413699,188.344201 Z M16.1413699,187.9021 C15.5049893,187.899508 14.9869985,188.413293 14.9844028,189.049674 C14.9818071,189.686055 15.4955894,190.204048 16.1319699,190.206647 C16.7683505,190.209247 17.286347,189.695467 17.2889498,189.059087 C17.2901997,188.753482 17.1699959,188.459897 16.9547823,188.242919 C16.7395688,188.025942 16.4469751,187.903345 16.1413699,187.9021 Z" id="Shape" fill="#231F20" fill-rule="nonzero"></path>
            <path d="M29.4749315,196.560685 C29.0731029,196.54338 28.7012703,196.772619 28.5362348,197.139401 C28.3711993,197.506183 28.4462599,197.936503 28.7257262,198.225751 C29.0051926,198.514998 29.4326774,198.604812 29.8049176,198.452487 C30.1771577,198.300162 30.4190472,197.936433 30.4155708,197.534247 C30.408701,197.012086 29.9965465,196.585507 29.4749315,196.560685 Z" id="Path" fill="#C4C4C4"></path>
            <path d="M29.4749315,196.560685 C30.0178006,196.563289 30.4557734,197.005479 30.4531739,197.548349 C30.4505743,198.091218 30.0083868,198.529194 29.4655177,198.526598 C28.9226486,198.524003 28.484669,198.081819 28.4872603,197.53895 C28.4924205,196.997151 28.9331082,196.56066 29.4749315,196.560685 Z M29.4749315,196.118584 C28.6987655,196.118692 28.06843,196.745681 28.0641896,197.521835 C28.0599493,198.297989 28.6833966,198.931828 29.4595151,198.940416 C30.2356336,198.949004 30.8729543,198.329118 30.8858904,197.553059 C30.8921957,197.174792 30.7463298,196.809838 30.4810372,196.540124 C30.2157446,196.27041 29.8532513,196.118532 29.4749315,196.118584 Z" id="Shape" fill="#231F20" fill-rule="nonzero"></path>
            <path d="M210.750228,80.0154795 C210.280694,80.0154866 209.899824,80.3956654 209.898964,80.8651989 C209.898104,81.3347325 210.277579,81.7163037 210.74711,81.7180308 C211.216641,81.7197578 211.598913,81.3409884 211.601507,80.8714612 C211.604032,80.6444924 211.515308,80.4260163 211.35525,80.2650736 C211.195192,80.104131 210.977208,80.0142044 210.750228,80.0154795 Z" id="Path" fill="#C4C4C4"></path>
            <path d="M210.750228,80.0154795 C211.220366,80.0180841 211.599378,80.4013148 211.596778,80.8714524 C211.594178,81.34159 211.210951,81.7206056 210.740813,81.7180105 C210.270676,81.7154154 209.891656,81.3321924 209.894247,80.8620548 C209.899401,80.3929867 210.281132,80.0154511 210.750228,80.0154795 Z M210.750228,79.573379 C210.035942,79.5682031 209.4527,80.1430435 209.447511,80.8573293 C209.442323,81.571615 210.017153,82.1548676 210.731439,82.1600687 C211.445724,82.1652698 212.028987,81.5904499 212.034201,80.8761644 C212.036827,80.1628957 211.46346,79.5811271 210.750228,79.573379 Z" id="Shape" fill="#231F20" fill-rule="nonzero"></path>
            <circle id="Oval" fill="#C4C4C4" cx="154.175479" cy="102.459132" r="1.46269406"></circle>
            <path d="M154.180183,100.996438 C154.772209,100.998354 155.304697,101.356958 155.529049,101.904831 C155.753401,102.452704 155.625367,103.081789 155.204722,103.49839 C154.784076,103.914991 154.153783,104.036941 153.608104,103.807306 C153.062424,103.577671 152.708981,103.041743 152.712785,102.449726 C152.717964,101.64374 153.374185,100.99383 154.180183,100.996438 Z M154.180183,100.554338 C153.408555,100.544821 152.707427,101.001806 152.404643,101.71161 C152.10186,102.421415 152.257254,103.24377 152.798166,103.794147 C153.339077,104.344524 154.158613,104.514161 154.873563,104.223736 C155.588512,103.933311 156.057592,103.240215 156.061461,102.468539 C156.06415,101.423044 155.225566,100.569785 154.180183,100.554338 Z" id="Shape" fill="#231F20" fill-rule="nonzero"></path>
            <path d="M174.149954,93.8099543 C174.152542,93.4645007 173.874598,93.1823556 173.529144,93.1797615 C173.18369,93.1771673 172.90154,93.4551064 172.898939,93.80056 C172.896339,94.1460136 173.174272,94.4281691 173.519726,94.4307763 C173.685627,94.4320283 173.84523,94.3673228 173.963422,94.2508951 C174.081614,94.1344674 174.148712,93.9758554 174.149954,93.8099543 Z" id="Path" fill="#C4C4C4"></path>
            <path d="M173.524429,93.179726 C173.777857,93.1797332 174.006238,93.3326514 174.102775,93.566972 C174.199313,93.8012927 174.144928,94.0707072 173.965052,94.2492301 C173.785177,94.4277531 173.51536,94.4801032 173.281774,94.3818002 C173.048189,94.2834972 172.896999,94.0539685 172.898904,93.8005479 C172.901488,93.4569181 173.18079,93.1797163 173.524429,93.179726 Z M173.524429,92.7376256 C172.934804,92.7350338 172.454717,93.2109162 172.452121,93.8005411 C172.449526,94.390166 172.925405,94.8702567 173.51503,94.872856 C174.104655,94.8754554 174.584748,94.3995792 174.587352,93.8099543 C174.588602,93.5268016 174.477317,93.2547498 174.27798,93.0536485 C174.078643,92.8525473 173.807582,92.7388702 173.524429,92.7376256 Z" id="Shape" fill="#231F20" fill-rule="nonzero"></path>
            <path d="M189.562329,79.9026027 C190.148706,79.9159728 190.684906,79.5732969 190.919066,79.0355365 C191.153226,78.4977761 191.038811,77.8717994 190.629565,77.4516395 C190.220318,77.0314797 189.597569,76.9006343 189.053833,77.120564 C188.510098,77.3404937 188.153433,77.8674922 188.15137,78.4540183 C188.143507,79.242649 188.773764,79.8897129 189.562329,79.9026027 Z" id="Path" fill="#C4C4C4"></path>
            <path d="M189.576438,77.0195434 C190.160855,77.0214594 190.686484,77.3754799 190.907924,77.916323 C191.129363,78.457166 191.002939,79.0781595 190.587674,79.4893795 C190.172409,79.9005995 189.550208,80.0209399 189.011558,79.7942172 C188.472909,79.5674945 188.12405,79.0384259 188.127854,78.4540183 C188.129096,78.0715049 188.282565,77.7052223 188.554364,77.43607 C188.826164,77.1669177 189.193931,77.0170413 189.576438,77.0195434 Z M189.576438,76.5821461 C188.537437,76.5821461 187.69516,77.4244232 187.69516,78.4634247 C187.69516,79.5024261 188.537437,80.3447032 189.576438,80.3447032 C190.61544,80.3447032 191.457717,79.5024261 191.457717,78.4634247 C191.457717,77.4244232 190.61544,76.5821461 189.576438,76.5821461 Z" id="Shape" fill="#231F20" fill-rule="nonzero"></path>
            <path d="M190.390091,8.12242009 C190.390085,7.62691063 189.988849,7.22498349 189.49334,7.22412325 C188.997832,7.22326302 188.595203,7.62379459 188.593476,8.11930104 C188.591749,8.61480748 188.991575,9.0181363 189.487078,9.02073059 C189.983967,9.02073733 190.387503,8.61930309 190.390091,8.12242009 Z" id="Path" fill="#C4C4C4"></path>
            <path d="M189.496484,7.21940639 C189.862571,7.21942625 190.192422,7.44047016 190.331622,7.77905949 C190.470822,8.11764883 190.391824,8.50677794 190.13161,8.76428148 C189.871396,9.02178501 189.481461,9.09670392 189.144348,8.95396595 C188.807235,8.81122799 188.589657,8.47908051 188.59347,8.1130137 C188.598627,7.61797031 189.001414,7.21937953 189.496484,7.21940639 Z M189.496484,6.77730594 C188.756818,6.77472884 188.154867,7.3717942 188.151418,8.11145715 C188.147968,8.8511201 188.744322,9.45377435 189.483981,9.45809683 C190.223639,9.46241931 190.826997,8.86677604 190.832192,8.12712329 C190.834694,7.77081088 190.695224,7.42816525 190.444594,7.17488785 C190.193964,6.92161045 189.852803,6.7785474 189.496484,6.77730594 Z" id="Shape" fill="#231F20" fill-rule="nonzero"></path>
            <path d="M124.098539,136.778356 C123.382183,136.788707 122.808608,137.375536 122.814621,138.091941 C122.820635,138.808346 123.40398,139.385464 124.120409,139.383787 C124.836837,139.382111 125.417476,138.80227 125.420137,138.085845 C125.422731,137.73583 125.283863,137.399602 125.035034,137.153429 C124.786205,136.907257 124.448505,136.772006 124.098539,136.778356 Z" id="Path" fill="#C4C4C4"></path>
            <path d="M124.098539,136.778356 C124.625887,136.780274 125.100065,137.099918 125.299665,137.588037 C125.499264,138.076155 125.38491,138.63646 125.009999,139.007325 C124.635088,139.378191 124.073576,139.486459 123.587651,139.281575 C123.101727,139.076692 122.787246,138.599073 122.79105,138.071735 C122.796227,137.354065 123.380855,136.775747 124.098539,136.778356 Z M124.098539,136.336256 C123.392383,136.332451 122.753556,136.75465 122.480243,137.405779 C122.20693,138.056909 122.353024,138.80858 122.850333,139.309932 C123.347642,139.811284 124.098105,139.963459 124.751426,139.695428 C125.404748,139.427396 125.832105,138.792008 125.834018,138.085845 C125.836625,137.123998 125.060375,136.341437 124.098539,136.336256 Z" id="Shape" fill="#231F20" fill-rule="nonzero"></path>
            <path d="M144.011872,188.259543 C143.393674,188.256951 142.890424,188.755997 142.887828,189.374194 C142.885232,189.992392 143.384275,190.495646 144.002472,190.498245 C144.62067,190.500844 145.123927,190.001805 145.12653,189.383607 C145.12778,189.086734 145.011044,188.801523 144.802005,188.590719 C144.592966,188.379916 144.308746,188.260788 144.011872,188.259543 Z" id="Path" fill="#C4C4C4"></path>
            <path d="M144.011872,188.259543 C144.465031,188.261463 144.872323,188.536419 145.04353,188.955996 C145.214736,189.375573 145.116074,189.85698 144.793622,190.175385 C144.471171,190.493789 143.988555,190.586362 143.571174,190.40987 C143.153793,190.233377 142.884004,189.822644 142.887808,189.369498 C142.895532,188.754211 143.396537,188.259495 144.011872,188.259543 Z M144.011872,187.817443 C143.379496,187.811731 142.806119,188.188017 142.559712,188.770439 C142.313306,189.352862 142.442533,190.026399 142.886999,190.476269 C143.331464,190.926138 144.003391,191.063495 144.588749,190.824145 C145.174106,190.584795 145.557293,190.016006 145.559224,189.383607 C145.561845,188.524884 144.870565,187.825199 144.011872,187.817443 Z" id="Shape" fill="#231F20" fill-rule="nonzero"></path>
            <path d="M157.778128,192.83105 C156.978718,192.828472 156.328335,193.473968 156.324884,194.273374 C156.321433,195.072781 156.966219,195.723867 157.765622,195.72819 C158.565024,195.732513 159.216814,195.088438 159.222009,194.289041 C159.224511,193.904039 159.073644,193.533879 158.802727,193.260316 C158.531811,192.986752 158.163136,192.832292 157.778128,192.83105 Z" id="Path" fill="#C4C4C4"></path>
            <path d="M157.778128,192.83105 C158.578134,192.836262 159.222445,193.489014 159.217245,194.28902 C159.212045,195.089027 158.559301,195.733347 157.759295,195.728158 C156.959289,195.722969 156.314959,195.070235 156.320137,194.270228 C156.322624,193.886037 156.477632,193.51857 156.75106,193.24867 C157.024488,192.97877 157.393937,192.828547 157.778128,192.83105 Z M157.778128,192.38895 C156.739126,192.38895 155.896849,193.231227 155.896849,194.270228 C155.896849,195.30923 156.739126,196.151507 157.778128,196.151507 C158.817129,196.151507 159.659406,195.30923 159.659406,194.270228 C159.659406,193.231227 158.817129,192.38895 157.778128,192.38895 Z" id="Shape" fill="#231F20" fill-rule="nonzero"></path>
            <path d="M164.306164,165.039863 C163.882004,165.072181 163.554328,165.425774 163.554328,165.851164 C163.554328,166.276554 163.882004,166.630147 164.306164,166.662466 C164.61076,166.685674 164.902691,166.536316 165.062087,166.27572 C165.221482,166.015124 165.221482,165.687204 165.062087,165.426609 C164.902691,165.166013 164.61076,165.016655 164.306164,165.039863 Z" id="Path" fill="#C4C4C4"></path>
            <path d="M164.306164,165.039863 C164.635683,165.039869 164.932664,165.238621 165.058321,165.543241 C165.183979,165.84786 165.1135,166.198192 164.87982,166.430521 C164.646141,166.662849 164.295406,166.731296 163.99152,166.603875 C163.687635,166.476454 163.490607,166.178326 163.492511,165.848813 C163.495098,165.401282 163.858627,165.039856 164.306164,165.039863 Z M164.306164,164.597763 C163.79785,164.593958 163.337381,164.89698 163.139777,165.365329 C162.942174,165.833678 163.046417,166.374961 163.403831,166.736421 C163.761245,167.097881 164.30132,167.208211 164.771864,167.015892 C165.242408,166.823573 165.550593,166.366544 165.552511,165.858219 C165.555015,165.525607 165.424959,165.20569 165.191088,164.969171 C164.957216,164.732652 164.638784,164.599004 164.306164,164.597763 Z" id="Shape" fill="#231F20" fill-rule="nonzero"></path>
            <path d="M191.669361,150.196575 C190.801817,150.191396 190.094333,150.890475 190.089143,151.758018 C190.083954,152.625561 190.783024,153.333054 191.650567,153.338254 C192.51811,153.343454 193.225611,152.644393 193.230822,151.776849 C193.233324,151.360227 193.070217,150.959675 192.777385,150.663315 C192.484553,150.366954 192.085983,150.199063 191.669361,150.196575 Z" id="Path" fill="#C4C4C4"></path>
            <path d="M191.669361,150.196575 C192.536295,150.20177 193.235119,150.90831 193.230795,151.775249 C193.226472,152.642187 192.520636,153.341722 191.653693,153.33827 C190.78675,153.334818 190.086507,152.629685 190.089087,151.76274 C190.094267,150.894414 190.801023,150.193968 191.669361,150.196575 Z M191.669361,149.754475 C190.558263,149.74931 189.653109,150.645379 189.647066,151.756473 C189.641022,152.867566 190.536376,153.773428 191.647464,153.78035 C192.758553,153.787272 193.665122,152.892635 193.672922,151.781553 C193.678136,150.669044 192.781854,149.762243 191.669361,149.754475 Z" id="Shape" fill="#231F20" fill-rule="nonzero"></path>
            <path d="M1.09114155,179.248219 C0.827420616,179.242485 0.586460858,179.396931 0.481540924,179.63895 C0.376620989,179.88097 0.42861322,180.162416 0.613075322,180.350978 C0.797537424,180.539539 1.07777326,180.597703 1.32203994,180.498127 C1.56630662,180.398551 1.72601072,180.161044 1.72607306,179.89726 C1.728695,179.543214 1.44516008,179.253378 1.09114155,179.248219 Z" id="Path" fill="#C4C4C4"></path>
            <path d="M1.09114155,179.248219 C1.35408068,179.248226 1.59103673,179.406874 1.69121414,179.649982 C1.79139156,179.893089 1.73499487,180.172619 1.54839397,180.357867 C1.36179307,180.543116 1.08186104,180.597478 0.839488076,180.495536 C0.597115117,180.393593 0.440195101,180.155489 0.442100457,179.892557 C0.447207884,179.537006 0.735562923,179.250741 1.09114155,179.248219 Z M1.09114155,178.810822 C0.491126465,178.80823 0.00261598303,179.292535 2.03893036e-05,179.89255 C-0.00257520443,180.492565 0.48172698,180.981079 1.08174203,180.983678 C1.68175709,180.986278 2.17027362,180.501979 2.17287671,179.901963 C2.17412678,179.613821 2.06086022,179.336984 1.85799494,179.132355 C1.65512966,178.927726 1.37928376,178.812067 1.09114155,178.810822 Z" id="Shape" fill="#231F20" fill-rule="nonzero"></path>
            <path d="M32.3909132,160.524795 C31.814276,160.522203 31.3447172,160.987557 31.3421217,161.564194 C31.3395262,162.140831 31.8048768,162.610393 32.381514,162.612993 C32.9581512,162.615592 33.4277163,162.150244 33.4303196,161.573607 C33.4315698,161.296691 33.3227629,161.030621 33.1278358,160.83393 C32.9329087,160.637239 32.6678292,160.526039 32.3909132,160.524795 Z" id="Path" fill="#C4C4C4"></path>
            <path d="M32.3909132,160.524795 C32.9675504,160.527398 33.4328979,160.996963 33.4302985,161.5736 C33.4276991,162.150237 32.9581371,162.615588 32.3814999,162.612992 C31.8048627,162.610397 31.3395088,162.140838 31.3421005,161.564201 C31.3420891,161.286896 31.452888,161.021083 31.6498536,160.825884 C31.8468193,160.630685 32.1136194,160.522285 32.3909132,160.524795 Z M32.3909132,160.082694 C31.7893848,160.07889 31.2448813,160.438062 31.0116068,160.992529 C30.7783324,161.546997 30.9022944,162.187405 31.3256207,162.614775 C31.748947,163.042146 32.3881472,163.172192 32.9448075,162.9442 C33.5014679,162.716208 33.8658013,162.175145 33.8677169,161.573607 C33.8677535,160.755677 33.2088064,160.090435 32.3909132,160.082694 Z" id="Shape" fill="#231F20" fill-rule="nonzero"></path>
            <path d="M93.5418721,94.8446575 C93.194421,94.8446672 92.9125212,95.1258797 92.9116633,95.4733298 C92.9108054,95.8207799 93.1913132,96.103381 93.5387601,96.1051064 C93.8862069,96.1068318 94.1695075,95.8270305 94.1721005,95.479589 C94.17211,95.1307546 93.890697,94.8472415 93.5418721,94.8446575 Z" id="Path" fill="#C4C4C4"></path>
            <path d="M93.5418721,94.8446575 C93.8899376,94.8446575 94.1721005,95.1268204 94.1721005,95.4748858 C94.1721005,95.8229513 93.8899376,96.1051142 93.5418721,96.1051142 C93.1938067,96.1051142 92.9116438,95.8229513 92.9116438,95.4748858 C92.9116438,95.1268204 93.1938067,94.8446575 93.5418721,94.8446575 Z M93.5418721,94.4025571 C92.9496413,94.4025571 92.4695434,94.882655 92.4695434,95.4748858 C92.4695434,96.0671167 92.9496413,96.5472146 93.5418721,96.5472146 C94.134103,96.5472146 94.6142009,96.0671167 94.6142009,95.4748858 C94.615451,95.1904857 94.503671,94.9172376 94.3034518,94.7152544 C94.1032326,94.5132711 93.8309755,94.3990985 93.5465753,94.3978539 L93.5418721,94.4025571 Z" id="Shape" fill="#231F20" fill-rule="nonzero"></path>
            <path d="M130.593653,120.481781 C130.009557,120.470329 129.476491,120.813109 129.24455,121.349302 C129.012608,121.885494 129.127816,122.508699 129.536123,122.926532 C129.944429,123.344366 130.564811,123.473915 131.10621,123.254401 C131.647608,123.034886 132.00259,122.509867 132.004612,121.925662 C132.013478,121.545781 131.868747,121.178382 131.603174,120.906612 C131.337601,120.634842 130.973637,120.481677 130.593653,120.481781 Z" id="Path" fill="#C4C4C4"></path>
            <path d="M130.593653,120.481781 C131.177858,120.483802 131.702877,120.838784 131.922391,121.380183 C132.141906,121.921581 132.012357,122.541964 131.594523,122.95027 C131.17669,123.358577 130.553485,123.473785 130.017292,123.241843 C129.4811,123.009901 129.13832,122.476836 129.149772,121.89274 C129.162653,121.106024 129.806849,120.476516 130.593653,120.481781 Z M130.593653,120.03968 C129.554652,120.03968 128.712374,120.881957 128.712374,121.920959 C128.712374,122.95996 129.554652,123.802237 130.593653,123.802237 C131.632654,123.802237 132.474932,122.95996 132.474932,121.920959 C132.474932,120.881957 131.632654,120.03968 130.593653,120.03968 Z" id="Shape" fill="#231F20" fill-rule="nonzero"></path>
            <path d="M102.52968,125.885753 C102.821147,125.887658 103.084976,125.713549 103.197838,125.444814 C103.3107,125.176078 103.250301,124.865802 103.044875,124.659024 C102.83945,124.452247 102.529576,124.389815 102.260106,124.500913 C101.990636,124.61201 101.814801,124.874691 101.814795,125.166164 C101.814786,125.561753 102.1341,125.883168 102.52968,125.885753 Z" id="Path" fill="#C4C4C4"></path>
            <path d="M102.534384,124.451279 C102.825857,124.451285 103.088538,124.62712 103.199635,124.89659 C103.310733,125.16606 103.248301,125.475934 103.041523,125.681359 C102.834746,125.886785 102.52447,125.947184 102.255734,125.834322 C101.986999,125.72146 101.812889,125.457631 101.814795,125.166164 C101.81479,124.975747 101.890754,124.793197 102.02584,124.658994 C102.160926,124.524791 102.34397,124.450026 102.534384,124.451279 Z M102.534384,124.009178 C102.064116,124.005374 101.637947,124.285477 101.454903,124.718675 C101.271859,125.151874 101.368054,125.652697 101.698565,125.987254 C102.029076,126.321812 102.528691,126.424095 102.964085,126.246337 C103.399479,126.068578 103.684747,125.64585 103.686667,125.175571 C103.689278,124.53581 103.174129,124.014353 102.534384,124.009178 Z" id="Shape" fill="#231F20" fill-rule="nonzero"></path>
            <path d="M103.667854,129.831735 C103.363258,129.808527 103.071327,129.957885 102.911931,130.218481 C102.752536,130.479077 102.752536,130.806997 102.911931,131.067592 C103.071327,131.328188 103.363258,131.477546 103.667854,131.454338 C103.97245,131.477546 104.264381,131.328188 104.423776,131.067592 C104.583172,130.806997 104.583172,130.479077 104.423776,130.218481 C104.264381,129.957885 103.97245,129.808527 103.667854,129.831735 Z" id="Path" fill="#C4C4C4"></path>
            <path d="M103.667854,129.831735 C103.997373,129.831741 104.294353,130.030494 104.420011,130.335113 C104.545668,130.639732 104.475189,130.990064 104.24151,131.222393 C104.00783,131.454721 103.657095,131.523168 103.35321,131.395747 C103.049324,131.268326 102.852296,130.970198 102.854201,130.640685 C102.854197,130.425321 102.940071,130.218845 103.092797,130.067002 C103.245523,129.915158 103.452493,129.830483 103.667854,129.831735 Z M103.667854,129.389635 C103.159539,129.385831 102.699071,129.688852 102.501467,130.157201 C102.303863,130.62555 102.408107,131.166833 102.765521,131.528293 C103.122935,131.889753 103.663009,132.000083 104.133553,131.807764 C104.604097,131.615445 104.912283,131.158417 104.914201,130.650091 C104.916811,129.958382 104.359549,129.394811 103.667854,129.389635 Z" id="Shape" fill="#231F20" fill-rule="nonzero"></path>
            <path d="M116.535799,139.684932 C116.185136,139.684932 115.900868,139.9692 115.900868,140.319863 C115.900868,140.670526 116.185136,140.954795 116.535799,140.954795 C116.886462,140.954795 117.170731,140.670526 117.170731,140.319863 C117.170731,139.9692 116.886462,139.684932 116.535799,139.684932 Z" id="Path" fill="#C4C4C4"></path>
            <path d="M116.535799,139.684932 C116.77482,139.664302 117.005059,139.780158 117.130926,139.984399 C117.256793,140.188639 117.256793,140.446384 117.130926,140.650624 C117.005059,140.854865 116.77482,140.97072 116.535799,140.950091 C116.207518,140.921759 115.955463,140.647013 115.955463,140.317511 C115.955463,139.98801 116.207518,139.713264 116.535799,139.684932 Z M116.535799,139.242831 C115.940979,139.240239 115.45668,139.720333 115.454084,140.315153 C115.451489,140.909973 115.93158,141.394275 116.5264,141.396874 C117.12122,141.399474 117.605525,140.919386 117.608128,140.324566 C117.609378,140.038919 117.497102,139.764474 117.296001,139.561609 C117.0949,139.358744 116.821447,139.244076 116.535799,139.242831 Z" id="Shape" fill="#231F20" fill-rule="nonzero"></path>
            <path d="M177.207032,139.543836 C176.596627,139.541244 176.099693,140.033972 176.097098,140.644377 C176.094502,141.254782 176.587227,141.751719 177.197632,141.754318 C177.808038,141.756917 178.304977,141.264195 178.30758,140.65379 C178.310089,140.36028 178.195247,140.077929 177.988582,139.869497 C177.781916,139.661065 177.500553,139.543825 177.207032,139.543836 Z" id="Path" fill="#C4C4C4"></path>
            <path d="M177.207032,139.543836 C177.654917,139.543852 178.058514,139.814167 178.22902,140.228327 C178.399526,140.642487 178.303228,141.118604 177.985176,141.43395 C177.667123,141.749296 177.1902,141.841521 176.777512,141.667481 C176.364825,141.493442 176.097969,141.087549 176.101781,140.63968 C176.106945,140.032944 176.600273,139.543814 177.207032,139.543836 Z M177.207032,139.101735 C176.580773,139.097931 176.013975,139.472 175.771237,140.049315 C175.528499,140.62663 175.657692,141.293336 176.098505,141.738194 C176.539318,142.183051 177.204817,142.318327 177.784325,142.080872 C178.363832,141.843416 178.743062,141.280057 178.744977,140.65379 C178.747585,139.801037 178.059773,139.106915 177.207032,139.101735 Z" id="Shape" fill="#231F20" fill-rule="nonzero"></path>
            <path d="M189.642283,92.3989954 C189.128261,92.3951913 188.662648,92.7016506 188.46286,93.1752724 C188.263073,93.6488941 188.368524,94.1962453 188.729973,94.5617408 C189.091423,94.9272364 189.637566,95.0387736 190.113382,94.8442704 C190.589199,94.6497671 190.900822,94.1875938 190.90274,93.6735616 C190.90535,92.9740596 190.341771,92.4041721 189.642283,92.3989954 Z" id="Path" fill="#C4C4C4"></path>
            <path d="M189.642283,92.3989954 C190.343602,92.4015977 190.910025,92.9722369 190.907426,93.6735558 C190.904826,94.3748747 190.33419,94.9412999 189.632871,94.938704 C188.931552,94.9361081 188.365124,94.3654742 188.367717,93.6641553 C188.367708,93.3269779 188.502291,93.0037458 188.741593,92.76621 C188.980895,92.5286743 189.305115,92.3964885 189.642283,92.3989954 Z M189.642283,91.956895 C188.696813,91.9517144 187.926155,92.7139648 187.920965,93.6594351 C187.915775,94.6049055 188.678018,95.3755707 189.623488,95.3807703 C190.568958,95.38597 191.339631,94.6237351 191.34484,93.6782648 C191.347342,93.2242218 191.169369,92.7877822 190.850077,92.4649613 C190.530784,92.1421403 190.096326,91.9593829 189.642283,91.956895 Z" id="Shape" fill="#231F20" fill-rule="nonzero"></path>
            <path d="M38.8813242,171.713699 C38.3235491,171.709894 37.8184904,172.04271 37.6019594,172.556755 C37.3854283,173.0708 37.5001349,173.664679 37.8925228,174.061112 C38.2849108,174.457546 38.8775827,174.578337 39.393821,174.367089 C39.9100594,174.155842 40.2480377,173.654223 40.2499543,173.096438 C40.2524568,172.731394 40.1095177,172.380375 39.8527137,172.120923 C39.5959097,171.861472 39.2463747,171.71494 38.8813242,171.713699 Z" id="Path" fill="#C4C4C4"></path>
            <path d="M38.8813242,171.713699 C39.6396669,171.731859 40.2407376,172.359487 40.226114,173.117906 C40.2114905,173.876325 39.5866723,174.480316 38.8281931,174.46923 C38.069714,174.458143 37.4628159,173.836148 37.4703653,173.077626 C37.4714586,172.708005 37.6220069,172.354541 37.8877613,172.097645 C38.1535156,171.840749 38.5118784,171.702265 38.8813242,171.713699 Z M38.8813242,171.271598 C37.8793073,171.269016 37.0646757,172.078755 37.0612224,173.080769 C37.0577691,174.082784 37.8667999,174.898119 38.8688109,174.902443 C39.8708218,174.906767 40.6868597,174.098445 40.6920548,173.096438 C40.6945554,172.614142 40.505037,172.150673 40.1653233,171.808312 C39.8256096,171.465951 39.3636258,171.272841 38.8813242,171.271598 Z" id="Shape" fill="#231F20" fill-rule="nonzero"></path>
            <path d="M52.5205936,157.731096 C52.4886726,157.317044 52.1433859,156.997352 51.728105,156.997352 C51.3128242,156.997352 50.9675375,157.317044 50.9356164,157.731096 C50.9126653,158.028799 51.0584935,158.314251 51.3131632,158.470126 C51.5678328,158.626001 51.8883773,158.626001 52.1430469,158.470126 C52.3977165,158.314251 52.5435448,158.028799 52.5205936,157.731096 Z" id="Path" fill="#C4C4C4"></path>
            <path d="M51.716347,156.936256 C52.1303992,156.968177 52.4500909,157.313463 52.4500909,157.728744 C52.4500909,158.144025 52.1303992,158.489312 51.716347,158.521233 C51.4186442,158.544184 51.1331922,158.398356 50.977317,158.143686 C50.8214417,157.889017 50.8214417,157.568472 50.977317,157.313802 C51.1331922,157.059133 51.4186442,156.913305 51.716347,156.936256 Z M51.716347,156.494155 C51.2156417,156.490351 50.7620333,156.788789 50.5673414,157.250108 C50.3726495,157.711427 50.4752836,158.244617 50.827317,158.600697 C51.1793503,158.956777 51.7113329,159.065498 52.1748469,158.87609 C52.6383609,158.686683 52.941963,158.236515 52.9438813,157.735799 C52.9463846,157.408176 52.8183115,157.093045 52.5879679,156.860054 C52.3576244,156.627062 52.0439771,156.495396 51.716347,156.494155 Z" id="Shape" fill="#231F20" fill-rule="nonzero"></path>
            <path d="M69.800137,196.941644 C69.295627,196.93784 68.8385885,197.238569 68.6424407,197.703403 C68.4462929,198.168238 68.5497318,198.705474 68.9044555,199.064244 C69.2591792,199.423014 69.7952077,199.532539 70.2622367,199.341676 C70.7292656,199.150813 71.0351594,198.697215 71.0370776,198.192694 C71.0396878,197.506179 70.4866372,196.94682 69.800137,196.941644 Z" id="Path" fill="#C4C4C4"></path>
            <path d="M69.800137,196.941644 C70.4884682,196.944246 71.0443622,197.504357 71.0417631,198.192688 C71.039164,198.881019 70.479056,199.436916 69.7907247,199.43432 C69.1023935,199.431724 68.5464942,198.871619 68.5490868,198.183288 C68.5503318,197.852735 68.6828385,197.536216 68.9174564,197.303362 C69.1520744,197.070508 69.4695845,196.940394 69.800137,196.941644 Z M69.800137,196.499543 C68.8676544,196.494363 68.1075257,197.246085 68.1023356,198.178567 C68.0971455,199.11105 68.8488595,199.871186 69.781342,199.876386 C70.7138244,199.881586 71.4739687,199.12988 71.4791781,198.197397 C71.4816798,197.749591 71.3061851,197.319133 70.9913023,197.000722 C70.6764195,196.682311 70.2479433,196.502031 69.800137,196.499543 Z" id="Shape" fill="#231F20" fill-rule="nonzero"></path>
            <path d="M77.1183105,156.33895 C76.5909726,156.335146 76.113354,156.649626 75.9084705,157.135551 C75.703587,157.621475 75.8118549,158.182987 76.1827205,158.557899 C76.553586,158.93281 77.1138903,159.047164 77.602009,158.847564 C78.0901277,158.647965 78.409772,158.173787 78.4116895,157.646438 C78.4141924,157.301352 78.2791818,156.969473 78.0364901,156.724134 C77.7937983,156.478794 77.4634034,156.340191 77.1183105,156.33895 Z" id="Path" fill="#C4C4C4"></path>
            <path d="M77.1183105,156.33895 C77.6456587,156.340867 78.1198371,156.660512 78.3194365,157.14863 C78.5190359,157.636749 78.4046822,158.197053 78.0297708,158.567919 C77.6548594,158.938784 77.0933474,159.047052 76.607423,158.842169 C76.1214986,158.637285 75.8070178,158.159667 75.8108219,157.632329 C75.8108014,157.286845 75.9490028,156.955712 76.1946187,156.712747 C76.4402345,156.469782 76.7728469,156.335181 77.1183105,156.33895 Z M77.1183105,155.896849 C76.4117428,155.891138 75.7714798,156.312116 75.4966829,156.963083 C75.221886,157.614049 75.3668085,158.366483 75.8637356,158.868812 C76.3606627,159.37114 77.111486,159.524188 77.765385,159.256445 C78.419284,158.988701 78.8471591,158.353026 78.8490868,157.646438 C78.8517058,156.686415 78.0783063,155.904609 77.1183105,155.896849 Z" id="Shape" fill="#231F20" fill-rule="nonzero"></path>
            <path d="M114.602785,173.980639 C114.1416,173.976828 113.723703,174.251705 113.544568,174.676695 C113.365432,175.101686 113.460474,175.592769 113.785236,175.920238 C114.109999,176.247706 114.600276,176.34682 115.026739,176.171218 C115.453201,175.995616 115.731537,175.580014 115.731553,175.118813 C115.731574,174.493872 115.227705,173.985804 114.602785,173.980639 Z" id="Path" fill="#C4C4C4"></path>
            <path d="M114.602785,173.980639 C115.063553,173.982559 115.477706,174.262098 115.651824,174.688705 C115.825943,175.115312 115.725672,175.604811 115.397839,175.928596 C115.070007,176.252381 114.5793,176.346564 114.154888,176.16716 C113.730477,175.987756 113.456105,175.570163 113.459909,175.109406 C113.459885,174.807578 113.580743,174.518313 113.79549,174.306217 C114.010236,174.094122 114.300981,173.976866 114.602785,173.980639 Z M114.602785,173.538539 C113.733242,173.535959 113.026004,174.238308 113.022552,175.107848 C113.0191,175.977388 113.72074,176.68533 114.590276,176.689654 C115.459813,176.693977 116.168458,175.993047 116.173653,175.123516 C116.171087,174.25625 115.47004,173.553104 114.602785,173.547945 L114.602785,173.538539 Z" id="Shape" fill="#231F20" fill-rule="nonzero"></path>
            <path d="M83.2700913,145.131233 C82.810947,145.13124 82.4385001,145.502996 82.4376403,145.96214 C82.4367805,146.421283 82.8078325,146.794432 83.2669736,146.796158 C83.7261146,146.797885 84.099963,146.427539 84.1025571,145.968402 C84.1025643,145.507877 83.7306092,145.13382 83.2700913,145.131233 Z" id="Path" fill="#C4C4C4"></path>
            <path d="M83.2700913,145.131233 C83.7298386,145.133838 84.1004272,145.508645 84.0978274,145.968393 C84.0952275,146.42814 83.7204236,146.798733 83.2606762,146.796138 C82.8009289,146.793543 82.4303323,146.418743 82.4329224,145.958995 C82.4380764,145.500317 82.8113843,145.131204 83.2700913,145.131233 Z M83.2700913,144.689132 C82.5667904,144.686556 81.9943211,145.254142 81.990872,145.957439 C81.9874229,146.660737 82.5542977,147.23391 83.2575901,147.238232 C83.9608825,147.242554 84.5347592,146.676392 84.5399543,145.973105 C84.5424574,145.634256 84.4099245,145.308358 84.1716428,145.067429 C83.9333611,144.826499 83.6089475,144.690374 83.2700913,144.689132 Z" id="Shape" fill="#231F20" fill-rule="nonzero"></path>
            <path d="M99.6136986,71.0982192 C99.0630368,71.0956278 98.6145354,71.5399246 98.61194,72.0905863 C98.6093446,72.6412481 99.053638,73.0897528 99.6042997,73.0923523 C100.154961,73.0949518 100.603469,72.6506617 100.606073,72.1 C100.607323,71.8355577 100.503472,71.5814499 100.317365,71.3935789 C100.131258,71.2057079 99.878141,71.0994636 99.6136986,71.0982192 Z" id="Path" fill="#C4C4C4"></path>
            <path d="M99.6136986,71.0982192 C100.16436,71.1008228 100.60865,71.5493308 100.606051,72.0999925 C100.603451,72.6506542 100.154947,73.0949476 99.6042849,73.0923522 C99.0536232,73.0897568 98.6093265,72.6412554 98.6119178,72.0905936 C98.6131622,71.8261513 98.7194065,71.5730345 98.9072775,71.3869275 C99.0951485,71.2008206 99.3492563,71.0969689 99.6136986,71.0982192 Z M99.6136986,70.6561187 C99.0300329,70.6446853 98.4972811,70.9869669 98.2650794,71.5225775 C98.0328777,72.0581882 98.1472321,72.6810078 98.5545585,73.0991962 C98.9618849,73.5173847 99.5814801,73.6480867 100.123015,73.4300579 C100.66455,73.2120292 101.02073,72.6884677 101.024658,72.1047032 C101.03252,71.3160725 100.402263,70.6690085 99.6136986,70.6561187 Z" id="Shape" fill="#231F20" fill-rule="nonzero"></path>
            <path d="M125.119132,79.0136986 C124.818154,79.0117937 124.545751,79.1916326 124.429249,79.4691557 C124.312747,79.7466787 124.375158,80.0670698 124.587309,80.2805726 C124.799461,80.4940755 125.119449,80.5585192 125.397706,80.4437816 C125.675963,80.3290441 125.857528,80.0577883 125.857534,79.7568037 C125.858787,79.5601537 125.781544,79.3711278 125.642931,79.2316317 C125.504318,79.0921356 125.315786,79.0136946 125.119132,79.0136986 Z" id="Path" fill="#C4C4C4"></path>
            <path d="M125.119132,79.0136986 C125.420117,79.0137047 125.691373,79.1952695 125.80611,79.4735267 C125.920848,79.7517838 125.856404,80.0717722 125.642901,80.2839237 C125.429399,80.4960753 125.109007,80.558486 124.831484,80.4419841 C124.553961,80.3254822 124.374122,80.0530791 124.376027,79.7521005 C124.381146,79.3446005 124.711608,79.0162296 125.119132,79.0136986 Z M125.119132,78.5715982 C124.639353,78.5677941 124.20461,78.8536264 124.017925,79.2956127 C123.831241,79.7375991 123.929449,80.2485366 124.266685,80.58982 C124.603922,80.9311034 125.113652,81.0353983 125.557833,80.8539995 C126.002015,80.6726006 126.293012,80.2412977 126.294932,79.7615068 C126.294977,79.1098094 125.770784,78.5793258 125.119132,78.5715982 Z" id="Shape" fill="#231F20" fill-rule="nonzero"></path>
            <path d="M127.771735,13.7380365 C127.122367,13.7354443 126.593847,14.259758 126.591252,14.9091262 C126.588656,15.5584945 127.112967,16.0870167 127.762335,16.0896159 C128.411703,16.0922151 128.940228,15.5679071 128.942831,14.9185388 C128.942852,14.2702212 128.420032,13.7432024 127.771735,13.7380365 Z" id="Path" fill="#C4C4C4"></path>
            <path d="M127.771735,13.7380365 C128.420472,13.7432317 128.942414,14.272887 128.938093,14.9216302 C128.933771,15.5703734 128.404819,16.0930283 127.756071,16.0895804 C127.107322,16.0861325 126.583955,15.5578849 126.58653,14.9091324 C126.58777,14.5964705 126.71349,14.2971782 126.935897,14.0774189 C127.158304,13.8576595 127.459081,13.7355328 127.771735,13.7380365 Z M127.771735,13.2959361 C126.878814,13.2933555 126.152624,14.014656 126.149172,14.9075739 C126.14572,15.8004919 126.866311,16.5273858 127.759225,16.5317094 C128.652139,16.5360331 129.379736,15.8161515 129.384932,14.923242 C129.387433,14.4933348 129.218726,14.0801094 128.916057,13.7747932 C128.613388,13.469477 128.201648,13.2971785 127.771735,13.2959361 Z" id="Shape" fill="#231F20" fill-rule="nonzero"></path>
            <path d="M125.090913,56.6452968 C125.971445,56.6504764 126.689458,55.940869 126.694648,55.0603378 C126.699837,54.1798066 125.990238,53.461785 125.109707,53.4565851 C124.229176,53.4513851 123.511146,54.1609758 123.505936,55.0415068 C123.502178,55.4647417 123.667355,55.8720014 123.964868,56.1730458 C124.262381,56.4740903 124.667664,56.6440613 125.090913,56.6452968 Z" id="Path" fill="#C4C4C4"></path>
            <path d="M125.105023,53.4565297 C125.750313,53.4584444 126.330821,53.849133 126.575557,54.4462153 C126.820293,55.0432975 126.680993,55.7290259 126.222684,56.1832904 C125.764376,56.6375549 125.07744,56.7707724 124.48255,56.5207546 C123.88766,56.2707368 123.502132,55.6867885 123.505936,55.0415068 C123.511116,54.162791 124.226296,53.4539223 125.105023,53.4565297 Z M125.105023,53.0144292 C124.28094,53.0087284 123.534653,53.5002524 123.214455,54.2596062 C122.894257,55.01896 123.063274,55.8964414 123.642624,56.4825285 C124.221974,57.0686155 125.097443,57.2477645 125.860448,56.9363664 C126.623453,56.6249682 127.123571,55.8844132 127.127397,55.0603196 C127.132611,53.9374214 126.227906,53.0221971 125.105023,53.0144292 Z" id="Shape" fill="#231F20" fill-rule="nonzero"></path>
            <path d="M150.431735,67.6037443 C149.982367,67.6037443 149.618082,67.9680291 149.618082,68.4173973 C149.618082,68.8667654 149.982367,69.2310502 150.431735,69.2310502 C150.881103,69.2310502 151.245388,68.8667654 151.245388,68.4173973 C151.245388,67.9680291 150.881103,67.6037443 150.431735,67.6037443 Z" id="Path" fill="#C4C4C4"></path>
            <path d="M150.431735,67.6037443 C150.761254,67.6037498 151.058234,67.8025027 151.183892,68.1071218 C151.309549,68.4117409 151.23907,68.7620735 151.005391,68.994402 C150.771712,69.2267306 150.420976,69.2951776 150.117091,69.1677563 C149.813205,69.0403351 149.616177,68.7422073 149.618082,68.4126941 C149.620669,67.9651637 149.984197,67.6037368 150.431735,67.6037443 Z M150.431735,67.1616438 C149.923421,67.1578397 149.462952,67.4608612 149.265348,67.9292104 C149.067744,68.3975596 149.171988,68.9388418 149.529402,69.300302 C149.886816,69.6617622 150.426891,69.7720924 150.897435,69.5797732 C151.367979,69.387454 151.676164,68.9304257 151.678082,68.4221005 C151.680692,67.7303907 151.12343,67.1668203 150.431735,67.1616438 Z" id="Shape" fill="#231F20" fill-rule="nonzero"></path>
            <path d="M138.353927,17.3453881 C137.985958,17.3415748 137.652095,17.5602987 137.508629,17.8991695 C137.365163,18.2380403 137.440485,18.6299982 137.699334,18.8915574 C137.958182,19.1531166 138.349334,19.2325167 138.689681,19.0925884 C139.030028,18.9526601 139.252218,18.621094 139.252237,18.253105 C139.253488,18.0136099 139.159547,17.7834275 138.99108,17.6131968 C138.822614,17.4429662 138.593422,17.3466322 138.353927,17.3453881 Z" id="Path" fill="#C4C4C4"></path>
            <path d="M138.353927,17.3453881 C138.721491,17.3453931 139.052771,17.5670635 139.192989,17.9068318 C139.333206,18.2466002 139.25468,18.6373916 138.994098,18.8966228 C138.733517,19.1558539 138.342323,19.2323491 138.003287,19.0903687 C137.664252,18.9483883 137.444306,18.615961 137.44621,18.2484018 C137.446207,18.0080906 137.541991,17.7776899 137.712357,17.6082061 C137.882724,17.4387223 138.113619,17.3441365 138.353927,17.3453881 Z M138.353927,16.9032877 C137.807566,16.8994835 137.312797,17.2254237 137.100634,17.7289233 C136.888471,18.2324228 137.000763,18.8141646 137.38508,19.2025271 C137.769397,19.5908896 138.349931,19.7092669 138.855624,19.5023874 C139.361318,19.2955079 139.692421,18.8041793 139.694338,18.2578082 C139.696947,17.5141493 139.097572,16.9084654 138.353927,16.9032877 Z" id="Shape" fill="#231F20" fill-rule="nonzero"></path>
            <path d="M190.738128,190.521781 C190.395299,190.519876 190.085166,190.724926 189.952649,191.041114 C189.820132,191.357302 189.891396,191.722197 190.13314,191.965292 C190.374885,192.208387 190.739378,192.281683 191.056299,192.15093 C191.373221,192.020176 191.579995,191.711191 191.58,191.368356 C191.580007,190.902636 191.203841,190.524368 190.738128,190.521781 Z" id="Path" fill="#C4C4C4"></path>
            <path d="M190.738128,190.521781 C191.205668,190.524385 191.582574,190.90551 191.579974,191.373051 C191.577374,191.840591 191.196253,192.2175 190.728713,192.214905 C190.261173,192.21231 189.884259,191.831193 189.886849,191.363653 C189.888093,191.139126 189.978481,190.92429 190.138127,190.766407 C190.297774,190.608525 190.513601,190.52053 190.738128,190.521781 Z M190.738128,190.07968 C190.216497,190.075876 189.744023,190.386919 189.541324,190.867571 C189.338624,191.348223 189.445685,191.903666 189.812515,192.274542 C190.179345,192.645418 190.73358,192.758565 191.216427,192.561149 C191.699273,192.363734 192.01548,191.894701 192.017397,191.373059 C192.020007,190.663167 191.448006,190.084857 190.738128,190.07968 Z" id="Shape" fill="#231F20" fill-rule="nonzero"></path>
            <circle id="Oval" fill="#C4C4C4" cx="202.096347" cy="154.556438" r="1.05351598"></circle>
            <path d="M202.082237,153.507626 C202.509197,153.507643 202.893929,153.765353 203.056427,154.160181 C203.218925,154.555009 203.127053,155.008874 202.823796,155.309423 C202.520539,155.609972 202.065869,155.69777 201.672514,155.531738 C201.279159,155.365706 201.024909,154.978678 201.028721,154.551735 C201.029966,154.273572 201.141661,154.007296 201.339234,153.811487 C201.536807,153.615678 201.804074,153.506375 202.082237,153.507626 Z M202.082237,153.065525 C201.476904,153.061721 200.928971,153.423185 200.69424,153.981167 C200.45951,154.53915 200.584277,155.183603 201.010294,155.613664 C201.43631,156.043725 202.079556,156.174576 202.639731,155.945128 C203.199907,155.71568 203.566532,155.171187 203.568447,154.565845 C203.570949,154.169616 203.415622,153.78869 203.136768,153.507189 C202.857913,153.225687 202.478472,153.066767 202.082237,153.065525 Z" id="Shape" fill="#231F20" fill-rule="nonzero"></path>
        </g>
    </g>
</svg>