<svg xmlns="http://www.w3.org/2000/svg" xmlns:xlink="http://www.w3.org/1999/xlink" viewBox="0 0 602.41 437.9"><defs><style>.cls-1{fill:none;}.cls-2{fill:url(#radial-gradient);}.cls-3{clip-path:url(#clip-path);}.cls-4{fill:#c4c4c4;}.cls-5{fill:#231f20;}</style><radialGradient id="radial-gradient" cx="260.42" cy="181.63" r="514.56" gradientUnits="userSpaceOnUse"><stop offset="0.12" stop-color="#fff"/><stop offset="0.36" stop-color="#f8f8f8"/><stop offset="0.68" stop-color="#e6e6e6"/><stop offset="1" stop-color="#cecece"/></radialGradient><clipPath id="clip-path"><rect class="cls-1" x="0.5" y="97.68" width="576" height="288"/></clipPath></defs><title>Layer 1 (2)</title><g id="Layer_2" data-name="Layer 2"><g id="Layer_1-2" data-name="Layer 1"><rect class="cls-2" y="99.18" width="576" height="288"/><g class="cls-3"><g id="triangle36"><path class="cls-4" d="M602.17,48.19l-56-31L561.24,3.69l41,30.14v-.58l-40.88-30a.24.24,0,0,0-.3,0l-15.5,13.88a.24.24,0,0,0-.07.2.22.22,0,0,0,.12.18l56.55,31.26Z"/></g><g id="triangle36-2" data-name="triangle36"><path class="cls-4" d="M602,90.57,546.59,18l55.58,30.72v-.54L545.84,17.06a.22.22,0,0,0-.29.05.24.24,0,0,0,0,.3L602,91.34Z"/></g><g id="triangle36-3" data-name="triangle36"><path class="cls-4" d="M373.46,437l75.39-34,7.39,34.42h.48l-7.47-34.8a.25.25,0,0,0-.12-.16.22.22,0,0,0-.21,0L372.33,437Z"/></g><g id="triangle36-4" data-name="triangle36"><polygon class="cls-4" points="600.27 422.09 550.81 437.89 552.33 437.9 600.26 422.58 600.27 422.09"/></g><g id="triangle36-5" data-name="triangle36"><path class="cls-4" d="M602.25,33.25,561.91,3.6l40.5-1.35V1.78L561.22,3.15a.22.22,0,0,0-.21.17.22.22,0,0,0,.08.25l41.16,30.26Z"/></g><g id="triangle36-6" data-name="triangle36"><path class="cls-4" d="M601.39,202.19,546.8,199l44.11-26.74,10.59,8.25v-.6l-10.43-8.12a.24.24,0,0,0-.27,0L545.91,199a.24.24,0,0,0-.1.26.21.21,0,0,0,.21.17l55.37,3.27Z"/></g><g id="triangle36-7" data-name="triangle36"><path class="cls-4" d="M196.3,436.08l9-15.34,1.81,15.39h.47L205.67,420a.22.22,0,0,0-.18-.2.24.24,0,0,0-.25.11l-9.49,16.18Z"/></g><g id="triangle36-8" data-name="triangle36"><polygon class="cls-4" points="600.27 422.09 550.81 437.89 552.33 437.9 600.26 422.58 600.27 422.09"/><path class="cls-4" d="M600.28,419.54l-51.85-12.88a.24.24,0,0,0-.29.17l-7.85,31h.49l7.76-30.67L600.28,420Z"/></g><g id="triangle36-9" data-name="triangle36"><path class="cls-4" d="M600.83,312.11,572.5,328.37l-21.4-5.72,49.77-19v-.51l-50.61,19.38a.23.23,0,0,0-.15.24.22.22,0,0,0,.17.21l22.19,5.93h.06a.27.27,0,0,0,.12,0l28.18-16.18Z"/></g><g id="triangle36-10" data-name="triangle36"><path class="cls-4" d="M456.72,437.41,449.34,403,478,413.17l-12.36,24.28h.53l12.37-24.31a.23.23,0,0,0,0-.2.2.2,0,0,0-.14-.13L449.1,402.44a.24.24,0,0,0-.24,0,.24.24,0,0,0-.07.23l7.45,34.7Z"/></g><g id="triangle36-11" data-name="triangle36"><path class="cls-4" d="M466.12,437.46l12.19-23.94,15.16,24.08H494l-15.55-24.68a.19.19,0,0,0-.21-.11.21.21,0,0,0-.19.12l-12.49,24.52Z"/></g><g id="triangle36-12" data-name="triangle36"><path class="cls-4" d="M493.47,437.6H494l-15.12-24,51.66,24.19h1.12l-53.31-25a.22.22,0,0,0-.27.06.22.22,0,0,0,0,.28Z"/></g><g id="triangle36-13" data-name="triangle36"><path class="cls-4" d="M478.18,413.25l52.39,24.53h1.12L479.17,413.2l68.89-6.05-7.77,30.68h.49l7.82-30.9a.23.23,0,0,0-.05-.21.3.3,0,0,0-.2-.08l-70.09,6.16a.23.23,0,0,0-.08.44Z"/></g><g id="triangle36-14" data-name="triangle36"><path class="cls-4" d="M207.57,436.14l-1.84-15.65,24.37,15.76H231l-25.4-16.44a.27.27,0,0,0-.26,0,.25.25,0,0,0-.1.23l1.89,16.08Z"/></g><g id="triangle36-15" data-name="triangle36"><path class="cls-4" d="M363.24,278a.2.2,0,0,1-.11,0,.21.21,0,0,1-.11-.16l-2.41-11.64a.2.2,0,0,1,0-.18.21.21,0,0,1,.16-.1l59.6-6.91a.23.23,0,0,1,.25.19.23.23,0,0,1-.15.27L363.32,278Zm-2.12-11.67,2.3,11.13,54.7-17.74Z"/></g><g id="triangle36-16" data-name="triangle36"><path class="cls-4" d="M174.26,436l3.08-33.6,27.78,17.73-9.37,16h.55l9.34-15.94a.24.24,0,0,0-.07-.32l-28.3-18.05a.24.24,0,0,0-.23,0,.2.2,0,0,0-.13.19l-3.12,34Z"/></g><g id="triangle36-17" data-name="triangle36"><path class="cls-4" d="M205.44,420.26a.28.28,0,0,1-.13,0L177,402.16a.27.27,0,0,1-.11-.19.26.26,0,0,1,.1-.2l48.32-33.94a.23.23,0,0,1,.28,0,.22.22,0,0,1,.07.26l-20,52a.24.24,0,0,1-.15.13ZM177.56,402l27.76,17.71,19.64-51Z"/></g><g id="triangle36-18" data-name="triangle36"><path class="cls-4" d="M291.22,421.62h0l-85.79-1.36a.27.27,0,0,1-.19-.11.22.22,0,0,1,0-.21l20-52a.22.22,0,0,1,.36-.1l65.77,53.37a.24.24,0,0,1,.08.26A.25.25,0,0,1,291.22,421.62Zm-85.44-1.83,84.77,1.35-65-52.73Z"/></g><g id="triangle36-19" data-name="triangle36"><path class="cls-4" d="M230.1,436.25H231l-24.72-16,84.09,1.34-26.89,14.81h1l26.93-14.83a.24.24,0,0,0,.11-.27.22.22,0,0,0-.22-.17l-85.79-1.37h0a.24.24,0,0,0-.23.16.24.24,0,0,0,.1.27Z"/></g><g id="triangle36-20" data-name="triangle36"><path class="cls-4" d="M264.41,436.43,290.56,422l-8.9,14.49h.55l9.22-15a.23.23,0,0,0,0-.28.23.23,0,0,0-.28-.05l-27.66,15.24Z"/></g><g id="triangle36-21" data-name="triangle36"><path class="cls-4" d="M282.21,436.52l9.12-14.85,51.95,15.16H345l-53.7-15.68a.25.25,0,0,0-.27.11l-9.36,15.24Z"/></g><g id="triangle36-22" data-name="triangle36"><path class="cls-4" d="M519.6,299.28l-.09,0-99.16-39.81a.24.24,0,0,1-.15-.19.24.24,0,0,1,.08-.21l50.21-41.38a.19.19,0,0,1,.19,0,.23.23,0,0,1,.16.11l49,81.19a.24.24,0,0,1,0,.28A.25.25,0,0,1,519.6,299.28Zm-98.71-40.12L519,298.57,470.58,218.2Z"/></g><g id="triangle36-23" data-name="triangle36"><path class="cls-4" d="M519.6,299.28a.22.22,0,0,1-.2-.12l-49-81.19a.21.21,0,0,1,0-.19.23.23,0,0,1,.12-.15l41.14-18.39a.22.22,0,0,1,.22,0,.23.23,0,0,1,.11.18l7.83,99.6a.25.25,0,0,1-.17.24ZM471,218l48.31,80.12-7.72-98.27Z"/></g><g id="triangle36-24" data-name="triangle36"><path class="cls-4" d="M519.6,299.28h0a.24.24,0,0,1-.21-.22l-7.83-99.59a.28.28,0,0,1,.06-.18.24.24,0,0,1,.18-.07l34.25-.3a.44.44,0,0,1,.19.1.23.23,0,0,1,0,.2L519.83,299.1A.23.23,0,0,1,519.6,299.28ZM512,199.68l7.7,98,26-98.25Z"/></g><g id="triangle36-25" data-name="triangle36"><path class="cls-4" d="M600.87,303.09l-50.49,19.34-30.17-23.22,80.73-8.65v-.47l-81.36,8.72a.24.24,0,0,0-.12.42l30.74,23.65a.24.24,0,0,0,.14.05l.09,0,50.44-19.31Z"/></g><g id="triangle36-26" data-name="triangle36"><path class="cls-4" d="M511.78,199.68a.23.23,0,0,1-.22-.14.23.23,0,0,1,.06-.26l34.11-32.62a.22.22,0,0,1,.25,0,.24.24,0,0,1,.15.22l.14,32.33a.23.23,0,0,1-.23.23l-34.26.29Zm33.88-32.31-33.29,31.84,33.43-.28Z"/></g><g id="triangle36-27" data-name="triangle36"><path class="cls-4" d="M601.71,139.55l-55.58,26.9L546,18l56,73.38v-.77l-56-73.45a.25.25,0,0,0-.27-.08.24.24,0,0,0-.16.22l.17,149.57a.24.24,0,0,0,.11.2.24.24,0,0,0,.12,0l.1,0,55.72-27Z"/></g><g id="triangle36-28" data-name="triangle36"><path class="cls-4" d="M546,199.39a.24.24,0,0,1-.23-.23l-.14-32.33a.24.24,0,0,1,.07-.18.31.31,0,0,1,.19-.06l45,5.12a.22.22,0,0,1,.2.18.23.23,0,0,1-.11.25l-44.88,27.22A.28.28,0,0,1,546,199.39Zm.1-32.3.14,31.65,43.94-26.64Z"/></g><g id="triangle36-29" data-name="triangle36"><path class="cls-4" d="M601.61,158.87l-10.79,12.82-44.1-5,55-26.62v-.52l-55.92,27.07a.22.22,0,0,0-.13.25.23.23,0,0,0,.2.19l45,5.11h0a.21.21,0,0,0,.18-.09l10.51-12.48Z"/></g><g id="triangle36-30" data-name="triangle36"><path class="cls-4" d="M601.52,177l-10.23-5.09,10.32-12.25v-.74l-10.87,12.92a.29.29,0,0,0,0,.2.23.23,0,0,0,.13.16l10.69,5.32Z"/></g><g id="triangle36-31" data-name="triangle36"><path class="cls-4" d="M601.5,179.88l-8.59-6.69,8.6,4.28V177L591,171.73a.24.24,0,0,0-.31.09.24.24,0,0,0,.06.31l10.72,8.34Z"/></g><g id="triangle36-32" data-name="triangle36"><path class="cls-4" d="M291.16,421.61l52.12,15.22H345l-53.14-15.51,94.26-48.52-22.77,64.12h.49l22.92-64.52a.23.23,0,0,0-.07-.25.23.23,0,0,0-.26,0l-95.3,49.06a.24.24,0,0,0-.13.23A.22.22,0,0,0,291.16,421.61Z"/></g><g id="triangle36-33" data-name="triangle36"><path class="cls-4" d="M363.83,436.93l22.83-64.27,61.81,30L372.33,437h1.13l75.66-34.11a.23.23,0,0,0,.13-.21.22.22,0,0,0-.13-.21l-62.49-30.33a.25.25,0,0,0-.19,0,.25.25,0,0,0-.13.14l-23,64.68Z"/></g><g id="triangle36-34" data-name="triangle36"><path class="cls-4" d="M390.61,298.62a.24.24,0,0,1-.14-.05L363.1,278a.23.23,0,0,1-.06-.3.24.24,0,0,1,.29-.1l43.43,15.8a.24.24,0,0,1,0,.45l-16.08,4.8Zm-26-20.09,26,19.6,15.28-4.57Z"/></g><g id="triangle36-35" data-name="triangle36"><path class="cls-4" d="M406.68,293.82l-.08,0L363.17,278a.25.25,0,0,1-.16-.23.24.24,0,0,1,.16-.22L420.36,259a.22.22,0,0,1,.24.07.23.23,0,0,1,0,.25L406.9,293.67A.25.25,0,0,1,406.68,293.82Zm-42.71-16,42.58,15.49L420,259.61Z"/></g><g id="triangle36-36" data-name="triangle36"><path class="cls-4" d="M386.53,372.57h0a.23.23,0,0,1-.2-.24l4.08-73.95a.23.23,0,0,1,.17-.21l16.07-4.8a.22.22,0,0,1,.23.05.25.25,0,0,1,.07.23l-20.16,78.75A.22.22,0,0,1,386.53,372.57Zm4.3-74L386.89,370l19.46-76Z"/></g><g id="triangle36-37" data-name="triangle36"><path class="cls-4" d="M519.6,299.28h0l-112.92-5.46a.27.27,0,0,1-.19-.11.22.22,0,0,1,0-.21l13.76-34.36a.22.22,0,0,1,.12-.13.28.28,0,0,1,.18,0l99.17,39.82a.22.22,0,0,1,.14.26A.24.24,0,0,1,519.6,299.28ZM407,293.36l111.2,5.38-97.66-39.21Z"/></g><g id="triangle36-38" data-name="triangle36"><path class="cls-4" d="M420.43,259.46h-.08a.26.26,0,0,1-.15-.19l-11.58-89.61a.25.25,0,0,1,.12-.24.25.25,0,0,1,.26,0l61.78,48.23a.23.23,0,0,1,.09.18.26.26,0,0,1-.08.19l-50.21,41.38A.25.25,0,0,1,420.43,259.46Zm-11.27-89.31,11.45,88.63,49.65-40.93Z"/></g><g id="triangle36-39" data-name="triangle36"><path class="cls-4" d="M470.64,218.08a.23.23,0,0,1-.15-.05L408.71,169.8a.24.24,0,0,1-.09-.21.25.25,0,0,1,.14-.19l53.82-24.15a.26.26,0,0,1,.21,0,.25.25,0,0,1,.12.18l8,72.38a.21.21,0,0,1-.12.23A.2.2,0,0,1,470.64,218.08Zm-61.33-48.41,61,47.65-7.86-71.51Z"/></g><g id="triangle36-40" data-name="triangle36"><path class="cls-4" d="M462.67,145.7h0a.24.24,0,0,1-.19-.18L436.76,38.86a.28.28,0,0,1,0-.18.27.27,0,0,1,.15-.11L545.68,17a.23.23,0,0,1,.24.1.23.23,0,0,1,0,.26L462.87,145.6A.25.25,0,0,1,462.67,145.7ZM437.27,39l25.51,105.89L545.23,17.6Z"/></g><g id="triangle36-41" data-name="triangle36"><path class="cls-4" d="M470.64,218.08l-.12,0a.22.22,0,0,1-.11-.18l-8-72.38a.24.24,0,0,1,.41-.18l49.1,54a.26.26,0,0,1,.06.21.25.25,0,0,1-.14.16l-41.14,18.4A.15.15,0,0,1,470.64,218.08ZM463,146.16l7.85,71.34,40.55-18.13Z"/></g><g id="triangle36-42" data-name="triangle36"><path class="cls-4" d="M511.78,199.68h0a.28.28,0,0,1-.17-.07l-49.1-54a.23.23,0,0,1,0-.28.22.22,0,0,1,.25-.11L546,166.6a.24.24,0,0,1,.17.17.25.25,0,0,1-.07.23l-34.11,32.62A.23.23,0,0,1,511.78,199.68Zm-48.4-53.79,48.41,53.22L545.42,167Z"/></g><g id="triangle36-43" data-name="triangle36"><path class="cls-4" d="M545.89,167.06h-.06L462.62,145.7a.24.24,0,0,1-.16-.15.22.22,0,0,1,0-.21l83-128.2a.23.23,0,0,1,.26-.1.23.23,0,0,1,.17.22l.17,149.57a.22.22,0,0,1-.1.18A.24.24,0,0,1,545.89,167.06Zm-82.84-21.74,82.61,21.2L545.5,18.06Z"/></g><g id="triangle36-44" data-name="triangle36"><path class="cls-4" d="M386.53,372.57a.21.21,0,0,1-.17-.08.23.23,0,0,1-.06-.22l20.15-78.75a.26.26,0,0,1,.15-.16.26.26,0,0,1,.21,0l85.49,59.05a.24.24,0,0,1-.09.43L386.57,372.56ZM406.82,294l-20,78.06,104.72-19.52Z"/></g><g id="triangle36-45" data-name="triangle36"><path class="cls-4" d="M449,402.89l-.1,0-62.5-30.33a.23.23,0,0,1-.13-.24.25.25,0,0,1,.19-.2l105.65-19.7a.24.24,0,0,1,.24.12.24.24,0,0,1,0,.27l-43.15,50A.27.27,0,0,1,449,402.89Zm-61.75-30.46L449,402.37,491.56,353Z"/></g><g id="triangle36-46" data-name="triangle36"><path class="cls-4" d="M492.17,352.87a.28.28,0,0,1-.13,0l-85.49-59.05a.22.22,0,0,1-.09-.27.24.24,0,0,1,.23-.16l112.92,5.46a.25.25,0,0,1,.2.12.24.24,0,0,1,0,.22l-27.43,53.59a.22.22,0,0,1-.15.12Zm-84.68-59,84.59,58.43,27.15-53Z"/></g><g id="triangle36-47" data-name="triangle36"><path class="cls-4" d="M478.28,413.28l-.07,0-29.27-10.38a.26.26,0,0,1-.15-.16.25.25,0,0,1,0-.22l43.15-50a.24.24,0,0,1,.29-.05.24.24,0,0,1,.12.26l-13.89,60.4a.23.23,0,0,1-.11.16Zm-28.86-10.73,28.69,10.18,13.62-59.22Z"/></g><g id="triangle36-48" data-name="triangle36"><path class="cls-4" d="M478.28,413.28a.24.24,0,0,1-.17-.09.21.21,0,0,1-.05-.2l13.88-60.41a.23.23,0,0,1,.16-.17.24.24,0,0,1,.23.06l56.2,54.25a.22.22,0,0,1,.06.24.24.24,0,0,1-.2.16l-70.09,6.15Zm14-60.19-13.72,59.69,69.25-6.08Z"/></g><g id="triangle36-49" data-name="triangle36"><path class="cls-4" d="M492.17,352.87a.2.2,0,0,1-.16-.07.23.23,0,0,1-.05-.27l27.43-53.59a.23.23,0,0,1,.16-.13.25.25,0,0,1,.19.05l30.75,23.65a.25.25,0,0,1,.09.2.26.26,0,0,1-.13.19l-58.17,29.94A.23.23,0,0,1,492.17,352.87Zm27.51-53.47-27,52.69,57.2-29.44Z"/></g><g id="triangle36-50" data-name="triangle36"><path class="cls-4" d="M548.37,407.12a.2.2,0,0,1-.16-.07L492,352.8a.22.22,0,0,1-.07-.22.23.23,0,0,1,.16-.17l80.36-24a.22.22,0,0,1,.24.06.24.24,0,0,1,.06.23L548.59,407a.22.22,0,0,1-.16.16Zm-55.75-54.38,55.64,53.71L572.18,329Z"/></g><g id="triangle36-51" data-name="triangle36"><path class="cls-4" d="M492.17,352.87a.25.25,0,0,1-.22-.15.24.24,0,0,1,.11-.29l58.17-29.95a.25.25,0,0,1,.17,0l22.19,5.92a.26.26,0,0,1,.18.23.25.25,0,0,1-.17.23l-80.36,24Zm58.2-29.93-55.84,28.75,77.14-23.06Z"/></g><g id="triangle36-52" data-name="triangle36"><path class="cls-4" d="M145.14,382.73a.25.25,0,0,1-.22-.15.23.23,0,0,1,.1-.28l66.55-39a.23.23,0,0,1,.18,0,.28.28,0,0,1,.15.11l13.76,24.5a.22.22,0,0,1,0,.21.24.24,0,0,1-.17.13l-80.32,14.48Zm66.47-38.88L146.4,382l78.69-14.18Z"/></g><g id="triangle36-53" data-name="triangle36"><path class="cls-4" d="M225.45,368.26h0a.23.23,0,0,1-.18-.11l-13.76-24.5a.22.22,0,0,1,0-.21.21.21,0,0,1,.17-.13l41.08-8.17a.24.24,0,0,1,.25.11.24.24,0,0,1,0,.27l-27.33,32.66A.21.21,0,0,1,225.45,368.26Zm-13.39-24.57,13.43,23.92,26.68-31.89Z"/></g><g id="triangle36-54" data-name="triangle36"><path class="cls-4" d="M341.72,203.24h-.06a.24.24,0,0,1-.17-.29l12.91-49.71a.23.23,0,0,1,.28-.17.24.24,0,0,1,.17.29l-12.91,49.71A.22.22,0,0,1,341.72,203.24Z"/></g><g id="triangle36-55" data-name="triangle36"><path class="cls-4" d="M341.72,203.24a.2.2,0,0,1-.15-.06.24.24,0,0,1-.08-.24l12.91-49.71a.19.19,0,0,1,.11-.14.19.19,0,0,1,.18,0l54.23,16.32a.25.25,0,0,1,.17.21.24.24,0,0,1-.13.23l-67.14,33.38A.19.19,0,0,1,341.72,203.24Zm13.07-49.65-12.72,49,66.15-32.89Z"/></g><g id="triangle36-56" data-name="triangle36"><path class="cls-4" d="M360.84,266.37a.24.24,0,0,1-.23-.17l-19.12-63.13a.24.24,0,0,1,.09-.26.23.23,0,0,1,.27,0L420.57,259a.23.23,0,0,1,.09.25.22.22,0,0,1-.2.17l-59.6,6.91Zm-18.7-62.78L361,265.88l58.8-6.82Z"/></g><g id="triangle36-57" data-name="triangle36"><path class="cls-4" d="M420.43,259.46a.2.2,0,0,1-.13,0l-78.72-56.23a.25.25,0,0,1-.1-.21.26.26,0,0,1,.13-.19l67.14-33.38a.22.22,0,0,1,.22,0,.26.26,0,0,1,.12.18l11.58,89.61a.25.25,0,0,1-.12.23A.24.24,0,0,1,420.43,259.46ZM342.17,203l78,55.68L408.66,170Z"/></g><g id="triangle36-58" data-name="triangle36"><path class="cls-4" d="M319.87,310.59a.25.25,0,0,1-.17-.08.24.24,0,0,1,0-.32l41-44.22a.23.23,0,0,1,.24-.06.24.24,0,0,1,.17.18l2.41,11.64a.24.24,0,0,1-.09.23L320,310.54A.3.3,0,0,1,319.87,310.59Zm40.83-44-38.88,42L363,277.68Z"/></g><g id="triangle36-59" data-name="triangle36"><path class="cls-4" d="M319.87,310.59a.24.24,0,0,1-.21-.14.26.26,0,0,1,.07-.29l43.37-32.57a.26.26,0,0,1,.29,0l27.36,20.61a.22.22,0,0,1,.08.24.24.24,0,0,1-.18.18l-70.74,12Zm43.38-32.52L320.79,310,390,298.24Z"/></g><g id="triangle36-60" data-name="triangle36"><path class="cls-4" d="M386.53,372.57a.24.24,0,0,1-.16-.07l-66.66-62a.22.22,0,0,1-.06-.23.25.25,0,0,1,.19-.17l70.73-12a.22.22,0,0,1,.19.06.21.21,0,0,1,.08.19l-4.08,74a.21.21,0,0,1-.15.2ZM320.38,310.5l65.94,61.32,4-73.15Z"/></g><g id="triangle36-61" data-name="triangle36"><path class="cls-4" d="M601.16,247.43,520,298.53l26.21-99,55.09,23.27v-.5l-55.16-23.31a.27.27,0,0,0-.2,0,.23.23,0,0,0-.12.15L519.37,299a.25.25,0,0,0,.09.25.24.24,0,0,0,.14,0,.22.22,0,0,0,.13,0L601.16,248Z"/></g><g id="triangle36-62" data-name="triangle36"><path class="cls-4" d="M600.94,290.09l-80.36,8.61L601.16,248v-.56l-81.68,51.42a.21.21,0,0,0-.1.27.22.22,0,0,0,.22.16h0l81.31-8.72Z"/></g><g id="triangle36-63" data-name="triangle36"><path class="cls-4" d="M601.29,222.25l-53.91-22.78,54,3.19v-.47l-55.34-3.26a.21.21,0,0,0-.24.18.24.24,0,0,0,.13.27l55.34,23.37Z"/></g><g id="triangle36-64" data-name="triangle36"><path class="cls-4" d="M225.45,368.26a.22.22,0,0,1-.18-.1.23.23,0,0,1,0-.29l27.32-32.66a.23.23,0,0,1,.18-.08l54-.19h0a.24.24,0,0,1,.23.19.23.23,0,0,1-.15.26l-81.33,32.85Zm27.44-32.66-26.65,31.85,79.33-32Z"/></g><g id="triangle36-65" data-name="triangle36"><path class="cls-4" d="M291.22,421.62a.19.19,0,0,1-.14-.05L225.31,368.2a.22.22,0,0,1-.09-.21.25.25,0,0,1,.15-.19L306.7,335a.23.23,0,0,1,.23,0,.25.25,0,0,1,.09.23l-15.56,86.21a.27.27,0,0,1-.15.18Zm-65.31-53.53L291.06,421l15.42-85.41Z"/></g><g id="triangle36-66" data-name="triangle36"><path class="cls-4" d="M252.78,335.6a.24.24,0,0,1-.08-.46l67.09-25a.23.23,0,0,1,.26.07.21.21,0,0,1,0,.26L307,335.28a.23.23,0,0,1-.2.13l-54,.19Zm66.6-24.81-65.29,24.33,52.56-.18Z"/></g><g id="triangle36-67" data-name="triangle36"><path class="cls-4" d="M291.22,421.62a.2.2,0,0,1-.13,0,.23.23,0,0,1-.1-.23l15.57-86.22a.2.2,0,0,1,.12-.16.22.22,0,0,1,.21,0l79.74,37.16a.23.23,0,0,1,0,.42l-95.3,49.06A.2.2,0,0,1,291.22,421.62ZM307,335.52,291.54,421,386,372.34Z"/></g><g id="triangle36-68" data-name="triangle36"><path class="cls-4" d="M386.53,372.57a.17.17,0,0,1-.1,0l-79.74-37.15a.23.23,0,0,1-.11-.33l13.09-24.82a.23.23,0,0,1,.36-.06l66.66,62a.23.23,0,0,1,0,.3A.23.23,0,0,1,386.53,372.57Zm-79.42-37.51,78.17,36.43-65.34-60.76Z"/></g><g id="triangle36-69" data-name="triangle36"><path class="cls-4" d="M600.69,338.86l-27.61-10.28,27.75-15.93v-.54l-28.42,16.31a.23.23,0,0,0-.11.22.21.21,0,0,0,.15.2l28.24,10.52Z"/></g><g id="triangle36-70" data-name="triangle36"><path class="cls-4" d="M354.62,153.52a.22.22,0,0,1-.19-.1.24.24,0,0,1,.06-.32l54.19-36.25a.24.24,0,0,1,.33.07.23.23,0,0,1-.07.32l-54.19,36.25A.19.19,0,0,1,354.62,153.52Z"/></g><g id="triangle36-71" data-name="triangle36"><path class="cls-4" d="M408.85,169.85h-.06l-54.23-16.33a.22.22,0,0,1-.17-.19.24.24,0,0,1,.1-.22l54.19-36.25a.26.26,0,0,1,.24,0,.23.23,0,0,1,.13.21l0,52.57a.24.24,0,0,1-.09.18A.23.23,0,0,1,408.85,169.85Zm-53.68-16.64,53.45,16.09,0-51.81Z"/></g><g id="triangle36-72" data-name="triangle36"><path class="cls-4" d="M408.85,169.85a.19.19,0,0,1-.12,0,.21.21,0,0,1-.11-.19l0-52.57a.23.23,0,0,1,.11-.2.21.21,0,0,1,.23,0l53.87,28.42a.26.26,0,0,1,.12.22.22.22,0,0,1-.14.2L409,169.83Zm.2-52.41,0,51.81,53.05-23.8Z"/></g><g id="triangle36-73" data-name="triangle36"><path class="cls-4" d="M462.67,145.7l-.1,0L408.7,117.26a.24.24,0,0,1-.11-.29l28.18-78.24a.23.23,0,0,1,.23-.16.26.26,0,0,1,.22.18L462.9,145.41a.22.22,0,0,1-.08.24A.2.2,0,0,1,462.67,145.7ZM409.1,116.94,462.33,145,436.94,39.62Z"/></g><g id="triangle36-74" data-name="triangle36"><path class="cls-4" d="M600.53,371.39l-51.74,34.93,23.83-77.2,27.94,35.95v-.76l-27.84-35.83a.25.25,0,0,0-.23-.09.23.23,0,0,0-.18.16l-24.16,78.27a.22.22,0,0,0,.08.25.24.24,0,0,0,.14.05.22.22,0,0,0,.13,0l52-35.12Z"/></g><g id="triangle36-75" data-name="triangle36"><path class="cls-4" d="M600.28,419.54l-51.34-12.76L600.52,372v-.57l-52.29,35.3a.23.23,0,0,0-.1.24.21.21,0,0,0,.17.18l52,12.91Z"/></g><g id="triangle36-76" data-name="triangle36"><path class="cls-4" d="M600.56,364.31l-27.34-35.18,27.47,10.23v-.5L572.61,328.4a.24.24,0,0,0-.27.08.24.24,0,0,0,0,.29l28.21,36.3Z"/></g><path class="cls-4" d="M561.24.94a2.45,2.45,0,1,0,2.44,2.46A2.45,2.45,0,0,0,561.24.94Z"/><path class="cls-5" d="M561.24.94a2.45,2.45,0,1,1-2.46,2.43A2.46,2.46,0,0,1,561.24.94m0-.94a3.39,3.39,0,1,0,3.37,3.4A3.39,3.39,0,0,0,561.25,0Z"/><path class="cls-4" d="M177.15,400.46a1.51,1.51,0,1,0,1.5,1.51A1.5,1.5,0,0,0,177.15,400.46Z"/><path class="cls-5" d="M177.15,400.46a1.51,1.51,0,1,1-1.52,1.5,1.51,1.51,0,0,1,1.52-1.5m0-.94a2.45,2.45,0,1,0,2.44,2.46,2.45,2.45,0,0,0-2.44-2.46Z"/><path class="cls-4" d="M205.45,417.93a2.09,2.09,0,1,0,2.08,2.1A2.1,2.1,0,0,0,205.45,417.93Z"/><path class="cls-5" d="M205.45,417.93a2.09,2.09,0,1,1-2.1,2.08,2.1,2.1,0,0,1,2.1-2.08m0-.94a3,3,0,1,0,3,3.05,3,3,0,0,0-3-3.05Z"/><path class="cls-4" d="M590.93,170.13a1.81,1.81,0,1,0,1.81,1.82A1.8,1.8,0,0,0,590.93,170.13Z"/><path class="cls-5" d="M590.93,170.13a1.81,1.81,0,1,1-1.82,1.8,1.82,1.82,0,0,1,1.82-1.8m0-.94a2.75,2.75,0,1,0,2.73,2.77,2.76,2.76,0,0,0-2.73-2.77Z"/><circle class="cls-4" cx="470.64" cy="217.85" r="3.11"/><path class="cls-5" d="M470.65,214.74a3.11,3.11,0,1,1-3.12,3.09,3.11,3.11,0,0,1,3.12-3.09m0-.94a4.05,4.05,0,1,0,4,4.07,4.06,4.06,0,0,0-4-4.07Z"/><path class="cls-4" d="M513.11,199.46a1.33,1.33,0,1,0-1.34,1.32A1.33,1.33,0,0,0,513.11,199.46Z"/><path class="cls-5" d="M511.78,198.12a1.33,1.33,0,1,1-1.33,1.32,1.33,1.33,0,0,1,1.33-1.32m0-.94a2.27,2.27,0,1,0,2.26,2.28,2.27,2.27,0,0,0-2.26-2.28Z"/><path class="cls-4" d="M545.88,169.89a3.07,3.07,0,1,0-3-3.08A3.05,3.05,0,0,0,545.88,169.89Z"/><path class="cls-5" d="M545.91,163.76a3.07,3.07,0,1,1-3.08,3.05,3.06,3.06,0,0,1,3.08-3.05m0-.93a4,4,0,1,0,4,4,4,4,0,0,0-4-4Z"/><path class="cls-4" d="M547.64,17.27a1.91,1.91,0,1,0-1.92,1.91A1.92,1.92,0,0,0,547.64,17.27Z"/><path class="cls-5" d="M545.74,15.35a1.92,1.92,0,1,1-1.92,1.9,1.92,1.92,0,0,1,1.92-1.9m0-.94a2.85,2.85,0,1,0,2.84,2.87,2.85,2.85,0,0,0-2.84-2.87Z"/><path class="cls-4" d="M406.69,290.82a2.77,2.77,0,1,0,2.76,2.78A2.76,2.76,0,0,0,406.69,290.82Z"/><path class="cls-5" d="M406.69,290.82a2.77,2.77,0,1,1-2.78,2.75,2.77,2.77,0,0,1,2.78-2.75m0-.94a3.71,3.71,0,1,0,3.69,3.72,3.71,3.71,0,0,0-3.69-3.72Z"/><path class="cls-4" d="M449,400.28a2.38,2.38,0,1,0,2.37,2.39A2.38,2.38,0,0,0,449,400.28Z"/><path class="cls-5" d="M449,400.28a2.38,2.38,0,1,1-2.39,2.36,2.39,2.39,0,0,1,2.39-2.36m0-.94a3.32,3.32,0,1,0,3.29,3.33,3.32,3.32,0,0,0-3.29-3.33Z"/><path class="cls-4" d="M478.3,410a3.08,3.08,0,1,0,3.07,3.1A3.08,3.08,0,0,0,478.3,410Z"/><path class="cls-5" d="M478.3,410a3.08,3.08,0,1,1-3.1,3.06,3.08,3.08,0,0,1,3.1-3.06m0-.94a4,4,0,1,0,4,4,4,4,0,0,0-4-4Z"/><path class="cls-4" d="M492.18,350.91a1.73,1.73,0,0,0,0,3.45,1.73,1.73,0,1,0,0-3.45Z"/><path class="cls-5" d="M492.18,350.91a1.73,1.73,0,1,1-1.73,1.72,1.73,1.73,0,0,1,1.73-1.72m0-.94a2.67,2.67,0,1,0,2.65,2.68,2.66,2.66,0,0,0-2.65-2.68Z"/><path class="cls-4" d="M550.36,319.35a3.34,3.34,0,1,0,3.32,3.36A3.34,3.34,0,0,0,550.36,319.35Z"/><path class="cls-5" d="M550.36,319.35a3.34,3.34,0,1,1-3.36,3.33,3.35,3.35,0,0,1,3.36-3.33m0-.94a4.28,4.28,0,1,0,4.26,4.31,4.29,4.29,0,0,0-4.26-4.31Z"/><path class="cls-4" d="M145.15,381.12a1.38,1.38,0,1,0,1.37,1.38A1.37,1.37,0,0,0,145.15,381.12Z"/><path class="cls-5" d="M145.15,381.12a1.38,1.38,0,1,1-1.38,1.37,1.39,1.39,0,0,1,1.38-1.37m0-.93a2.31,2.31,0,1,0,2.3,2.32,2.31,2.31,0,0,0-2.3-2.32Z"/><path class="cls-4" d="M211.7,341.31a2.22,2.22,0,1,0,2.21,2.23A2.22,2.22,0,0,0,211.7,341.31Z"/><path class="cls-5" d="M211.7,341.31a2.22,2.22,0,1,1-2.23,2.21,2.21,2.21,0,0,1,2.23-2.21m0-.94a3.16,3.16,0,1,0,3.14,3.17,3.17,3.17,0,0,0-3.14-3.17Z"/><path class="cls-4" d="M341.72,201.66a1.34,1.34,0,1,0,1.34,1.35A1.35,1.35,0,0,0,341.72,201.66Z"/><path class="cls-5" d="M341.72,201.66a1.34,1.34,0,1,1,0,2.68,1.34,1.34,0,0,1,0-2.68m0-.94A2.28,2.28,0,1,0,344,203a2.28,2.28,0,0,0-2.27-2.29Z"/><path class="cls-4" d="M420.45,256.17a3.06,3.06,0,1,0,3,3.07A3,3,0,0,0,420.45,256.17Z"/><path class="cls-5" d="M420.45,256.17a3.06,3.06,0,1,1-3.07,3,3.05,3.05,0,0,1,3.07-3m0-.94a4,4,0,1,0,4,4,4,4,0,0,0-4-4Z"/><path class="cls-4" d="M360.83,267.66a1.53,1.53,0,1,0-1.52-1.53A1.53,1.53,0,0,0,360.83,267.66Z"/><path class="cls-5" d="M360.84,264.61a1.53,1.53,0,1,1-1.53,1.52,1.52,1.52,0,0,1,1.53-1.52m0-.94a2.47,2.47,0,1,0,2.45,2.48,2.47,2.47,0,0,0-2.45-2.48Z"/><path class="cls-4" d="M363.25,276.05a1.73,1.73,0,1,0,0,3.45,1.73,1.73,0,1,0,0-3.45Z"/><path class="cls-5" d="M363.25,276.05a1.73,1.73,0,1,1-1.73,1.72,1.72,1.72,0,0,1,1.73-1.72m0-.94a2.67,2.67,0,1,0,2.65,2.68,2.67,2.67,0,0,0-2.65-2.68Z"/><path class="cls-4" d="M390.61,297a1.35,1.35,0,1,0,1.35,1.35A1.35,1.35,0,0,0,390.61,297Z"/><path class="cls-5" d="M390.61,297a1.35,1.35,0,1,1,0,2.69,1.35,1.35,0,0,1,0-2.69m0-.94a2.29,2.29,0,1,0,2.28,2.3,2.29,2.29,0,0,0-2.28-2.3Z"/><path class="cls-4" d="M519.61,296.7a2.35,2.35,0,1,0,2.34,2.36A2.34,2.34,0,0,0,519.61,296.7Z"/><path class="cls-5" d="M519.61,296.7a2.35,2.35,0,1,1-2.35,2.33,2.35,2.35,0,0,1,2.35-2.33m0-.94a3.29,3.29,0,1,0,3.27,3.3,3.29,3.29,0,0,0-3.27-3.3Z"/><path class="cls-4" d="M546.05,196.46a2.7,2.7,0,1,0,2.68,2.71A2.7,2.7,0,0,0,546.05,196.46Z"/><path class="cls-5" d="M546.05,196.46a2.7,2.7,0,1,1-2.71,2.69,2.69,2.69,0,0,1,2.71-2.69m0-.94a3.64,3.64,0,1,0,3.62,3.66,3.64,3.64,0,0,0-3.62-3.66Z"/><path class="cls-4" d="M225.47,365.1a2.93,2.93,0,1,0,2.91,2.94A2.92,2.92,0,0,0,225.47,365.1Z"/><path class="cls-5" d="M225.47,365.1a2.93,2.93,0,1,1-2.94,2.91,2.91,2.91,0,0,1,2.94-2.91m0-.94a3.86,3.86,0,1,0,3.85,3.88,3.86,3.86,0,0,0-3.85-3.88Z"/><path class="cls-4" d="M254.46,335.37a1.69,1.69,0,0,0-3.37,0,1.69,1.69,0,1,0,3.37,0Z"/><path class="cls-5" d="M252.79,333.68a1.69,1.69,0,0,1,0,3.37,1.69,1.69,0,1,1,0-3.37m0-.94a2.63,2.63,0,1,0,2.61,2.64,2.62,2.62,0,0,0-2.61-2.64Z"/><path class="cls-4" d="M291.24,418.74a2.65,2.65,0,1,0,2.63,2.66A2.65,2.65,0,0,0,291.24,418.74Z"/><path class="cls-5" d="M291.24,418.74a2.65,2.65,0,1,1-2.66,2.64,2.65,2.65,0,0,1,2.66-2.64m0-.94a3.59,3.59,0,1,0,3.57,3.61,3.59,3.59,0,0,0-3.57-3.61Z"/><path class="cls-4" d="M306.8,332.41a2.77,2.77,0,1,0,2.75,2.78A2.76,2.76,0,0,0,306.8,332.41Z"/><path class="cls-5" d="M306.8,332.41a2.77,2.77,0,1,1-2.78,2.75,2.75,2.75,0,0,1,2.78-2.75m0-.94a3.71,3.71,0,1,0,3.68,3.72,3.71,3.71,0,0,0-3.68-3.72Z"/><path class="cls-4" d="M386.54,369.92a2.42,2.42,0,1,0,2.4,2.42A2.42,2.42,0,0,0,386.54,369.92Z"/><path class="cls-5" d="M386.54,369.92a2.42,2.42,0,1,1-2.43,2.4,2.4,2.4,0,0,1,2.43-2.4m0-.94a3.35,3.35,0,1,0,3.34,3.37,3.36,3.36,0,0,0-3.34-3.37Z"/><path class="cls-4" d="M319.88,308.58a1.77,1.77,0,1,0,1.77,1.78A1.78,1.78,0,0,0,319.88,308.58Z"/><path class="cls-5" d="M319.88,308.58a1.77,1.77,0,1,1-1.78,1.76,1.78,1.78,0,0,1,1.78-1.76m0-.94a2.71,2.71,0,1,0,2.7,2.73,2.71,2.71,0,0,0-2.7-2.73Z"/><path class="cls-4" d="M354.63,151.17a2.12,2.12,0,1,0,2.11,2.13A2.12,2.12,0,0,0,354.63,151.17Z"/><path class="cls-5" d="M354.63,151.17a2.12,2.12,0,1,1-2.13,2.11,2.12,2.12,0,0,1,2.13-2.11m0-.94a3.06,3.06,0,1,0,3,3.08,3.05,3.05,0,0,0-3-3.08Z"/><path class="cls-4" d="M408.86,168a1.58,1.58,0,1,0,1.57,1.58A1.57,1.57,0,0,0,408.86,168Z"/><path class="cls-5" d="M408.86,168a1.58,1.58,0,1,1-1.58,1.57,1.59,1.59,0,0,1,1.58-1.57m0-.94a2.52,2.52,0,1,0,2.5,2.53,2.53,2.53,0,0,0-2.5-2.53Z"/><path class="cls-4" d="M414.51,29.21A2.5,2.5,0,1,0,417,31.72,2.51,2.51,0,0,0,414.51,29.21Z"/><path class="cls-5" d="M414.51,29.21A2.5,2.5,0,1,1,412,31.7a2.5,2.5,0,0,1,2.52-2.49m0-.94a3.44,3.44,0,1,0,3.43,3.46,3.44,3.44,0,0,0-3.43-3.46Z"/><path class="cls-4" d="M408.8,120.44a3.39,3.39,0,1,0-3.37-3.41A3.38,3.38,0,0,0,408.8,120.44Z"/><path class="cls-5" d="M408.83,113.66a3.39,3.39,0,1,1-3.4,3.37,3.39,3.39,0,0,1,3.4-3.37m0-.94a4.33,4.33,0,1,0,4.3,4.35,4.33,4.33,0,0,0-4.3-4.35Z"/><path class="cls-4" d="M462.68,143.74a1.73,1.73,0,0,0,0,3.46,1.73,1.73,0,1,0,0-3.46Z"/><path class="cls-5" d="M462.68,143.74a1.73,1.73,0,1,1-1.73,1.72,1.73,1.73,0,0,1,1.73-1.72m0-.94a2.67,2.67,0,1,0,2.65,2.68,2.67,2.67,0,0,0-2.65-2.68Z"/><path class="cls-4" d="M437,36.88a1.93,1.93,0,1,0,1.91,1.93A1.92,1.92,0,0,0,437,36.88Z"/><path class="cls-5" d="M437,36.88a1.93,1.93,0,1,1-1.93,1.92A1.92,1.92,0,0,1,437,36.88m0-.94a2.87,2.87,0,1,0,2.85,2.88A2.87,2.87,0,0,0,437,35.94Z"/><path class="cls-4" d="M548.38,405.09a1.8,1.8,0,1,0,1.79,1.8A1.8,1.8,0,0,0,548.38,405.09Z"/><path class="cls-5" d="M548.38,405.09a1.8,1.8,0,1,1-1.81,1.79,1.8,1.8,0,0,1,1.81-1.79m0-.94a2.74,2.74,0,1,0,2.72,2.75,2.74,2.74,0,0,0-2.72-2.75Z"/><circle class="cls-4" cx="572.53" cy="328.62" r="2.24"/><path class="cls-5" d="M572.54,326.39a2.24,2.24,0,1,1-2.24,2.22,2.23,2.23,0,0,1,2.24-2.22m0-.94a3.18,3.18,0,1,0,3.16,3.19,3.17,3.17,0,0,0-3.16-3.19Z"/></g></g></g></svg>