<?xml version="1.0" encoding="UTF-8"?>
<svg width="155px" height="24px" viewBox="0 0 155 24" version="1.1" xmlns="http://www.w3.org/2000/svg" xmlns:xlink="http://www.w3.org/1999/xlink">
    <!-- Generator: Sketch 52.6 (67491) - http://www.bohemiancoding.com/sketch -->
    <title>Group 4</title>
    <desc>Created with Sketch.</desc>
    <g id="Page-1" stroke="none" stroke-width="1" fill="none" fill-rule="evenodd">
        <g id="Artboard" transform="translate(-8.000000, -7.000000)" fill="#FFFFFF">
            <g id="Group-4" transform="translate(8.000000, 0.000000)">
                <text id="vera-Labs" font-family="AvenirNext-DemiBold, Avenir Next" font-size="30" font-weight="500">
                    <tspan x="24" y="30">vera Labs</tspan>
                </text>
                <g id="Group" transform="translate(0.000000, 8.000000)">
                    <path d="M1,2 C1,0.8954305 1.90234375,0 2.99456145,0 L20.0054385,0 C21.1070044,0 22,0.887729645 22,2 L22,2 C22,3.1045695 21.0976562,4 20.0054385,4 L2.99456145,4 C1.89299558,4 1,3.11227036 1,2 L1,2 Z" id="Rectangle"></path>
                    <path d="M-2.32,11.24 C-2.32,10.1354305 -1.43256671,9.24 -0.320385016,9.24 L5.68038502,9.24 C6.78474188,9.24 7.68,10.1277296 7.68,11.24 L7.68,11.24 C7.68,12.3445695 6.79256671,13.24 5.68038502,13.24 L-0.320385016,13.24 C-1.42474188,13.24 -2.32,12.3522704 -2.32,11.24 L-2.32,11.24 Z" id="Rectangle" transform="translate(2.680000, 11.240000) rotate(-90.000000) translate(-2.680000, -11.240000) "></path>
                    <path d="M2.68,11 C2.68,9.8954305 3.57309612,9 4.67481124,9 L20.0051888,9 C21.1068926,9 22,9.88772964 22,11 L22,11 C22,12.1045695 21.1069039,13 20.0051888,13 L4.67481124,13 C3.57310742,13 2.68,12.1122704 2.68,11 L2.68,11 Z" id="Rectangle"></path>
                    <path d="M1,20 C1,18.8954305 1.90234375,18 2.99456145,18 L20.0054385,18 C21.1070044,18 22,18.8877296 22,20 L22,20 C22,21.1045695 21.0976562,22 20.0054385,22 L2.99456145,22 C1.89299558,22 1,21.1122704 1,20 L1,20 Z" id="Rectangle"></path>
                </g>
            </g>
        </g>
    </g>
</svg>